<?xml version="1.0" encoding="UTF-8"?><svg xmlns="http://www.w3.org/2000/svg" viewBox="0 0 182 182"><defs><style>.d{fill:#001b69;}.e{fill:#c90a2b;}.f{fill:#c9092b;}.g{fill:#011c69;}.h{fill:#c8082a;}.i{fill:#fdfdfd;}.j{fill:none;}.k{fill:#011b69;}</style></defs><g id="a"/><g id="b"><g id="c"><g><g><path class="h" d="M182,91c0,6.18-.62,12.22-1.8,18.05-23.09,.01-46.17,0-69.26-.03-1.55,0-1.94,.36-1.94,1.93,.06,23.09,.04,46.17,.04,69.26-2.21,.45-4.44,.81-6.71,1.09h-22.66c-2.27-.28-4.5-.64-6.71-1.09,0-23.03-.02-46.04,.04-69.07,0-1.72-.43-2.12-2.13-2.12-23.03,.03-46.05,.04-69.07,.03-1.18-5.83-1.8-11.87-1.8-18.05s.62-12.22,1.8-18.05c23.09-.01,46.17,0,69.26,.03,1.55,0,1.94-.36,1.94-1.93-.06-23.09-.04-46.17-.04-69.26,2.21-.45,4.44-.81,6.71-1.09h22.66c2.27,.28,4.5,.64,6.71,1.09,0,23.03,.02,46.04-.04,69.07,0,1.72,.43,2.12,2.13,2.12,23.03-.03,46.05-.04,69.07-.03,1.18,5.83,1.8,11.87,1.8,18.05Z"/><path class="i" d="M180.2,109.05c-.82,4.13-1.93,8.15-3.3,12.05h-.05c-.03,.11-.05,.21-.06,.32,0,.01,0,.02,0,.03-.68,1.93-1.43,3.83-2.24,5.69l-.15-.09c-3.28-1.96-6.34-4.69-9.88-5.67-3.61-.99-7.7-.27-11.58-.28-3.72-.01-7.45,0-11.71,0,1.13,.71,1.79,1.13,2.46,1.53,8.45,5.08,16.9,10.15,25.35,15.23-3.14,5.21-6.78,10.08-10.86,14.54-11.87-7.14-23.75-14.27-35.62-21.4-.41-.24-.77-.66-1.48-.57v46.48c-3.89,1.37-7.91,2.47-12.03,3.3,0-23.09,.02-46.17-.04-69.26,0-1.57,.39-1.93,1.94-1.93,23.09,.03,46.17,.04,69.26,.03Z"/><path class="i" d="M73,71.05c0,1.57-.39,1.93-1.94,1.93-23.09-.03-46.17-.04-69.26-.03,.82-4.13,1.93-8.15,3.3-12.05h.16c.01-.11,.02-.22,.03-.34l-.06-.03c.68-1.92,1.42-3.82,2.24-5.67,.15,.1,.31,.19,.46,.28,3.16,1.9,6.13,4.53,9.56,5.47,3.49,.96,7.45,.27,11.2,.29,3.85,.01,7.7,0,12.09,0-1.13-.7-1.79-1.13-2.46-1.53-8.45-5.08-16.9-10.15-25.35-15.23,3.14-5.21,6.78-10.09,10.87-14.55,11.92,7.16,23.84,14.32,35.76,21.48,.35,.21,.66,.6,1.33,.47V5.09c3.89-1.37,7.91-2.47,12.03-3.3,0,23.09-.02,46.17,.04,69.26Z"/><path class="i" d="M72.96,180.21c-4.12-.83-8.14-1.93-12.03-3.3v-46.74c-.76,.45-1.29,.75-1.81,1.06-11.76,7.06-23.52,14.12-35.28,21.18-1.38-1.5-2.7-3.05-3.97-4.65,8.09-4.86,16.19-9.72,24.28-14.58,5.2-3.13,10.38-6.29,15.61-9.35,.98-.57,1.4-1.24,1.13-2.24-.26-.96-1.16-.46-1.74-.46-5.57-.05-11.14,0-16.72-.06-1.12-.01-2.04,.31-2.98,.87-8.82,5.31-17.65,10.61-26.48,15.92-3.1-5.15-5.7-10.64-7.74-16.39,.04-.03,.07-.05,.11-.07l-.12-.3h-.12c-1.37-3.9-2.48-7.92-3.3-12.05,23.02,.01,46.04,0,69.07-.03,1.7,0,2.13,.4,2.13,2.12-.06,23.03-.04,46.04-.04,69.07Z"/><path class="i" d="M180.2,72.95c-23.02-.01-46.04,0-69.07,.03-1.7,0-2.13-.4-2.13-2.12,.06-23.03,.04-46.04,.04-69.07,4.12,.83,8.14,1.93,12.03,3.3V51.59c.77,.03,1.17-.42,1.64-.69,11.82-7.1,23.64-14.19,35.46-21.29,1.38,1.5,2.71,3.05,3.97,4.64-6.43,3.86-12.85,7.72-19.28,11.58-6.86,4.12-13.71,8.28-20.6,12.35-.97,.57-1.43,1.22-1.15,2.23,.26,.96,1.16,.46,1.74,.46,5.57,.05,11.14,0,16.71,.06,1.13,.01,2.05-.31,2.99-.87,8.82-5.31,17.65-10.61,26.48-15.92,3.1,5.16,5.71,10.65,7.75,16.41-.01,.01-.02,.01-.03,.02,.04,.08,.08,.17,.12,.25,1.39,3.93,2.51,7.98,3.33,12.13Z"/><path class="k" d="M158.17,29.61c-11.82,7.1-23.64,14.19-35.46,21.29-.47,.27-.87,.72-1.64,.69V5.09c14.35,5.02,27.06,13.53,37.1,24.52Z"/><path class="k" d="M158.17,152.4c-10.05,10.98-22.75,19.49-37.1,24.51v-46.48c.71-.09,1.07,.33,1.48,.57,11.87,7.13,23.75,14.26,35.62,21.4Z"/><path class="d" d="M60.93,5.09V51.54c-.67,.13-.98-.26-1.33-.47-11.92-7.16-23.84-14.32-35.76-21.48,10.05-10.98,22.75-19.49,37.09-24.5Z"/><path class="d" d="M60.93,130.17v46.74c-14.34-5.01-27.04-13.52-37.09-24.5,11.76-7.06,23.52-14.12,35.28-21.18,.52-.31,1.05-.61,1.81-1.06Z"/><path class="e" d="M169.03,44.14c-8.83,5.31-17.66,10.61-26.48,15.92-.94,.56-1.86,.88-2.99,.87-5.57-.06-11.14-.01-16.71-.06-.58,0-1.48,.5-1.74-.46-.28-1.01,.18-1.66,1.15-2.23,6.89-4.07,13.74-8.23,20.6-12.35,6.43-3.86,12.85-7.72,19.28-11.58,2.51,3.13,4.81,6.44,6.89,9.89Z"/><path class="f" d="M59.76,123.83c-5.23,3.06-10.41,6.22-15.61,9.35-8.09,4.86-16.19,9.72-24.28,14.58-2.52-3.14-4.82-6.44-6.9-9.9,8.83-5.31,17.66-10.61,26.48-15.92,.94-.56,1.86-.88,2.98-.87,5.58,.06,11.15,0,16.72,.06,.58,0,1.48-.5,1.74,.46,.27,1-.15,1.67-1.13,2.24Z"/><path class="g" d="M5.29,60.56c0,.12-.02,.23-.03,.34h-.16c.04-.12,.08-.25,.13-.37l.06,.03Z"/><path class="g" d="M5.34,121.4s-.07,.04-.11,.07c-.05-.12-.09-.25-.13-.37h.12l.12,.3Z"/><path class="d" d="M176.87,60.82c-.04-.08-.08-.17-.12-.25,.01-.01,.02-.01,.03-.02,.03,.09,.07,.18,.09,.27Z"/><path class="d" d="M176.9,121.1c-.03,.11-.07,.21-.11,.32,.01-.11,.03-.21,.06-.32h.05Z"/><path class="e" d="M40.78,60.9c-4.39,0-8.24,.01-12.09,0-3.75-.02-7.71,.67-11.2-.29-3.43-.94-6.4-3.57-9.56-5.47-.15-.09-.31-.18-.46-.28,1.59-3.71,3.44-7.29,5.5-10.72,8.45,5.08,16.9,10.15,25.35,15.23,.67,.4,1.33,.83,2.46,1.53Z"/><path class="f" d="M174.54,127.14c-1.6,3.71-3.45,7.29-5.51,10.72-8.45-5.08-16.9-10.15-25.35-15.23-.67-.4-1.33-.82-2.46-1.53,4.26,0,7.99-.01,11.71,0,3.88,.01,7.97-.71,11.58,.28,3.54,.98,6.6,3.71,9.88,5.67l.15,.09Z"/></g><path class="j" d="M182,91c0,6.18-.62,12.22-1.8,18.05-.82,4.13-1.93,8.15-3.3,12.05-.03,.11-.07,.21-.11,.32,0,.01,0,.02,0,.03-.68,1.93-1.43,3.83-2.24,5.69-1.6,3.71-3.45,7.29-5.51,10.72-3.14,5.21-6.78,10.08-10.86,14.54-10.05,10.98-22.75,19.49-37.1,24.51-3.89,1.37-7.91,2.47-12.03,3.3-2.21,.45-4.44,.81-6.71,1.09-3.71,.46-7.49,.7-11.33,.7s-7.62-.24-11.33-.7c-2.27-.28-4.5-.64-6.71-1.09-4.12-.83-8.14-1.93-12.03-3.3-14.34-5.01-27.04-13.52-37.09-24.5-1.38-1.5-2.7-3.05-3.97-4.65-2.52-3.14-4.82-6.44-6.9-9.9-3.1-5.15-5.7-10.64-7.74-16.39-.05-.12-.09-.25-.13-.37-1.37-3.9-2.48-7.92-3.3-12.05-1.18-5.83-1.8-11.87-1.8-18.05s.62-12.22,1.8-18.05c.82-4.13,1.93-8.15,3.3-12.05,.04-.12,.08-.25,.13-.37,.68-1.92,1.42-3.82,2.24-5.67,1.59-3.71,3.44-7.29,5.5-10.72,3.14-5.21,6.78-10.09,10.87-14.55,10.05-10.98,22.75-19.49,37.09-24.5,3.89-1.37,7.91-2.47,12.03-3.3,2.21-.45,4.44-.81,6.71-1.09,3.71-.46,7.49-.7,11.33-.7s7.62,.24,11.33,.7c2.27,.28,4.5,.64,6.71,1.09,4.12,.83,8.14,1.93,12.03,3.3,14.35,5.02,27.06,13.53,37.1,24.52,1.38,1.5,2.71,3.05,3.97,4.64,2.51,3.13,4.81,6.44,6.89,9.89,3.1,5.16,5.71,10.65,7.75,16.41,.03,.09,.07,.18,.09,.27,1.39,3.93,2.51,7.98,3.33,12.13,1.18,5.83,1.8,11.87,1.8,18.05Z"/></g></g></g></svg>