<?xml version="1.0" encoding="UTF-8"?><svg xmlns="http://www.w3.org/2000/svg" viewBox="0 0 246 246"><defs><style>.d{fill:#30007b;}.e{fill:#9e72d8;}.f{fill:none;}.g{fill:#2c006f;}.h{fill:#39018f;}.i{fill:#fefefe;}</style></defs><g id="a"/><g id="b"><g id="c"><g><g><path class="e" d="M27.51,178.17c-2.57-4.4-2.4-9.25-2.4-14.11,.03-20.14-.03-40.28-.04-60.41,0-9.14-.18-18.28,.12-27.41,.23-6.8,3.67-11.94,9.63-15.36,8.9-5.11,17.77-10.28,26.65-15.41,7.46-4.3,14.93-8.58,22.39-12.88,10.15-5.86,20.21-11.85,30.45-17.55,5.85-3.25,12-3.11,17.83,.19,11.32,6.4,22.55,12.95,33.81,19.46,11.26,6.51,22.5,13.04,33.75,19.56,3.97,2.3,7.95,4.58,11.93,6.88,2.83,1.64,5.08,3.86,6.7,6.71-.59,.38-1.16,.78-1.76,1.13-9.08,5.26-18.14,10.55-27.26,15.75-3.2,1.83-6.28,3.89-9.65,5.42-.36-.13-.49-.45-.69-.74-2.74-4.04-5.63-7.96-9.01-11.5-2.87-3.01-6.01-5.71-9.36-8.15-4.98-3.62-10.41-6.46-16.22-8.45-5.02-1.73-10.22-2.71-15.55-3.17-7.28-.63-14.41,.02-21.44,1.73-6.69,1.63-13,4.32-18.89,7.92-6.18,3.77-11.7,8.34-16.27,13.97-3.8,4.68-7.03,9.75-9.39,15.34-2.34,5.57-3.98,11.35-4.61,17.36-.66,6.26-.52,12.52,.49,18.78,.84,5.18,2.2,10.18,4.13,15.02,1.03,2.58,2.32,5.06,3.49,7.58-1.45,.88-2.9,1.78-4.36,2.63-9.3,5.4-18.58,10.82-27.92,16.15-2.16,1.23-4.19,2.7-6.55,3.57Z"/><path class="h" d="M179.66,90.14c3.37-1.53,6.45-3.59,9.65-5.42,9.11-5.2,18.18-10.49,27.26-15.75,.6-.35,1.18-.75,1.76-1.13,1.86,3.07,2.66,6.37,2.66,9.99-.05,30.33-.04,60.66-.02,90.99,0,3.34-.71,6.45-2.44,9.31-7.05-4.07-14.1-8.13-21.15-12.2-5.55-3.2-11.1-6.38-16.65-9.59-.44-.26-.83-.59-1.35-.2-.05-1.03-1.02-1.11-1.64-1.47-7.95-4.66-15.92-9.3-23.92-13.87-.86-.49-1.61-1.42-2.8-1.22-.4-.82-1.24-1.1-1.94-1.51-4.93-2.84-9.89-5.63-14.81-8.48-3.75-2.17-7.46-4.41-11.35-6.35,.49-.33,.97-.68,1.49-.97,8.97-5.2,17.95-10.4,26.92-15.59,7.21-4.14,14.45-8.24,21.62-12.44,2.26-1.32,4.68-2.4,6.71-4.1Zm-6.57,22.86c-.6,0-1.21-.07-1.81,.01-1.08,.15-1.41-.26-1.24-1.3,.21-1.33,.3-2.68,.48-4.02,.44-3.16,.45-3.16-2.66-3.16-.45,0-.9,.03-1.35,0-.72-.07-1.09,.15-1.16,.94-.11,1.34-.35,2.67-.46,4.02-.09,1.14,.21,2.7-.53,3.29-.72,.57-2.21,.29-3.35,.21-1.18-.09-1.78,.16-1.59,1.5,.17,1.18-.48,2.7,.25,3.48,.67,.71,2.19,.22,3.32,.2,.82-.02,1.03,.23,.93,1.03-.24,1.89-.45,3.78-.59,5.67-.05,.68-.33,.85-.94,.83-1.2-.03-2.41-.02-3.61,0-.35,0-.86-.2-.85,.49,.03,1.5-.32,3.15,.23,4.43,.3,.71,2.12,.14,3.26,.23,.15,.01,.3,.01,.45,0,.6-.05,.77,.2,.69,.81-.26,2.08-.44,4.17-.69,6.25-.27,2.25-.28,2.26,1.89,2.25,.78,0,1.57-.2,2.32-.08,1.14,.2,1.16-.37,1.22-1.23,.15-2.29,.42-4.58,.62-6.87,.07-.85,.41-1.21,1.33-1.15,1.35,.09,2.71,.05,4.07,.01,.77-.02,.89,.24,.78,.98-.32,2.23-.53,4.47-.8,6.7-.13,1.11-.1,1.91,1.45,1.57,.88-.19,1.85-.15,2.75,0,1.1,.18,1.23-.33,1.3-1.22,.15-2.04,.42-4.07,.57-6.11,.1-1.37,.48-2.22,2.11-1.93,.83,.15,1.7,.02,2.56,.03,.44,0,.79-.03,.77-.62-.04-1.45,.37-3.11-.21-4.28-.38-.77-2.21-.18-3.38-.26-.05,0-.1,0-.15,0-.66,.09-.88-.18-.8-.85,.22-2.04,.41-4.08,.59-6.12,.05-.62,.47-.53,.87-.53,1.1,0,2.22-.08,3.31,.02,1.08,.1,1.42-.29,1.3-1.33-.14-1.23,.51-2.81-.25-3.63-.7-.76-2.28-.25-3.47-.21-1,.04-1.17-.3-1.05-1.21,.28-2.13,.41-4.28,.7-6.41,.1-.7-.04-.9-.71-.89-1.25,.03-2.5,.04-3.75,0-.63-.02-.85,.16-.9,.83-.13,1.59-.38,3.17-.56,4.76q-.33,2.88-3.26,2.88Z"/><path class="g" d="M179.39,156.14c.52-.39,.91-.06,1.35,.2,5.54,3.2,11.1,6.39,16.65,9.59,7.05,4.06,14.1,8.13,21.15,12.2-1.76,3.59-4.85,5.77-8.18,7.69-7.55,4.35-15.1,8.7-22.65,13.06-7.59,4.38-15.19,8.75-22.78,13.13-7.41,4.28-14.82,8.58-22.23,12.86-3.6,2.08-7.14,4.27-10.82,6.19-6.67,3.49-13.14,2.81-19.54-1.02-8.21-4.91-16.56-9.58-24.84-14.37-3.16-1.83-6.29-3.72-9.43-5.58,.59-2.21,1.29-2.68,3.09-1.15,.41-.45,.12-.83-.12-1.2-.25-.39-.2-.72,.04-1.11,1.16-1.85,.91-3.75,.18-5.66-.19-.5,.86-3.65,1.34-3.68,1.6-.1,3.12-.33,4.64-1,.8-.35,.91-.52,.83-1.28-.13-1.34,.5-1.72,1.67-1.04,.42,.24,.64,.27,.8-.15,.42-1.12,1.35-1.85,2.06-2.75,.4-.51,.7-.95,.29-1.6-.64-1.01-.1-1.35,1.11-1.25,.11,.04,.01-.05-.1-.12-.15-.09-.19-.04-.12,.11,.04,.09,.08,.2,.15,.24,.05,.03,.16-.04,.06-.24,1.67-.52,1.3-2.75,2.59-3.66,.27-.19-.33-.52-.48-.81-.35-.7-1.56-.67-1.44-1.74,.82,.05,1.51,.47,2.24,.78,5.66,2.46,11.56,4.11,17.67,4.95,8.22,1.12,16.39,.76,24.46-1.2,11.05-2.69,20.7-7.95,28.92-15.85,4.5-4.32,8.2-9.25,11.43-14.56Z"/><path class="d" d="M94.67,182.02c-.13,1.07,1.08,1.04,1.44,1.74,.14,.28,.74,.62,.48,.81-1.29,.91-.92,3.14-2.84,3.51-.97,.05-1.5,.39-.86,1.4,.41,.65,.12,1.09-.29,1.6-.71,.9-1.64,1.63-2.06,2.75-.16,.42-.38,.39-.8,.15-1.17-.69-1.8-.3-1.67,1.04,.07,.76-.03,.93-.83,1.28-1.52,.67-3.04,.89-4.64,1-.48,.03-1.53,3.18-1.34,3.68,.73,1.91,.98,3.82-.18,5.66-.24,.39-.29,.72-.04,1.11,.24,.37,.53,.75,.12,1.2-1.8-1.54-2.5-1.07-3.09,1.15-4.78-2.72-9.56-5.43-14.33-8.18-7.55-4.34-15.09-8.7-22.63-13.05-2.6-1.5-5.26-2.92-7.78-4.53-2.43-1.55-4.32-3.69-5.82-6.16,2.36-.87,4.39-2.34,6.55-3.57,9.34-5.33,18.62-10.75,27.92-16.15,1.47-.85,2.91-1.75,4.36-2.63,.16,.18,.35,.35,.47,.56,4.22,7.22,9.71,13.31,16.33,18.41,2.61,2.01,5.46,3.63,8.2,5.44,.61,1.54,1.99,1.64,3.34,1.81h0Z"/><path class="i" d="M91.34,180.22c-2.74-1.81-5.59-3.43-8.2-5.44-6.62-5.1-12.11-11.19-16.33-18.41-.12-.21-.31-.37-.47-.56-1.17-2.52-2.46-5-3.49-7.58-1.93-4.85-3.29-9.84-4.13-15.02-1.01-6.26-1.15-12.52-.49-18.78,.63-6,2.26-11.78,4.61-17.36,2.35-5.59,5.59-10.65,9.39-15.34,4.57-5.63,10.09-10.2,16.27-13.97,5.89-3.6,12.2-6.29,18.89-7.92,7.03-1.71,14.17-2.36,21.44-1.73,5.33,.46,10.53,1.45,15.55,3.17,5.8,2,11.23,4.83,16.22,8.45,3.36,2.44,6.49,5.14,9.36,8.15,3.38,3.54,6.27,7.46,9.01,11.5,.2,.29,.32,.62,.69,.74-2.03,1.7-4.45,2.78-6.71,4.1-7.17,4.2-14.41,8.3-21.62,12.44-.59-.86-1.18-1.72-1.78-2.57-3.22-4.6-7.32-8.28-12.41-10.59-10.38-4.71-20.65-4.25-30.6,1.39-5.53,3.14-9.72,7.66-12.47,13.34-3.61,7.47-4.86,15.31-2.44,23.45,.78,2.65,1.45,5.37,3.3,7.56,.11,.27,.19,.56,.34,.81,3.37,5.5,7.94,9.74,13.78,12.42,11.78,5.4,23.06,4.51,33.54-3.31,3.46-2.58,6.38-5.73,8.43-9.59,1.19-.2,1.93,.72,2.8,1.22,8,4.58,15.97,9.21,23.92,13.87,.61,.36,1.59,.44,1.64,1.47-3.23,5.31-6.93,10.24-11.43,14.56-8.22,7.9-17.87,13.16-28.92,15.85-8.07,1.96-16.25,2.32-24.46,1.2-6.1-.83-12-2.49-17.67-4.95-.72-.31-1.42-.73-2.24-.78h0c-1.11-.6-2.22-1.2-3.34-1.8Z"/><path class="e" d="M94.94,139.26c-1.85-2.19-2.52-4.91-3.3-7.56-2.41-8.14-1.16-15.97,2.44-23.45,2.74-5.69,6.93-10.21,12.47-13.34,9.95-5.64,20.22-6.1,30.6-1.39,5.09,2.31,9.19,5.99,12.41,10.59,.6,.85,1.18,1.72,1.78,2.57-8.97,5.2-17.95,10.39-26.92,15.59-.51,.3-.99,.65-1.49,.97-5.17,2.95-10.34,5.9-15.5,8.86-4.16,2.38-8.32,4.77-12.49,7.15Z"/><path class="d" d="M94.94,139.26c4.16-2.38,8.32-4.77,12.49-7.15,5.17-2.96,10.34-5.91,15.5-8.86,3.88,1.93,7.6,4.17,11.35,6.35,4.92,2.85,9.89,5.64,14.81,8.48,.7,.41,1.55,.68,1.94,1.51-2.05,3.86-4.97,7.02-8.43,9.59-10.48,7.82-21.77,8.7-33.54,3.31-5.84-2.68-10.41-6.92-13.78-12.42-.15-.25-.23-.54-.34-.81Z"/><path class="i" d="M173.09,112.99q2.94,0,3.26-2.88c.18-1.59,.43-3.17,.56-4.76,.05-.67,.27-.85,.9-.83,1.25,.04,2.5,.02,3.75,0,.67-.01,.81,.19,.71,.89-.29,2.13-.43,4.28-.7,6.41-.12,.91,.05,1.24,1.05,1.21,1.18-.04,2.76-.55,3.47,.21,.76,.81,.11,2.39,.25,3.63,.12,1.04-.21,1.43-1.3,1.33-1.1-.1-2.21-.02-3.31-.02-.39,0-.81-.08-.87,.53-.18,2.04-.37,4.08-.59,6.12-.07,.67,.15,.93,.8,.85,.05,0,.1-.01,.15,0,1.18,.08,3-.51,3.38,.26,.58,1.17,.18,2.83,.21,4.28,.02,.59-.33,.62-.77,.62-.85-.01-1.73,.12-2.56-.03-1.63-.29-2.01,.56-2.11,1.93-.15,2.04-.42,4.07-.57,6.11-.06,.88-.2,1.4-1.3,1.22-.9-.15-1.87-.18-2.75,0-1.55,.34-1.58-.47-1.45-1.57,.27-2.23,.48-4.47,.8-6.7,.11-.74,0-1-.78-.98-1.35,.04-2.72,.08-4.07-.01-.92-.06-1.26,.3-1.33,1.15-.2,2.29-.47,4.58-.62,6.87-.06,.86-.08,1.43-1.22,1.23-.75-.13-1.54,.07-2.32,.08-2.17,.01-2.16,0-1.89-2.25,.25-2.08,.43-4.17,.69-6.25,.07-.6-.09-.85-.69-.81-.15,.01-.3,.01-.45,0-1.13-.09-2.96,.48-3.26-.23-.55-1.28-.2-2.93-.23-4.43-.01-.68,.5-.48,.85-.49,1.2-.02,2.41-.02,3.61,0,.61,.01,.89-.16,.94-.83,.15-1.89,.35-3.79,.59-5.67,.1-.79-.11-1.04-.93-1.03-1.14,.03-2.66,.51-3.32-.2-.73-.77-.08-2.3-.25-3.48-.19-1.35,.4-1.59,1.59-1.5,1.14,.08,2.63,.37,3.35-.21,.74-.59,.44-2.14,.53-3.29,.11-1.34,.35-2.67,.46-4.02,.06-.79,.44-1.01,1.16-.94,.45,.04,.9,0,1.35,0,3.11,0,3.1,0,2.66,3.16-.18,1.34-.28,2.69-.48,4.02-.16,1.05,.16,1.46,1.24,1.3,.59-.08,1.2-.01,1.81-.01Zm-1.51,12.67c.8,0,1.6,0,2.4,0,.43,0,.79-.04,.84-.6,.2-2.08,.42-4.16,.61-6.24,.02-.24,.23-.65-.28-.65-1.84,0-3.8-.33-5.49,.2-.82,.26-.44,2.25-.58,3.46-.03,.25-.1,.49-.13,.73q-.44,3.07,2.64,3.08Z"/><path class="d" d="M94.23,188.38c-.15,.04-.25,.11-.3,.08-.07-.04-.11-.15-.15-.24-.08-.15-.03-.2,.12-.11,.11,.07,.21,.16,.34,.27Z"/><path class="g" d="M91.34,180.22c1.11,.6,2.22,1.21,3.34,1.81-1.35-.17-2.73-.28-3.34-1.81Z"/><path class="h" d="M171.58,125.66q-3.08-.02-2.64-3.08c.04-.25,.11-.49,.13-.73,.14-1.21-.24-3.2,.58-3.46,1.68-.53,3.64-.2,5.49-.2,.52,0,.31,.41,.28,.65-.19,2.08-.41,4.16-.61,6.24-.05,.56-.41,.6-.84,.6-.8,0-1.6,0-2.4,0Z"/></g><circle class="f" cx="123" cy="123" r="123"/></g></g></g></svg>