<?xml version="1.0" encoding="UTF-8"?><svg xmlns="http://www.w3.org/2000/svg" viewBox="0 0 178.62 178.62"><defs><style>.d{fill:#6b0022;}.e{fill:#111;}.f{fill:none;}</style></defs><g id="a"/><g id="b"><g id="c"><g><g><path class="e" d="M88.73,139.85c-19.93,0-39.86,0-59.79,0-8.57,0-16.03-6.3-17.45-14.76-.18-1.06-.27-2.13-.27-3.21,0-21.05,0-42.11,0-63.16,0-9.55,7.03-17.19,16.54-17.98,.36-.03,.72-.03,1.08-.03,8.78,0,17.55,0,26.33,.01,.6,0,.78-.15,.8-.77,.27-6.67,6.02-12.17,12.7-12.18,13.44,0,26.89,0,40.33,0,6.64,0,12.39,5.51,12.65,12.14,.03,.66,.21,.8,.85,.8,8.73-.02,17.46-.02,26.19-.01,9.69,0,17.7,7.95,17.7,17.64,.02,21.28,.01,42.55,0,63.83,0,8.87-6.72,16.42-15.53,17.53-.76,.1-1.52,.14-2.28,.14-19.95,0-39.91,0-59.86,0Zm.04-16.72c17.97,.05,32.81-14.71,32.9-32.71,.08-18.06-14.73-32.97-32.82-33.01-17.98-.04-32.87,14.8-32.9,32.79-.03,18.05,14.75,32.88,32.82,32.93Zm52.16-69.47c-2.54,0-5.07,.01-7.61,0-.45,0-.62,.09-.62,.59,.03,2.33,.02,4.67,0,7,0,.44,.08,.62,.58,.62,5.1-.02,10.19-.02,15.29,0,.42,0,.58-.09,.58-.55-.02-2.36-.03-4.71,0-7.07,0-.49-.16-.59-.61-.59-2.54,.02-5.07,0-7.61,.01Z"/><path class="d" d="M89.29,67.66c12.55,.28,22.42,10.6,22.13,23.14-.29,12.56-10.59,22.38-23.16,22.09-12.5-.29-22.38-10.64-22.07-23.13,.32-12.54,10.6-22.38,23.1-22.1Z"/></g><circle class="f" cx="89.31" cy="89.31" r="89.31"/></g></g></g></svg>