<?xml version="1.0" encoding="UTF-8"?><svg xmlns="http://www.w3.org/2000/svg" viewBox="0 0 240.59 240.59"><defs><style>.d{fill:#fdfdfd;}.e{fill:#1c87c6;}.f{fill:none;}.g{fill:#1b73b9;}</style></defs><g id="a"/><g id="b"><g id="c"><g><g><path class="g" d="M119.21,207.51c-.47-.99-1.49-.86-2.3-1.09-19.46-5.48-38.92-10.96-58.41-16.35-1.55-.43-2.09-1.13-2.21-2.63-1.32-16.77-2.66-33.53-4.03-50.3-1.37-16.76-2.79-33.52-4.16-50.29-1.23-14.98-2.43-29.97-3.65-44.95-.2-2.51-.34-5.03-.67-7.52-.14-1.02,.11-1.34,1.06-1.3,.49,.02,.98,0,1.46,0,49.29,0,98.58,0,147.87,0,.89,0,1.78,.11,2.67,.16v3.9c-.74,.27-.51,.94-.55,1.46-1.1,12.05-2.19,24.11-3.25,36.17-1.39,15.95-2.73,31.9-4.12,47.85-1.89,21.61-3.83,43.22-5.67,64.84-.13,1.56-.62,2.17-2.13,2.6-17.5,4.96-34.98,9.98-52.45,15.08-2.36,.69-4.9,.93-7.02,2.36h-2.44Zm23.92-80.06c-.45-.33-.55-.83-.47-1.31,.38-2.29-.75-2.68-2.77-2.63-5.61,.12-11.22,.1-16.83,0-1.73-.03-2.45,.36-2.42,2.27,.1,7.8,.09,15.61,0,23.42-.02,1.34,.46,2.09,1.51,2.68-1.71,.57-3.39,.92-5.22,.43-5.57-1.48-11.16-2.91-16.77-4.25-1.31-.31-1.86-.83-1.99-2.23-.33-3.72-.94-7.42-1.27-11.14-.13-1.41-.67-1.71-1.96-1.69-5.12,.06-10.24,.07-15.36,0-1.44-.02-1.74,.4-1.6,1.83,.82,8.74,1.56,17.48,2.22,26.23,.11,1.47,.63,2.1,2.02,2.48,6.59,1.76,13.15,3.65,19.74,5.41,6.42,1.72,12.75,3.8,19.28,5.13-.38,.82-.56,1.67-.56,2.59,.03,4.56,.08,9.11-.02,13.67-.04,1.86,.58,1.93,2.13,1.47,8-2.36,16.03-4.61,24.04-6.93,7.78-2.25,15.56-4.5,23.33-6.8,.93-.28,2.17-.32,2.29-1.79,.3-3.87,.66-7.73,.98-11.59,.36-4.43,.68-8.87,1.07-13.29,.6-6.76,1.26-13.5,1.86-20.26,.39-4.43,.67-8.87,1.05-13.29,.6-7,1.26-13.99,1.88-20.99,.36-4.1,.69-8.21,1.06-12.32,.61-6.75,1.26-13.5,1.86-20.26,.41-4.59,.6-9.2,1.24-13.76,.29-2.07-.19-2.65-2.14-2.65-19.53,.02-39.06,.03-58.58-.01-1.64,0-2.09,.58-2.06,2.13,.08,4.23,.16,8.47-.03,12.69-.1,2.3,.67,2.84,2.87,2.83,13.83-.1,27.66-.06,41.5-.02,.86,0,2.02-.59,2.53,.76-1.06,.02-2.11,.07-3.17,.07-30.35,.01-60.7,.03-91.05,0-1.7,0-2.44,.13-2.07,2.2,.84,4.8,1.46,9.65,1.99,14.49,.18,1.64,.69,2.16,2.37,2.15,13.91-.07,27.83-.06,41.74-.05,.47,0,1.11-.42,1.49,.42-.3,.16-.57,.32-.86,.44-13.87,6.01-27.73,12.04-41.63,18-1.42,.61-1.96,1.22-1.67,2.86,.77,4.48,1.46,8.99,1.92,13.52,.2,2.02,.93,2.47,2.85,2.46,20.02-.06,40.03-.03,60.05-.03q4.54,0,3.65,4.67Z"/><path class="d" d="M121.22,174.09c-6.53-1.34-12.86-3.41-19.28-5.13-6.59-1.76-13.15-3.66-19.74-5.41-1.39-.37-1.91-1.01-2.02-2.48-.66-8.75-1.4-17.49-2.22-26.23-.13-1.43,.16-1.85,1.6-1.83,5.12,.07,10.24,.07,15.36,0,1.29-.02,1.84,.28,1.96,1.69,.33,3.72,.94,7.42,1.27,11.14,.13,1.4,.68,1.91,1.99,2.23,5.61,1.35,11.2,2.77,16.77,4.25,1.84,.49,3.52,.14,5.22-.43,5.92-1.07,11.83-2.15,17.75-3.18,.97-.17,1.32-.61,1.4-1.59,.57-6.56,1.22-13.11,1.84-19.66q.89-4.67-3.65-4.67c-20.02,0-40.03-.04-60.05,.03-1.92,0-2.65-.44-2.85-2.46-.45-4.53-1.14-9.04-1.92-13.52-.28-1.63,.25-2.25,1.67-2.86,13.9-5.95,27.76-11.98,41.63-18,.29-.12,.56-.29,.86-.44-.37-.84-1.01-.41-1.49-.42-13.91,0-27.83-.02-41.74,.05-1.67,0-2.19-.51-2.37-2.15-.53-4.85-1.15-9.69-1.99-14.49-.36-2.07,.37-2.2,2.07-2.2,30.35,.04,60.7,.02,91.05,0,1.06,0,2.11-.04,3.17-.07,.08,.15,.2,.23,.37,.23l.06,18.04c-.66,.81-1.65,1.01-2.54,1.37-8.04,3.31-16.09,6.59-24.14,9.88-3.84,1.57-7.68,3.11-11.49,4.74-.9,.38-2.18,.94-1.93,2.05,.23,1,1.54,.55,2.37,.55,10.57,.05,21.15,.1,31.72,.03,1.82-.01,2.37,.38,2.19,2.3-1.63,17.81-3.24,35.62-4.65,53.45-.21,2.68-1.19,3.62-3.63,4.35-11.59,3.49-23.11,7.21-34.65,10.85Zm5.16-72.07l-2.05,.73c1.17-.09,2.89,1.53,3.26-.81-.45-.7-.83-.25-1.21,.08Z"/><path class="e" d="M121.22,174.09c11.54-3.64,23.06-7.36,34.65-10.85,2.44-.73,3.42-1.67,3.63-4.35,1.41-17.83,3.01-35.64,4.65-53.45,.18-1.92-.38-2.31-2.19-2.3-10.57,.06-21.15,.01-31.72-.03-.83,0-2.14,.45-2.37-.55-.26-1.11,1.03-1.67,1.93-2.05,3.81-1.63,7.66-3.17,11.49-4.74,8.05-3.29,16.1-6.57,24.14-9.88,.89-.37,1.89-.56,2.54-1.37,.47-.3,.55-.76,.55-1.27,0-5.19,0-10.38,0-15.56,0-.51-.09-.97-.61-1.21-.17,0-.29-.08-.37-.23-.51-1.34-1.67-.75-2.53-.76-13.83-.04-27.66-.07-41.5,.02-2.21,.02-2.98-.53-2.87-2.83,.19-4.22,.11-8.46,.03-12.69-.03-1.55,.42-2.14,2.06-2.13,19.53,.05,39.06,.04,58.58,.01,1.94,0,2.43,.58,2.14,2.65-.64,4.55-.83,9.17-1.24,13.76-.61,6.75-1.25,13.51-1.86,20.26-.37,4.1-.7,8.21-1.06,12.32-.62,7-1.28,13.99-1.88,20.99-.38,4.43-.66,8.87-1.05,13.29-.59,6.76-1.26,13.5-1.86,20.26-.39,4.43-.7,8.86-1.07,13.29-.32,3.86-.68,7.73-.98,11.59-.12,1.47-1.36,1.52-2.29,1.79-7.76,2.31-15.54,4.56-23.33,6.8-8.01,2.31-16.04,4.57-24.04,6.93-1.54,.45-2.17,.38-2.13-1.47,.11-4.55,.05-9.11,.02-13.67,0-.92,.18-1.77,.56-2.59Z"/><path class="e" d="M143.13,127.45c-.62,6.55-1.26,13.1-1.84,19.66-.09,.98-.44,1.43-1.4,1.59-5.92,1.04-11.84,2.12-17.75,3.18-1.05-.59-1.52-1.34-1.51-2.68,.09-7.8,.1-15.61,0-23.42-.02-1.92,.69-2.3,2.42-2.27,5.61,.09,11.22,.12,16.83,0,2.03-.04,3.16,.35,2.77,2.63-.08,.48,.02,.98,.47,1.31Z"/><path class="g" d="M167.9,66.48c.52,.24,.61,.7,.61,1.21,0,5.19,0,10.38,0,15.56,0,.5-.09,.97-.55,1.27-.02-6.01-.04-12.03-.06-18.04Z"/><path class="g" d="M127.59,101.94c-.37,2.35-2.09,.73-3.26,.81,.68-.24,1.37-.49,2.05-.73l1.21-.08Z"/><path class="e" d="M127.59,101.94l-1.21,.08c.38-.33,.76-.78,1.21-.08Z"/></g><circle class="f" cx="120.29" cy="120.29" r="120.29"/></g></g></g></svg>