<?xml version="1.0" encoding="UTF-8"?><svg xmlns="http://www.w3.org/2000/svg" xmlns:xlink="http://www.w3.org/1999/xlink" viewBox="0 0 185.95 185.95"><defs><style>.abi{fill:#4d00ff;}.abj{fill:#80f;}.abk{fill:#ff00a6;}.abl{fill:#90f;}.abm{fill:#f0e;}.abn{fill:#8400ff;}.abo{fill:#00ff17;}.abp{fill:#ffb100;}.abq{fill:#00d4ff;}.abr{fill:#00ff81;}.abs{fill:#00ffef;}.abt{fill:#ff001a;}.abu{fill:#00ff8e;}.abv{fill:#00ffd6;}.abw{fill:#006aff;}.abx{fill:#ff0001;}.aby{fill:url(#abe);}.ac`{fill:#ff00f3;}.aca{fill:#00ff13;}.acb{fill:#00fff8;}.acc{fill:#ff00af;}.acd{fill:#0050ff;}.ace{fill:#ffca00;}.acf{fill:#00b6ff;}.acg{fill:#00d8ff;}.ach{fill:#0083ff;}.aci{fill:#d6ff00;}.acj{fill:#00ff85;}.ack{fill:#ff4b00;}.acl{fill:#003bff;}.acm{fill:#2700ff;}.acn{fill:#ff0091;}.aco{fill:#ff00c0;}.acp{fill:#00ff46;}.acq{fill:#007fff;}.acr{fill:#000cff;}.acs{fill:#a3ff00;}.act{fill:#fcff00;}.acu{fill:#d400ff;}.acv{fill:#00dcff;}.acw{fill:#00ff39;}.acx{fill:#ffe400;}.acy{fill:#ff008d;}.ad`{fill:#ff00ab;}.ada{fill:#0059ff;}.adb{fill:#7300ff;}.adc{fill:#00ffe7;}.add{fill:#0065ff;}.ade{fill:#0004ff;}.adf{fill:#75ff00;}.adg{fill:#ff006b;}.adh{fill:#ff7a00;}.adi{fill:#70f;}.adj{fill:#ff2100;}.adk{fill:#18ff00;}.adl{fill:#64ff00;}.adm{fill:#00ffde;}.adn{fill:#ff3f00;}.ado{fill:#00ffb4;}.adp{fill:#00ffe2;}.adq{fill:#00ff4e;}.adr{fill:#e100ff;}.ads{fill:#ffd300;}.adt{fill:#07ff00;}.adu{fill:#0048ff;}.adv{fill:#00ffcd;}.adw{fill:#b0f;}.adx{fill:#0054ff;}.ady{fill:#8eff00;}.ae`{fill:#35ff00;}.aea{fill:#8aff00;}.aeb{fill:#ff3200;}.aec{fill:#5900ff;}.aed{fill:#0500ff;}.aee{fill:#4000ff;}.aef{fill:#caff00;}.aeg{fill:#fa00ff;}.aeh{fill:#b200ff;}.aei{fill:url(#abc);}.aej{fill:#00ffa3;}.aek{fill:#ff009e;}.ael{fill:#ff4700;}.aem{fill:#00ff06;}.aen{fill:#ff00c4;}.aeo{fill:#00ff30;}.aep{fill:#f0ff00;}.aeq{fill:#ff003c;}.aer{fill:#93ff00;}.aes{fill:#00ffc5;}.aet{fill:#00ff24;}.aeu{fill:#0087ff;}.aev{fill:#01f;}.aew{fill:#00ffc9;}.aex{fill:#ff6000;}.aey{fill:#ff006f;}.af`{fill:#ff00d5;}.afa{fill:#0061ff;}.afb{fill:#00ff57;}.afc{fill:#ff00ea;}.afd{fill:#ae00ff;}.afe{fill:#00ff70;}.aff{fill:#00ff78;}.afg{fill:#00ffd1;}.afh{fill:#00ff6c;}.afi{fill:#e0f;}.afj{fill:#9bff00;}.afk{fill:#e500ff;}.afl{fill:#00beff;}.afm{fill:#0076ff;}.afn{fill:#0098ff;}.afo{fill:#ff6500;}.afp{fill:#ffe000;}.afq{fill:#ea00ff;}.afr{fill:#00e0ff;}.afs{fill:#00ff2c;}.aft{fill:#a8ff00;}.afu{fill:#00ff41;}.afv{fill:#b700ff;}.afw{fill:#00a9ff;}.afx{fill:#00adff;}.afy{fill:#ff3600;}.ag`{fill:#0072ff;}.aga{fill:#00ff5b;}.agb{fill:#00ff9f;}.agc{fill:#007bff;}.agd{fill:#3800ff;}.age{fill:#009cff;}.agf{fill:#1cff00;}.agg{fill:blue;}.agh{fill:#ff0067;}.agi{fill:#fff900;}.agj{fill:#ff0084;}.agk{fill:#4aff00;}.agl{fill:#ff005e;}.agm{fill:#2dff00;}.agn{fill:#ffe800;}.ago{fill:#4800ff;}.agp{fill:#ff7e00;}.agq{fill:#f0b;}.agr{fill:#6200ff;}.ags{fill:#02ff00;}.agt{fill:#ff00d9;}.agu{fill:#ff0041;}.agv{fill:#ff1000;}.agw{fill:#acff00;}.agx{fill:#f0d;}.agy{fill:#ff0700;}.ah`{fill:#d000ff;}.aha{fill:#00ff63;}.ahb{fill:#6f00ff;}.ahc{fill:gold;}.ahd{fill:#00ff74;}.ahe{fill:#c5ff00;}.ahf{fill:#0026ff;}.ahg{fill:#40f;}.ahh{fill:#00fffc;}.ahi{fill:#00e9ff;}.ahj{fill:#d2ff00;}.ahk{fill:#00ff02;}.ahl{fill:#0fff00;}.ahm{fill:#00faff;}.ahn{fill:#ff6900;}.aho{fill:#fffd00;}.ahp{fill:#46ff00;}.ahq{fill:#00ff28;}.ahr{fill:#5e00ff;}.ahs{fill:#ff8f00;}.aht{fill:#ffc600;}.ahu{fill:#ff0027;}.ahv{fill:#ff0052;}.ahw{fill:#ff005a;}.ahx{fill:#7dff00;}.ahy{fill:#ff0034;}.ai`{fill:#ff001f;}.aia{fill:#00a5ff;}.aib{fill:#20ff00;}.aic{fill:#0900ff;}.aid{fill:#dbff00;}.aie{fill:#00ff92;}.aif{fill:#b4ff00;}.aig{fill:#ceff00;}.aih{fill:#0037ff;}.aii{fill:#003fff;}.aij{fill:#ffec00;}.aik{fill:#3aff00;}.ail{fill:#7b00ff;}.aim{fill:#f600ff;}.ain{fill:#bdff00;}.aio{fill:#005dff;}.aip{fill:#ffbe00;}.aiq{fill:#ff9300;}.air{fill:#b9ff00;}.ais{fill:#0015ff;}.ait{fill:#f8ff00;}.aiu{fill:#79ff00;}.aiv{fill:#ff1d00;}.aiw{fill:#0008ff;}.aix{fill:#2b00ff;}.aiy{fill:#ffad00;}.aj`{fill:#00baff;}.aja{fill:#00c3ff;}.ajb{fill:#0bff00;}.ajc{fill:#8c00ff;}.ajd{fill:#ff0005;}.aje{fill:#c0f;}.ajf{fill:#8000ff;}.ajg{fill:#0090ff;}.ajh{fill:#00ff89;}.aji{fill:#c800ff;}.ajj{fill:#00f1ff;}.ajk{fill:#00a1ff;}.ajl{fill:#00ffb8;}.ajm{fill:#f200ff;}.ajn{fill:#ff0030;}.ajo{fill:#9500ff;}.ajp{fill:#ff2900;}.ajq{fill:#ffb900;}.ajr{fill:#ff6d00;}.ajs{fill:#ff0049;}.ajt{fill:#ff007c;}.aju{fill:#71ff00;}.ajv{fill:#ffcf00;}.ajw{fill:#29ff00;}.ajx{fill:#9fff00;}.ajy{fill:#00b2ff;}.ak`{fill:#ff3a00;}.aka{fill:#006eff;}.akb{fill:#00ff0f;}.akc{fill:#00ff35;}.akd{fill:#57ff00;}.ake{fill:#00cfff;}.akf{fill:#ff1400;}.akg{fill:#ff0016;}.akh{fill:#ff0056;}.aki{fill:#68ff00;}.akj{fill:#ff0038;}.akk{fill:#97ff00;}.akl{fill:url(#abg);}.akm{fill:#d0f;}.akn{fill:#10f;}.ako{fill:#ff0080;}.akp{fill:#0043ff;}.akq{fill:#00ffab;}.akr{fill:#ffdb00;}.aks{fill:#383838;}.akt{fill:#00ff1f;}.aku{fill:#f0f;}.akv{fill:#ff4300;}.akw{fill:#ffc200;}.akx{fill:#ff0045;}.aky{fill:#31ff00;}.al`{fill:#60f;}.ala{fill:#6a00ff;}.alb{fill:#c300ff;}.alc{fill:#ff002b;}.ald{fill:#24ff00;}.ale{fill:#ff5400;}.alf{fill:#002aff;}.alg{fill:#00ffc1;}.alh{fill:#ff0023;}.ali{fill:#ff8b00;}.alj{fill:#30f;}.alk{fill:#00f5ff;}.all{fill:#002eff;}.alm{fill:#00cbff;}.aln{fill:#f4ff00;}.alo{fill:#a600ff;}.alp{fill:#ff0095;}.alq{fill:#fff100;}.alr{fill:#00ff7d;}.als{fill:#ff0073;}.alt{fill:#00ff5f;}.alu{fill:#ff0078;}.alv{fill:#ff1800;}.alw{fill:#fff500;}.alx{fill:#00ff52;}.aly{fill:#a0f;}.am`{fill:#ff00a2;}.ama{fill:#ff0089;}.amb{fill:#00feff;}.amc{fill:#ff0062;}.amd{fill:#ff2e00;}.ame{fill:#c1ff00;}.amf{fill:#9100ff;}.amg{fill:#a100ff;}.amh{fill:#5100ff;}.ami{fill:#00ff9a;}.amj{fill:#00ffbc;}.amk{fill:#1e00ff;}.aml{fill:#ff5c00;}.amm{fill:#f0c;}.amn{fill:#82ff00;}.amo{fill:#50f;}.amp{fill:#6cff00;}.amq{fill:#ffb500;}.amr{fill:#1600ff;}.ams{fill:#ff7100;}.amt{fill:#00ff3d;}.amu{fill:#008bff;}.amv{fill:#ff00d1;}.amw{fill:#00ffa7;}.amx{fill:#00ff68;}.amy{fill:#ff2500;}.an`{fill:#ff9c00;}.ana{fill:#ff00e2;}.anb{fill:#bf00ff;}.anc{fill:#2f00ff;}.and{fill:#86ff00;}.ane{fill:#ffa000;}.anf{fill:#00ffeb;}.ang{fill:#00ff1b;}.anh{fill:#ff0300;}.ani{fill:#d900ff;}.anj{fill:#ffa900;}.ank{fill:#3eff00;}.anl{fill:#9d00ff;}.anm{fill:#0094ff;}.ann{fill:#4fff00;}.ano{fill:#ecff00;}.anp{fill:#0032ff;}.anq{fill:#ff00e6;}.anr{fill:#00edff;}.ans{fill:#e3ff00;}.ant{fill:#53ff00;}.anu{fill:#b0ff00;}.anv{fill:#004cff;}.anw{fill:#ffa400;}.anx{fill:#02f;}.any{fill:#ff5000;}.ao`{fill:#ff0012;}.aoa{fill:#0d00ff;}.aob{fill:#00ff0a;}.aoc{fill:#ff7600;}.aod{fill:#ff00f7;}.aoe{fill:#ff00fb;}.aof{fill:#00ffb0;}.aog{fill:#ff000e;}.aoh{fill:#00ffda;}.aoi{fill:#ff00b7;}.aoj{fill:#1a00ff;}.aok{fill:#ff8200;}.aol{fill:#00e4ff;}.aom{fill:#00ff96;}.aon{fill:#ff8700;}.aoo{fill:#00ff4a;}.aop{fill:#3c00ff;}.aoq{fill:#0019ff;}.aor{fill:#00c7ff;}.aos{fill:#5bff00;}.aot{fill:#42ff00;}.aou{fill:#ff00c8;}.aov{fill:#ff0c00;}.aow{fill:#13ff00;}.aox{fill:#e7ff00;}.aoy{fill:#ff0009;}.ap`{fill:#60ff00;}.apa{fill:#ff9800;}.apb{fill:#20f;}.apc{fill:#ff00b3;}.apd{fill:#ff004d;}.ape{fill:#ff5800;}.apf{fill:#dfff00;}.apg{fill:#ff009a;}.aph{fill:#00fff3;}</style><radialGradient id="abc" cx="178.42" cy="573.55" fx="178.42" fy="573.55" r="21.73" gradientTransform="translate(-200.24 1228.99) rotate(4.82) scale(1.1 -2.03)" gradientUnits="userSpaceOnUse"><stop offset="0" stop-color="#fff"/><stop offset="1" stop-color="#009bd8"/></radialGradient><radialGradient id="abe" cx="524.82" cy="262.37" fx="524.82" fy="262.37" r="24.83" gradientTransform="translate(-1042.75 -36.07) rotate(21.78) scale(2.12 -1.13)" gradientUnits="userSpaceOnUse"><stop offset="0" stop-color="#fff"/><stop offset="1" stop-color="#ff3044"/></radialGradient><radialGradient id="abg" cx="1091.42" cy="681.68" fx="1091.42" fy="681.68" r="24.83" gradientTransform="translate(1659.99 -1747.28) rotate(146.32) scale(2.14 -.97)" gradientUnits="userSpaceOnUse"><stop offset="0" stop-color="#fff"/><stop offset="1" stop-color="#fcff7c"/></radialGradient></defs><g id="a"/><g id="b"><g id="c"><g><g id="d" transform="translate(-3.3808972,-48.469422)"><g id="e" transform="rotate(130,35.024663,79.565145)"><rect id="f" x="73.19" y="79.36" width="54.2" height="9.37" transform="translate(-28.55 106.85) rotate(-50)"/><g id="g" transform="translate(-17.461231)"><rect id="h" class="aoq" x="108.03" y="37.84" width="54.2" height="9.37" transform="translate(15.7 118.71) rotate(-50)"/></g><g id="i" transform="rotate(1,44.875958,-922.61901)"><rect id="j" class="ais" x="108.91" y="38.58" width="54.2" height="9.37" transform="translate(14.13 117.53) rotate(-49)"/></g><g id="k" transform="rotate(2,44.875958,-422.36618)"><rect id="l" class="aev" x="109.77" y="39.34" width="54.2" height="9.37" transform="translate(12.57 116.28) rotate(-48)"/></g><g id="m" transform="rotate(3,44.875958,-255.59831)"><rect id="n" class="acr" x="110.62" y="40.11" width="54.2" height="9.37" transform="translate(11.03 114.97) rotate(-47)"/></g><g id="o" transform="rotate(4,44.875958,-172.20167)"><rect id="p" class="aiw" x="111.45" y="40.9" width="54.2" height="9.37" transform="translate(9.51 113.58) rotate(-46)"/></g><g id="q" transform="rotate(5,44.875958,-122.15352)"><rect id="r" class="ade" x="112.27" y="41.7" width="54.2" height="9.37" transform="translate(8.02 112.14) rotate(-45)"/></g><g id="s" transform="rotate(6,44.875958,-88.77962)"><rect id="t" class="agg" x="113.08" y="42.52" width="54.2" height="9.37" transform="translate(6.55 110.62) rotate(-44)"/></g><g id="u" transform="rotate(7,44.875958,-64.933854)"><rect id="v" class="aed" x="113.87" y="43.35" width="54.2" height="9.37" transform="translate(5.11 109.05) rotate(-43)"/></g><g id="w" transform="rotate(8,44.875958,-47.04317)"><rect id="x" class="aic" x="114.64" y="44.2" width="54.2" height="9.37" transform="translate(3.7 107.4) rotate(-42)"/></g><g id="y" transform="rotate(9,44.875958,-33.12254)"><rect id="a`" class="aoa" x="115.41" y="45.05" width="54.2" height="9.37" transform="translate(2.33 105.69) rotate(-41)"/></g><g id="aa" transform="rotate(10,44.875958,-21.980943)"><rect id="ab" class="akn" x="116.15" y="45.93" width="54.2" height="9.37" transform="translate(.98 103.92) rotate(-40)"/></g><g id="ac" transform="rotate(11,44.875958,-12.86046)"><rect id="ad" class="amr" x="116.89" y="46.81" width="54.2" height="9.37" transform="translate(-.32 102.09) rotate(-39)"/></g><g id="ae" transform="rotate(12,44.875958,-5.2558092)"><rect id="af" class="aoj" x="117.6" y="47.71" width="54.2" height="9.37" transform="translate(-1.58 100.19) rotate(-38)"/></g><g id="ag" transform="rotate(13,44.875958,1.1828199)"><rect id="ah" class="amk" x="118.3" y="48.61" width="54.2" height="9.37" transform="translate(-2.8 98.24) rotate(-37)"/></g><g id="ai" transform="rotate(14,44.875958,6.7052916)"><rect id="aj" class="apb" x="118.99" y="49.54" width="54.2" height="9.37" transform="translate(-3.97 96.22) rotate(-36)"/></g><g id="ak" transform="rotate(15,44.875958,11.49484)"><rect id="al" class="acm" x="119.66" y="50.47" width="54.2" height="9.37" transform="translate(-5.09 94.15) rotate(-35)"/></g><g id="am" transform="rotate(16,44.875958,15.688892)"><rect id="an" class="aix" x="120.31" y="51.41" width="54.2" height="9.37" transform="translate(-6.17 92.02) rotate(-34)"/></g><g id="ao" transform="rotate(17,44.875958,19.392537)"><rect id="ap" class="anc" x="120.94" y="52.37" width="54.2" height="9.37" transform="translate(-7.19 89.83) rotate(-33)"/></g><g id="aq" transform="rotate(18,44.875958,22.687512)"><rect id="ar" class="alj" x="121.56" y="53.34" width="54.2" height="9.37" transform="translate(-8.16 87.6) rotate(-32)"/></g><g id="as" transform="rotate(19,44.875958,25.638348)"><rect id="at" class="agd" x="122.16" y="54.31" width="54.2" height="9.37" transform="translate(-9.07 85.3) rotate(-31)"/></g><g id="au" transform="rotate(20,44.875958,28.296668)"><rect id="av" class="aop" x="122.75" y="55.3" width="54.2" height="9.37" transform="translate(-9.92 82.96) rotate(-30)"/></g><g id="aw" transform="rotate(21,44.875958,30.704263)"><rect id="ax" class="aee" x="123.31" y="56.3" width="54.2" height="9.37" transform="translate(-10.7 80.57) rotate(-29)"/></g><g id="ay" transform="rotate(22,44.875958,32.895326)"><rect id="b`" class="ahg" x="123.86" y="57.3" width="54.2" height="9.37" transform="translate(-11.43 78.13) rotate(-28)"/></g><g id="ba" transform="rotate(23,44.875958,34.898103)"><rect id="bb" class="ago" x="124.4" y="58.32" width="54.2" height="9.37" transform="translate(-12.09 75.65) rotate(-27)"/></g><g id="bc" transform="rotate(24,44.875958,36.736133)"><rect id="bd" class="abi" x="124.91" y="59.35" width="54.2" height="9.37" transform="translate(-12.68 73.12) rotate(-26)"/></g><g id="be" transform="rotate(25,44.875958,38.429188)"><rect id="bf" class="amh" x="125.41" y="60.38" width="54.2" height="9.37" transform="translate(-13.21 70.55) rotate(-25)"/></g><g id="bg" transform="rotate(26,44.875958,39.993999)"><rect id="bh" class="amo" x="125.88" y="61.43" width="54.2" height="9.37" transform="translate(-13.66 67.94) rotate(-24)"/></g><g id="bi" transform="rotate(27,44.875958,41.444819)"><rect id="bj" class="aec" x="126.34" y="62.48" width="54.2" height="9.37" transform="translate(-14.04 65.29) rotate(-23)"/></g><g id="bk" transform="rotate(28,44.875958,42.793863)"><rect id="bl" class="ahr" x="126.79" y="63.54" width="54.2" height="9.37" transform="translate(-14.35 62.61) rotate(-22)"/></g><g id="bm" transform="rotate(29,44.875958,44.051664)"><rect id="bn" class="agr" x="127.21" y="64.6" width="54.2" height="9.37" transform="translate(-14.58 59.9) rotate(-21)"/></g><g id="bo" transform="rotate(30,44.875958,45.227349)"><rect id="bp" class="al`" x="127.61" y="65.68" width="54.2" height="9.37" transform="translate(-14.73 57.16) rotate(-20)"/></g><g id="bq" transform="rotate(31,44.875958,46.328867)"><rect id="br" class="ala" x="128" y="66.76" width="54.2" height="9.37" transform="translate(-14.81 54.39) rotate(-19)"/></g><g id="bs" transform="rotate(32,44.875958,47.363175)"><rect id="bt" class="ahb" x="128.36" y="67.85" width="54.2" height="9.37" transform="translate(-14.8 51.59) rotate(-18)"/></g><g id="bu" transform="rotate(33,44.875958,48.336385)"><rect id="bv" class="adb" x="128.71" y="68.94" width="54.2" height="9.37" transform="translate(-14.72 48.77) rotate(-17)"/></g><g id="bw" transform="rotate(34,44.875958,49.253893)"><rect id="bx" class="adi" x="129.04" y="70.04" width="54.2" height="9.37" transform="translate(-14.55 45.93) rotate(-16)"/></g><g id="by" transform="rotate(35,44.875958,50.120475)"><rect id="c`" class="ail" x="129.35" y="71.14" width="54.2" height="9.37" transform="translate(-14.29 43.08) rotate(-15)"/></g><g id="ca" transform="rotate(36,44.875958,50.940378)"><rect id="cb" class="ajf" x="129.64" y="72.25" width="54.2" height="9.37" transform="translate(-13.96 40.2) rotate(-14)"/></g><g id="cc" transform="rotate(37,44.875958,51.71739)"><rect id="cd" class="abn" x="129.91" y="73.37" width="54.2" height="9.37" transform="translate(-13.53 37.32) rotate(-13)"/></g><g id="ce" transform="rotate(38,44.875958,52.454901)"><rect id="cf" class="abj" x="130.16" y="74.49" width="54.2" height="9.37" transform="translate(-13.02 34.43) rotate(-12)"/></g><g id="cg" transform="rotate(39,44.875958,53.155952)"><rect id="ch" class="ajc" x="130.39" y="75.61" width="54.2" height="9.37" transform="translate(-12.43 31.53) rotate(-11)"/></g><g id="ci" transform="rotate(40,44.875958,53.82328)"><rect id="cj" class="amf" x="130.6" y="76.74" width="54.2" height="9.37" transform="translate(-11.74 28.62) rotate(-10)"/></g><g id="ck" transform="rotate(41,44.875958,54.459358)"><rect id="cl" class="ajo" x="130.79" y="77.87" width="54.2" height="9.37" transform="translate(-10.97 25.72) rotate(-9)"/></g><g id="cm" transform="rotate(42,44.875958,55.066418)"><rect id="cn" class="abl" x="130.97" y="79.01" width="54.2" height="9.37" transform="translate(-10.11 22.81) rotate(-8)"/></g><g id="co" transform="rotate(43,44.875958,55.646491)"><rect id="cp" class="anl" x="131.12" y="80.14" width="54.2" height="9.37" transform="translate(-9.16 19.91) rotate(-7)"/></g><g id="cq" transform="rotate(44,44.875958,56.201418)"><rect id="cr" class="amg" x="131.25" y="81.28" width="54.2" height="9.37" transform="translate(-8.12 17.02) rotate(-6)"/></g><g id="cs" transform="rotate(45,44.875958,56.732879)"><rect id="ct" class="alo" x="131.36" y="82.43" width="54.2" height="9.37" transform="translate(-6.99 14.14) rotate(-5)"/></g><g id="cu" transform="rotate(46,44.875958,57.242408)"><rect id="cv" class="aly" x="131.45" y="83.57" width="54.2" height="9.37" transform="translate(-5.77 11.28) rotate(-4)"/></g><g id="cw" transform="rotate(47,44.875958,57.731408)"><rect id="cx" class="afd" x="131.53" y="84.72" width="54.2" height="9.37" transform="translate(-4.46 8.42) rotate(-3)"/></g><g id="cy" transform="rotate(48,44.875958,58.201166)"><rect id="d`" class="aeh" x="131.58" y="85.86" width="54.2" height="9.37" transform="translate(-3.06 5.59) rotate(-2)"/></g><g id="da" transform="rotate(49,44.875958,58.652862)"><rect id="db" class="afv" x="131.61" y="87.01" width="54.2" height="9.37" transform="translate(-1.58 2.78) rotate(-1)"/></g><g id="dc" transform="rotate(50,44.875958,59.087584)"><rect id="dd" class="adw" x="131.62" y="88.16" width="54.2" height="9.37"/></g><g id="de" transform="rotate(51,44.875958,59.506333)"><rect id="df" class="anb" x="154.03" y="66.89" width="9.37" height="54.2" transform="translate(61.97 251.04) rotate(-89)"/></g><g id="dg" transform="rotate(52,44.875958,59.910035)"><rect id="dh" class="alb" x="154.01" y="68.03" width="9.37" height="54.2" transform="translate(58.08 250.41) rotate(-88)"/></g><g id="di" transform="rotate(53,44.875958,60.299544)"><rect id="dj" class="aji" x="153.96" y="69.18" width="9.37" height="54.2" transform="translate(54.19 249.67) rotate(-87)"/></g><g id="dk" transform="rotate(54,44.875958,60.675652)"><rect id="dl" class="aje" x="153.89" y="70.33" width="9.37" height="54.2" transform="translate(50.32 248.82) rotate(-86)"/></g><g id="dm" transform="rotate(55,44.875958,61.039093)"><rect id="dn" class="ah`" x="153.8" y="71.47" width="9.37" height="54.2" transform="translate(46.48 247.86) rotate(-85)"/></g><g id="do" transform="rotate(56,44.875958,61.39055)"><rect id="dp" class="acu" x="153.7" y="72.61" width="9.37" height="54.2" transform="translate(42.66 246.8) rotate(-84)"/></g><g id="dq" transform="rotate(57,44.875958,61.730656)"><rect id="dr" class="ani" x="153.57" y="73.75" width="9.37" height="54.2" transform="translate(38.86 245.63) rotate(-83)"/></g><g id="ds" transform="rotate(58,44.875958,62.060002)"><rect id="dt" class="akm" x="153.42" y="74.89" width="9.37" height="54.2" transform="translate(35.1 244.36) rotate(-82)"/></g><g id="du" transform="rotate(59,44.875958,62.379139)"><rect id="dv" class="adr" x="153.25" y="76.03" width="9.37" height="54.2" transform="translate(31.37 242.99) rotate(-81)"/></g><g id="dw" transform="rotate(60,44.875958,62.68858)"><rect id="dx" class="afk" x="153.07" y="77.16" width="9.37" height="54.2" transform="translate(27.68 241.51) rotate(-80)"/></g><g id="dy" transform="rotate(61,44.875958,62.988806)"><rect id="e`" class="afq" x="152.86" y="78.29" width="9.37" height="54.2" transform="translate(24.03 239.93) rotate(-79)"/></g><g id="ea" transform="rotate(62,44.875958,63.280265)"><rect id="eb" class="afi" x="152.63" y="79.41" width="9.37" height="54.2" transform="translate(20.42 238.25) rotate(-78)"/></g><g id="ec" transform="rotate(63,44.875958,63.56338)"><rect id="ed" class="ajm" x="152.39" y="80.53" width="9.37" height="54.2" transform="translate(16.86 236.47) rotate(-77)"/></g><g id="ee" transform="rotate(64,44.875958,63.838544)"><rect id="ef" class="aim" x="152.12" y="81.65" width="9.37" height="54.2" transform="translate(13.35 234.59) rotate(-76)"/></g><g id="eg" transform="rotate(65,44.875958,64.106128)"><rect id="eh" class="aeg" x="151.84" y="82.76" width="9.37" height="54.2" transform="translate(9.89 232.61) rotate(-75)"/></g><g id="ei" transform="rotate(66,44.875958,64.366481)"><rect id="ej" class="aku" x="151.53" y="83.87" width="9.37" height="54.2" transform="translate(6.49 230.55) rotate(-74)"/></g><g id="ek" transform="rotate(67,44.875958,64.619928)"><rect id="el" class="aoe" x="151.21" y="84.97" width="9.37" height="54.2" transform="translate(3.14 228.38) rotate(-73)"/></g><g id="em" transform="rotate(68,44.875958,64.86678)"><rect id="en" class="aod" x="150.87" y="86.06" width="9.37" height="54.2" transform="translate(-.14 226.13) rotate(-72)"/></g><g id="eo" transform="rotate(69,44.875958,65.107325)"><rect id="ep" class="ac`" x="150.5" y="87.15" width="9.37" height="54.2" transform="translate(-3.36 223.79) rotate(-71)"/></g><g id="eq" transform="rotate(70,44.875958,65.341838)"><rect id="er" class="abm" x="150.12" y="88.23" width="9.37" height="54.2" transform="translate(-6.52 221.36) rotate(-70)"/></g><g id="es" transform="rotate(71,44.875958,65.570578)"><rect id="et" class="afc" x="149.72" y="89.31" width="9.37" height="54.2" transform="translate(-9.61 218.84) rotate(-69)"/></g><g id="eu" transform="rotate(72,44.875958,65.793788)"><rect id="ev" class="anq" x="149.31" y="90.38" width="9.37" height="54.2" transform="translate(-12.62 216.25) rotate(-68)"/></g><g id="ew" transform="rotate(73,44.875958,66.0117)"><rect id="ex" class="ana" x="148.87" y="91.44" width="9.37" height="54.2" transform="translate(-15.56 213.57) rotate(-67)"/></g><g id="ey" transform="rotate(74,44.875958,66.224531)"><rect id="f`" class="agx" x="148.41" y="92.49" width="9.37" height="54.2" transform="translate(-18.43 210.81) rotate(-66)"/></g><g id="fa" transform="rotate(75,44.875958,66.43249)"><rect id="fb" class="agt" x="147.94" y="93.54" width="9.37" height="54.2" transform="translate(-21.21 207.98) rotate(-65)"/></g><g id="fc" transform="rotate(76,44.875958,66.635771)"><rect id="fd" class="af`" x="147.45" y="94.57" width="9.37" height="54.2" transform="translate(-23.92 205.07) rotate(-64)"/></g><g id="fe" transform="rotate(77,44.875958,66.834562)"><rect id="ff" class="amv" x="146.94" y="95.6" width="9.37" height="54.2" transform="translate(-26.54 202.09) rotate(-63)"/></g><g id="fg" transform="rotate(78,44.875958,67.029037)"><rect id="fh" class="amm" x="146.41" y="96.62" width="9.37" height="54.2" transform="translate(-29.08 199.05) rotate(-62)"/></g><g id="fi" transform="rotate(79,44.875958,67.219366)"><rect id="fj" class="aou" x="145.86" y="97.63" width="9.37" height="54.2" transform="translate(-31.53 195.93) rotate(-61)"/></g><g id="fk" transform="rotate(80,44.875958,67.405707)"><rect id="fl" class="aen" x="145.3" y="98.63" width="9.37" height="54.2" transform="translate(-33.9 192.76) rotate(-60)"/></g><g id="fm" transform="rotate(81,44.875958,67.588212)"><rect id="fn" class="aco" x="144.72" y="99.62" width="9.37" height="54.2" transform="translate(-36.17 189.52) rotate(-59)"/></g><g id="fo" transform="rotate(82,44.875958,67.767025)"><rect id="fp" class="agq" x="144.12" y="100.6" width="9.37" height="54.2" transform="translate(-38.35 186.23) rotate(-58)"/></g><g id="fq" transform="rotate(83,44.875958,67.942284)"><rect id="fr" class="aoi" x="143.51" y="101.57" width="9.37" height="54.2" transform="translate(-40.43 182.88) rotate(-57)"/></g><g id="fs" transform="rotate(84,44.875958,68.114119)"><rect id="ft" class="apc" x="142.88" y="102.53" width="9.37" height="54.2" transform="translate(-42.42 179.48) rotate(-56)"/></g><g id="fu" transform="rotate(85,44.875958,68.282655)"><rect id="fv" class="acc" x="142.23" y="103.48" width="9.37" height="54.2" transform="translate(-44.32 176.02) rotate(-55)"/></g><g id="fw" transform="rotate(86,44.875958,68.448011)"><rect id="fx" class="ad`" x="141.56" y="104.41" width="9.37" height="54.2" transform="translate(-46.11 172.53) rotate(-54)"/></g><g id="fy" transform="rotate(87,44.875958,68.610301)"><rect id="g`" class="abk" x="140.88" y="105.33" width="9.37" height="54.2" transform="translate(-47.81 168.99) rotate(-53)"/></g><g id="ga" transform="rotate(88,44.875958,68.769633)"><rect id="gb" class="am`" x="140.19" y="106.25" width="9.37" height="54.2" transform="translate(-49.4 165.41) rotate(-52)"/></g><g id="gc" transform="rotate(89,44.875958,68.926111)"><rect id="gd" class="aek" x="139.48" y="107.15" width="9.37" height="54.2" transform="translate(-50.89 161.79) rotate(-51)"/></g><g id="ge" transform="rotate(90,44.875958,69.079834)"><rect id="gf" class="apg" x="138.75" y="108.03" width="9.37" height="54.2" transform="translate(-52.28 158.15) rotate(-50)"/></g><g id="gg" transform="rotate(91,44.875958,69.230898)"><rect id="gh" class="alp" x="138" y="108.91" width="9.37" height="54.2" transform="translate(-53.57 154.47) rotate(-49)"/></g><g id="gi" transform="rotate(92,44.875958,69.379392)"><rect id="gj" class="acn" x="137.25" y="109.77" width="9.37" height="54.2" transform="translate(-54.75 150.76) rotate(-48)"/></g><g id="gk" transform="rotate(93,44.875958,69.525405)"><rect id="gl" class="acy" x="136.47" y="110.62" width="9.37" height="54.2" transform="translate(-55.83 147.03) rotate(-47)"/></g><g id="gm" transform="rotate(94,44.875958,69.669019)"><rect id="gn" class="ama" x="135.68" y="111.45" width="9.37" height="54.2" transform="translate(-56.81 143.28) rotate(-46)"/></g><g id="go" transform="rotate(95,44.875958,69.810314)"><rect id="gp" class="agj" x="134.88" y="112.27" width="9.37" height="54.2" transform="translate(-57.67 139.51) rotate(-45)"/></g><g id="gq" transform="rotate(96,44.875958,69.949368)"><rect id="gr" class="ako" x="134.06" y="113.08" width="9.37" height="54.2" transform="translate(-58.43 135.72) rotate(-44)"/></g><g id="gs" transform="rotate(97,44.875958,70.086254)"><rect id="gt" class="ajt" x="133.23" y="113.87" width="9.37" height="54.2" transform="translate(-59.09 131.93) rotate(-43)"/></g><g id="gu" transform="rotate(98,44.875958,70.221041)"><rect id="gv" class="alu" x="132.39" y="114.64" width="9.37" height="54.2" transform="translate(-59.64 128.13) rotate(-42)"/></g><g id="gw" transform="rotate(99,44.875958,70.3538)"><rect id="gx" class="als" x="131.53" y="115.41" width="9.37" height="54.2" transform="translate(-60.08 124.32) rotate(-41)"/></g><g id="gy" transform="rotate(100,44.875958,70.484593)"><rect id="h`" class="aey" x="130.66" y="116.15" width="9.37" height="54.2" transform="translate(-60.42 120.51) rotate(-40)"/></g><g id="ha" transform="rotate(101,44.875958,70.613486)"><rect id="hb" class="adg" x="129.78" y="116.89" width="9.37" height="54.2" transform="translate(-60.65 116.71) rotate(-39)"/></g><g id="hc" transform="rotate(102,44.875958,70.740537)"><rect id="hd" class="agh" x="128.88" y="117.6" width="9.37" height="54.2" transform="translate(-60.77 112.9) rotate(-38)"/></g><g id="he" transform="rotate(103,44.875958,70.865804)"><rect id="hf" class="amc" x="127.97" y="118.3" width="9.37" height="54.2" transform="translate(-60.79 109.11) rotate(-37)"/></g><g id="hg" transform="rotate(104,44.875958,70.989345)"><rect id="hh" class="agl" x="127.05" y="118.99" width="9.37" height="54.2" transform="translate(-60.71 105.33) rotate(-36)"/></g><g id="hi" transform="rotate(105,44.875958,71.111213)"><rect id="hj" class="ahw" x="126.12" y="119.66" width="9.37" height="54.2" transform="translate(-60.52 101.56) rotate(-35)"/></g><g id="hk" transform="rotate(106,44.875958,71.231459)"><rect id="hl" class="akh" x="125.17" y="120.31" width="9.37" height="54.2" transform="translate(-60.23 97.82) rotate(-34)"/></g><g id="hm" transform="rotate(107,44.875958,71.350134)"><rect id="hn" class="ahv" x="124.22" y="120.94" width="9.37" height="54.2" transform="translate(-59.84 94.09) rotate(-33)"/></g><g id="ho" transform="rotate(108,44.875958,71.467286)"><rect id="hp" class="apd" x="123.25" y="121.56" width="9.37" height="54.2" transform="translate(-59.34 90.38) rotate(-32)"/></g><g id="hq" transform="rotate(109,44.875958,71.582962)"><rect id="hr" class="ajs" x="122.27" y="122.16" width="9.37" height="54.2" transform="translate(-58.74 86.71) rotate(-31)"/></g><g id="hs" transform="rotate(110,44.875958,71.697207)"><rect id="ht" class="akx" x="121.29" y="122.75" width="9.37" height="54.2" transform="translate(-58.05 83.06) rotate(-30)"/></g><g id="hu" transform="rotate(111,44.875958,71.810064)"><rect id="hv" class="agu" x="120.29" y="123.31" width="9.37" height="54.2" transform="translate(-57.25 79.45) rotate(-29)"/></g><g id="hw" transform="rotate(112,44.875958,71.921575)"><rect id="hx" class="aeq" x="119.28" y="123.86" width="9.37" height="54.2" transform="translate(-56.36 75.87) rotate(-28)"/></g><g id="hy" transform="rotate(113,44.875958,72.031781)"><rect id="i`" class="akj" x="118.26" y="124.4" width="9.37" height="54.2" transform="translate(-55.38 72.33) rotate(-27)"/></g><g id="ia" transform="rotate(114,44.875958,72.140722)"><rect id="ib" class="ahy" x="117.24" y="124.91" width="9.37" height="54.2" transform="translate(-54.3 68.83) rotate(-26)"/></g><g id="ic" transform="rotate(115,44.875958,72.248434)"><rect id="id" class="ajn" x="116.2" y="125.41" width="9.37" height="54.2" transform="translate(-53.13 65.38) rotate(-25)"/></g><g id="ie" transform="rotate(116,44.875958,72.354956)"><rect id="if" class="alc" x="115.16" y="125.88" width="9.37" height="54.2" transform="translate(-51.86 61.97) rotate(-24)"/></g><g id="ig" transform="rotate(117,44.875958,72.460322)"><rect id="ih" class="ahu" x="114.11" y="126.34" width="9.37" height="54.2" transform="translate(-50.51 58.61) rotate(-23)"/></g><g id="ii" transform="rotate(118,44.875958,72.564567)"><rect id="ij" class="alh" x="113.05" y="126.79" width="9.37" height="54.2" transform="translate(-49.07 55.31) rotate(-22)"/></g><g id="ik" transform="rotate(119,44.875958,72.667724)"><rect id="il" class="ai`" x="111.98" y="127.21" width="9.37" height="54.2" transform="translate(-47.55 52.06) rotate(-21)"/></g><g id="im" transform="rotate(120,44.875958,72.769826)"><rect id="in" class="abt" x="110.91" y="127.61" width="9.37" height="54.2" transform="translate(-45.94 48.86) rotate(-20)"/></g><g id="io" transform="rotate(121,44.875958,72.870905)"><rect id="ip" class="akg" x="109.83" y="128" width="9.37" height="54.2" transform="translate(-44.26 45.73) rotate(-19)"/></g><g id="iq" transform="rotate(122,44.875958,72.97099)"><rect id="ir" class="ao`" x="108.74" y="128.36" width="9.37" height="54.2" transform="translate(-42.49 42.66) rotate(-18)"/></g><g id="is" transform="rotate(123,44.875958,73.070112)"><rect id="it" class="aog" x="107.65" y="128.71" width="9.37" height="54.2" transform="translate(-40.65 39.65) rotate(-17)"/></g><g id="iu" transform="rotate(124,44.875958,73.168299)"><rect id="iv" class="aoy" x="106.55" y="129.04" width="9.37" height="54.2" transform="translate(-38.73 36.71) rotate(-16)"/></g><g id="iw" transform="rotate(125,44.875958,73.265579)"><rect id="ix" class="ajd" x="105.44" y="129.35" width="9.37" height="54.2" transform="translate(-36.74 33.83) rotate(-15)"/></g><g id="iy" transform="rotate(126,44.875958,73.361979)"><rect id="j`" class="abx" x="104.33" y="129.64" width="9.37" height="54.2" transform="translate(-34.68 31.03) rotate(-14)"/></g><g id="ja" transform="rotate(127,44.875958,73.457525)"><rect id="jb" class="anh" x="103.22" y="129.91" width="9.37" height="54.2" transform="translate(-32.55 28.3) rotate(-13)"/></g><g id="jc" transform="rotate(128,44.875958,73.552244)"><rect id="jd" class="agy" x="102.1" y="130.16" width="9.37" height="54.2" transform="translate(-30.36 25.64) rotate(-12)"/></g><g id="je" transform="rotate(129,44.875958,73.64616)"><rect id="jf" class="aov" x="100.97" y="130.39" width="9.37" height="54.2" transform="translate(-28.11 23.05) rotate(-11)"/></g><g id="jg" transform="rotate(130,44.875958,73.739297)"><rect id="jh" class="agv" x="99.84" y="130.6" width="9.37" height="54.2" transform="translate(-25.8 20.55) rotate(-10)"/></g><g id="ji" transform="rotate(131,44.875958,73.831679)"><rect id="jj" class="akf" x="98.71" y="130.79" width="9.37" height="54.2" transform="translate(-23.43 18.12) rotate(-9)"/></g><g id="jk" transform="rotate(132,44.875958,73.923329)"><rect id="jl" class="alv" x="97.58" y="130.97" width="9.37" height="54.2" transform="translate(-21 15.77) rotate(-8)"/></g><g id="jm" transform="rotate(133,44.875958,74.01427)"><rect id="jn" class="aiv" x="96.44" y="131.12" width="9.37" height="54.2" transform="translate(-18.53 13.5) rotate(-7)"/></g><g id="jo" transform="rotate(134,44.875958,74.104523)"><rect id="jp" class="adj" x="95.3" y="131.25" width="9.37" height="54.2" transform="translate(-16 11.32) rotate(-6)"/></g><g id="jq" transform="rotate(135,44.875958,74.19411)"><rect id="jr" class="amy" x="94.16" y="131.36" width="9.37" height="54.2" transform="translate(-13.43 9.22) rotate(-5)"/></g><g id="js" transform="rotate(136,44.875958,74.283052)"><rect id="jt" class="ajp" x="93.01" y="131.45" width="9.37" height="54.2" transform="translate(-10.82 7.2) rotate(-4)"/></g><g id="ju" transform="rotate(137,44.875958,74.371369)"><rect id="jv" class="amd" x="91.87" y="131.53" width="9.37" height="54.2" transform="translate(-8.17 5.27) rotate(-3)"/></g><g id="jw" transform="rotate(138,44.875958,74.45908)"><rect id="jx" class="aeb" x="90.72" y="131.58" width="9.37" height="54.2" transform="translate(-5.48 3.43) rotate(-2)"/></g><g id="jy" transform="rotate(139,44.875958,74.546206)"><rect id="k`" class="afy" x="89.58" y="131.61" width="9.37" height="54.2" transform="translate(-2.76 1.67) rotate(-1)"/></g><g id="ka" transform="rotate(140,44.875958,74.632766)"><rect id="kb" class="ak`" x="88.43" y="131.62" width="9.37" height="54.2"/></g><g id="kc" transform="rotate(141,44.875958,74.718777)"><rect id="kd" class="adn" x="64.86" y="154.03" width="54.2" height="9.37" transform="translate(-68.33 247.9) rotate(-89)"/></g><g id="ke" transform="rotate(142,44.875958,74.804258)"><rect id="kf" class="akv" x="63.72" y="154.01" width="54.2" height="9.37" transform="translate(-70.95 243.91) rotate(-88)"/></g><g id="kg" transform="rotate(143,44.875958,74.889227)"><rect id="kh" class="ael" x="62.57" y="153.96" width="54.2" height="9.37" transform="translate(-73.45 239.89) rotate(-87)"/></g><g id="ki" transform="rotate(144,44.875958,74.973701)"><rect id="kj" class="ack" x="61.42" y="153.89" width="54.2" height="9.37" transform="translate(-75.84 235.82) rotate(-86)"/></g><g id="kk" transform="rotate(145,44.875958,75.057697)"><rect id="kl" class="any" x="60.28" y="153.8" width="54.2" height="9.37" transform="translate(-78.12 231.72) rotate(-85)"/></g><g id="km" transform="rotate(146,44.875958,75.141233)"><rect id="kn" class="ale" x="59.14" y="153.7" width="54.2" height="9.37" transform="translate(-80.29 227.59) rotate(-84)"/></g><g id="ko" transform="rotate(147,44.875958,75.224324)"><rect id="kp" class="ape" x="58" y="153.57" width="54.2" height="9.37" transform="translate(-82.34 223.43) rotate(-83)"/></g><g id="kq" transform="rotate(148,44.875958,75.306986)"><rect id="kr" class="aml" x="56.86" y="153.42" width="54.2" height="9.37" transform="translate(-84.29 219.24) rotate(-82)"/></g><g id="ks" transform="rotate(149,44.875958,75.389236)"><rect id="kt" class="aex" x="55.72" y="153.25" width="54.2" height="9.37" transform="translate(-86.12 215.04) rotate(-81)"/></g><g id="ku" transform="rotate(150,44.875958,75.471088)"><rect id="kv" class="afo" x="54.59" y="153.07" width="54.2" height="9.37" transform="translate(-87.85 210.81) rotate(-80)"/></g><g id="kw" transform="rotate(151,44.875958,75.552559)"><rect id="kx" class="ahn" x="53.46" y="152.86" width="54.2" height="9.37" transform="translate(-89.46 206.57) rotate(-79)"/></g><g id="ky" transform="rotate(152,44.875958,75.633663)"><rect id="l`" class="ajr" x="52.34" y="152.63" width="54.2" height="9.37" transform="translate(-90.96 202.31) rotate(-78)"/></g><g id="la" transform="rotate(153,44.875958,75.714414)"><rect id="lb" class="ams" x="51.22" y="152.39" width="54.2" height="9.37" transform="translate(-92.34 198.05) rotate(-77)"/></g><g id="lc" transform="rotate(154,44.875958,75.794828)"><rect id="ld" class="aoc" x="50.1" y="152.12" width="54.2" height="9.37" transform="translate(-93.62 193.78) rotate(-76)"/></g><g id="le" transform="rotate(155,44.875958,75.874919)"><rect id="lf" class="adh" x="48.99" y="151.84" width="54.2" height="9.37" transform="translate(-94.79 189.51) rotate(-75)"/></g><g id="lg" transform="rotate(156,44.875958,75.9547)"><rect id="lh" class="agp" x="47.88" y="151.53" width="54.2" height="9.37" transform="translate(-95.85 185.24) rotate(-74)"/></g><g id="li" transform="rotate(157,44.875958,76.034186)"><rect id="lj" class="aok" x="46.78" y="151.21" width="54.2" height="9.37" transform="translate(-96.8 180.97) rotate(-73)"/></g><g id="lk" transform="rotate(158,44.875958,76.11339)"><rect id="ll" class="aon" x="45.69" y="150.87" width="54.2" height="9.37" transform="translate(-97.64 176.71) rotate(-72)"/></g><g id="lm" transform="rotate(159,44.875958,76.192326)"><rect id="ln" class="ali" x="44.6" y="150.5" width="54.2" height="9.37" transform="translate(-98.38 172.46) rotate(-71)"/></g><g id="lo" transform="rotate(160,44.875958,76.271007)"><rect id="lp" class="ahs" x="43.51" y="150.12" width="54.2" height="9.37" transform="translate(-99.01 168.22) rotate(-70)"/></g><g id="lq" transform="rotate(161,44.875958,76.349446)"><rect id="lr" class="aiq" x="42.44" y="149.72" width="54.2" height="9.37" transform="translate(-99.53 163.99) rotate(-69)"/></g><g id="ls" transform="rotate(162,44.875958,76.427656)"><rect id="lt" class="apa" x="41.37" y="149.31" width="54.2" height="9.37" transform="translate(-99.95 159.79) rotate(-68)"/></g><g id="lu" transform="rotate(163,44.875958,76.50565)"><rect id="lv" class="an`" x="40.31" y="148.87" width="54.2" height="9.37" transform="translate(-100.27 155.61) rotate(-67)"/></g><g id="lw" transform="rotate(164,44.875958,76.583442)"><rect id="lx" class="ane" x="39.26" y="148.41" width="54.2" height="9.37" transform="translate(-100.49 151.45) rotate(-66)"/></g><g id="ly" transform="rotate(165,44.875958,76.661042)"><rect id="m`" class="anw" x="38.21" y="147.94" width="54.2" height="9.37" transform="translate(-100.61 147.31) rotate(-65)"/></g><g id="ma" transform="rotate(166,44.875958,76.738465)"><rect id="mb" class="anj" x="37.17" y="147.45" width="54.2" height="9.37" transform="translate(-100.64 143.21) rotate(-64)"/></g><g id="mc" transform="rotate(167,44.875958,76.815722)"><rect id="md" class="aiy" x="36.15" y="146.94" width="54.2" height="9.37" transform="translate(-100.56 139.14) rotate(-63)"/></g><g id="me" transform="rotate(168,44.875958,76.892825)"><rect id="mf" class="abp" x="35.13" y="146.41" width="54.2" height="9.37" transform="translate(-100.39 135.1) rotate(-62)"/></g><g id="mg" transform="rotate(169,44.875958,76.969787)"><rect id="mh" class="amq" x="34.12" y="145.86" width="54.2" height="9.37" transform="translate(-100.13 131.1) rotate(-61)"/></g><g id="mi" transform="rotate(170,44.875958,77.04662)"><rect id="mj" class="ajq" x="33.12" y="145.3" width="54.2" height="9.37" transform="translate(-99.78 127.14) rotate(-60)"/></g><g id="mk" transform="rotate(171,44.875958,77.123335)"><rect id="ml" class="aip" x="32.13" y="144.72" width="54.2" height="9.37" transform="translate(-99.34 123.22) rotate(-59)"/></g><g id="mm" transform="rotate(172,44.875958,77.199946)"><rect id="mn" class="akw" x="31.15" y="144.12" width="54.2" height="9.37" transform="translate(-98.81 119.35) rotate(-58)"/></g><g id="mo" transform="rotate(173,44.875958,77.276462)"><rect id="mp" class="aht" x="30.18" y="143.51" width="54.2" height="9.37" transform="translate(-98.2 115.52) rotate(-57)"/></g><g id="mq" transform="rotate(174,44.875958,77.352898)"><rect id="mr" class="ace" x="29.22" y="142.88" width="54.2" height="9.37" transform="translate(-97.51 111.74) rotate(-56)"/></g><g id="ms" transform="rotate(175,44.875958,77.429263)"><rect id="mt" class="ajv" x="28.27" y="142.23" width="54.2" height="9.37" transform="translate(-96.73 108.01) rotate(-55)"/></g><g id="mu" transform="rotate(176,44.875958,77.50557)"><rect id="mv" class="ads" x="27.34" y="141.57" width="54.2" height="9.37" transform="translate(-95.88 104.33) rotate(-54)"/></g><g id="mw" transform="rotate(177,44.875958,77.581831)"><rect id="mx" class="ahc" x="26.41" y="140.88" width="54.2" height="9.37" transform="translate(-94.95 100.7) rotate(-53)"/></g><g id="my" transform="rotate(178,44.875958,77.658056)"><rect id="n`" class="akr" x="25.5" y="140.19" width="54.2" height="9.37" transform="translate(-93.94 97.13) rotate(-52)"/></g><g id="na" transform="rotate(179,44.875958,77.734259)"><rect id="nb" class="afp" x="24.6" y="139.48" width="54.2" height="9.37" transform="translate(-92.87 93.62) rotate(-51)"/></g><g id="nc" transform="rotate(180,44.875958,77.81045)"><rect id="nd" class="acx" x="23.72" y="138.75" width="54.2" height="9.37" transform="translate(-91.72 90.16) rotate(-50)"/></g><g id="ne" transform="rotate(-179,44.875958,77.886641)"><rect id="nf" class="agn" x="22.84" y="138" width="54.2" height="9.37" transform="translate(-90.51 86.77) rotate(-49)"/></g><g id="ng" transform="rotate(-178,44.875958,77.962843)"><rect id="nh" class="aij" x="21.98" y="137.25" width="54.2" height="9.37" transform="translate(-89.23 83.43) rotate(-48)"/></g><g id="ni" transform="rotate(-177,44.875958,78.039069)"><rect id="nj" class="alq" x="21.13" y="136.47" width="54.2" height="9.37" transform="translate(-87.9 80.16) rotate(-47)"/></g><g id="nk" transform="rotate(-176,44.875958,78.11533)"><rect id="nl" class="alw" x="20.3" y="135.68" width="54.2" height="9.37" transform="translate(-86.5 76.96) rotate(-46)"/></g><g id="nm" transform="rotate(-175,44.875958,78.191637)"><rect id="nn" class="agi" x="19.48" y="134.88" width="54.2" height="9.37" transform="translate(-85.04 73.81) rotate(-45)"/></g><g id="no" transform="rotate(-174,44.875958,78.268002)"><rect id="np" class="aho" x="18.67" y="134.06" width="54.2" height="9.37" transform="translate(-83.53 70.74) rotate(-44)"/></g><g id="nq" transform="rotate(-173,44.875958,78.344437)"><rect id="nr" class="act" x="17.88" y="133.23" width="54.2" height="9.37" transform="translate(-81.97 67.73) rotate(-43)"/></g><g id="ns" transform="rotate(-172,44.875958,78.420954)"><rect id="nt" class="ait" x="17.1" y="132.39" width="54.2" height="9.37" transform="translate(-80.36 64.79) rotate(-42)"/></g><g id="nu" transform="rotate(-171,44.875958,78.497564)"><rect id="nv" class="aln" x="16.34" y="131.53" width="54.2" height="9.37" transform="translate(-78.71 61.91) rotate(-41)"/></g><g id="nw" transform="rotate(-170,44.875958,78.57428)"><rect id="nx" class="aep" x="15.59" y="130.66" width="54.2" height="9.37" transform="translate(-77.01 59.11) rotate(-40)"/></g><g id="ny" transform="rotate(-169,44.875958,78.651112)"><rect id="o`" class="ano" x="14.86" y="129.78" width="54.2" height="9.37" transform="translate(-75.27 56.37) rotate(-39)"/></g><g id="oa" transform="rotate(-168,44.875958,78.728074)"><rect id="ob" class="aox" x="14.15" y="128.88" width="54.2" height="9.37" transform="translate(-73.49 53.71) rotate(-38)"/></g><g id="oc" transform="rotate(-167,44.875958,78.805178)"><rect id="od" class="ans" x="13.45" y="127.97" width="54.2" height="9.37" transform="translate(-71.67 51.11) rotate(-37)"/></g><g id="oe" transform="rotate(-166,44.875958,78.882435)"><rect id="of" class="apf" x="12.76" y="127.05" width="54.2" height="9.37" transform="translate(-69.82 48.59) rotate(-36)"/></g><g id="og" transform="rotate(-165,44.875958,78.959857)"><rect id="oh" class="aid" x="12.09" y="126.12" width="54.2" height="9.37" transform="translate(-67.94 46.14) rotate(-35)"/></g><g id="oi" transform="rotate(-164,44.875958,79.037458)"><rect id="oj" class="aci" x="11.44" y="125.17" width="54.2" height="9.37" transform="translate(-66.02 43.75) rotate(-34)"/></g><g id="ok" transform="rotate(-163,44.875958,79.115249)"><rect id="ol" class="ahj" x="10.81" y="124.22" width="54.2" height="9.37" transform="translate(-64.09 41.44) rotate(-33)"/></g><g id="om" transform="rotate(-162,44.875958,79.193243)"><rect id="on" class="aig" x="10.19" y="123.25" width="54.2" height="9.37" transform="translate(-62.13 39.2) rotate(-32)"/></g><g id="oo" transform="rotate(-161,44.875958,79.271454)"><rect id="op" class="aef" x="9.59" y="122.27" width="54.2" height="9.37" transform="translate(-60.15 37.03) rotate(-31)"/></g><g id="oq" transform="rotate(-160,44.875958,79.349893)"><rect id="or" class="ahe" x="9" y="121.29" width="54.2" height="9.37" transform="translate(-58.15 34.93) rotate(-30)"/></g><g id="os" transform="rotate(-159,44.875958,79.428574)"><rect id="ot" class="ame" x="8.43" y="120.29" width="54.2" height="9.37" transform="translate(-56.13 32.9) rotate(-29)"/></g><g id="ou" transform="rotate(-158,44.875958,79.507509)"><rect id="ov" class="ain" x="7.89" y="119.28" width="54.2" height="9.37" transform="translate(-54.1 30.94) rotate(-28)"/></g><g id="ow" transform="rotate(-157,44.875958,79.586714)"><rect id="ox" class="air" x="7.35" y="118.26" width="54.2" height="9.37" transform="translate(-52.06 29.04) rotate(-27)"/></g><g id="oy" transform="rotate(-156,44.875958,79.666199)"><rect id="p`" class="aif" x="6.84" y="117.24" width="54.2" height="9.37" transform="translate(-50.01 27.22) rotate(-26)"/></g><g id="pa" transform="rotate(-155,44.875958,79.745981)"><rect id="pb" class="anu" x="6.34" y="116.2" width="54.2" height="9.37" transform="translate(-47.96 25.46) rotate(-25)"/></g><g id="pc" transform="rotate(-154,44.875958,79.826071)"><rect id="pd" class="agw" x="5.86" y="115.16" width="54.2" height="9.37" transform="translate(-45.89 23.77) rotate(-24)"/></g><g id="pe" transform="rotate(-153,44.875958,79.906485)"><rect id="pf" class="aft" x="5.4" y="114.11" width="54.2" height="9.37" transform="translate(-43.83 22.14) rotate(-23)"/></g><g id="pg" transform="rotate(-152,44.875958,79.987237)"><rect id="ph" class="acs" x="4.96" y="113.05" width="54.2" height="9.37" transform="translate(-41.77 20.58) rotate(-22)"/></g><g id="pi" transform="rotate(-151,44.875958,80.06834)"><rect id="pj" class="ajx" x="4.54" y="111.98" width="54.2" height="9.37" transform="translate(-39.71 19.09) rotate(-21)"/></g><g id="pk" transform="rotate(-150,44.875958,80.149811)"><rect id="pl" class="afj" x="4.14" y="110.91" width="54.2" height="9.37" transform="translate(-37.65 17.66) rotate(-20)"/></g><g id="pm" transform="rotate(-149,44.875958,80.231664)"><rect id="pn" class="akk" x="3.75" y="109.83" width="54.2" height="9.37" transform="translate(-35.6 16.28) rotate(-19)"/></g><g id="po" transform="rotate(-148,44.875958,80.313913)"><rect id="pp" class="aer" x="3.39" y="108.74" width="54.2" height="9.37" transform="translate(-33.56 14.97) rotate(-18)"/></g><g id="pq" transform="rotate(-147,44.875958,80.396576)"><rect id="pr" class="ady" x="3.04" y="107.65" width="54.2" height="9.37" transform="translate(-31.52 13.72) rotate(-17)"/></g><g id="ps" transform="rotate(-146,44.875958,80.479667)"><rect id="pt" class="aea" x="2.71" y="106.55" width="54.2" height="9.37" transform="translate(-29.5 12.53) rotate(-16)"/></g><g id="pu" transform="rotate(-145,44.875958,80.563202)"><rect id="pv" class="and" x="2.4" y="105.44" width="54.2" height="9.37" transform="translate(-27.5 11.39) rotate(-15)"/></g><g id="pw" transform="rotate(-144,44.875958,80.647199)"><rect id="px" class="amn" x="2.11" y="104.33" width="54.2" height="9.37" transform="translate(-25.51 10.31) rotate(-14)"/></g><g id="py" transform="rotate(-143,44.875958,80.731673)"><rect id="q`" class="ahx" x="1.84" y="103.22" width="54.2" height="9.37" transform="translate(-23.53 9.28) rotate(-13)"/></g><g id="qa" transform="rotate(-142,44.875958,80.816642)"><rect id="qb" class="aiu" x="1.59" y="102.1" width="54.2" height="9.37" transform="translate(-21.57 8.3) rotate(-12)"/></g><g id="qc" transform="rotate(-141,44.875958,80.902123)"><rect id="qd" class="adf" x="1.36" y="100.97" width="54.2" height="9.37" transform="translate(-19.64 7.37) rotate(-11)"/></g><g id="qe" transform="rotate(-140,44.875958,80.988134)"><rect id="qf" class="aju" x="1.15" y="99.84" width="54.2" height="9.37" transform="translate(-17.72 6.49) rotate(-10)"/></g><g id="qg" transform="rotate(-139,44.875958,81.074693)"><rect id="qh" class="amp" x=".96" y="98.71" width="54.2" height="9.37" transform="translate(-15.83 5.66) rotate(-9)"/></g><g id="qi" transform="rotate(-138,44.875958,81.161819)"><rect id="qj" class="aki" x=".78" y="97.58" width="54.2" height="9.37" transform="translate(-13.96 4.88) rotate(-8)"/></g><g id="qk" transform="rotate(-137,44.875958,81.249531)"><rect id="ql" class="adl" x=".63" y="96.44" width="54.2" height="9.37" transform="translate(-12.12 4.13) rotate(-7)"/></g><g id="qm" transform="rotate(-136,44.875958,81.337847)"><rect id="qn" class="ap`" x=".5" y="95.3" width="54.2" height="9.37" transform="translate(-10.3 3.43) rotate(-6)"/></g><g id="qo" transform="rotate(-135,44.875958,81.426789)"><rect id="qp" class="aos" x=".39" y="94.16" width="54.2" height="9.37" transform="translate(-8.51 2.77) rotate(-5)"/></g><g id="qq" transform="rotate(-134,44.875958,81.516376)"><rect id="qr" class="akd" x=".29" y="93.01" width="54.2" height="9.37" transform="translate(-6.75 2.15) rotate(-4)"/></g><g id="qs" transform="rotate(-133,44.875958,81.606629)"><rect id="qt" class="ant" x=".22" y="91.87" width="54.2" height="9.37" transform="translate(-5.02 1.56) rotate(-3)"/></g><g id="qu" transform="rotate(-132,44.875958,81.69757)"><rect id="qv" class="ann" x=".17" y="90.72" width="54.2" height="9.37" transform="translate(-3.31 1.01) rotate(-2)"/></g><g id="qw" transform="rotate(-131,44.875958,81.78922)"><rect id="qx" class="agk" x=".14" y="89.58" width="54.2" height="9.37" transform="translate(-1.64 .49) rotate(-1)"/></g><g id="qy" transform="rotate(-130,44.875958,81.881603)"><rect id="r`" class="ahp" x=".12" y="88.43" width="54.2" height="9.37"/></g><g id="ra" transform="rotate(-129,44.875958,81.97474)"><rect id="rb" class="aot" x="22.55" y="64.86" width="9.37" height="54.2" transform="translate(-65.19 117.59) rotate(-89)"/></g><g id="rc" transform="rotate(-128,44.875958,82.068655)"><rect id="rd" class="ank" x="22.58" y="63.72" width="9.37" height="54.2" transform="translate(-64.45 114.89) rotate(-88)"/></g><g id="re" transform="rotate(-127,44.875958,82.163374)"><rect id="rf" class="aik" x="22.63" y="62.57" width="9.37" height="54.2" transform="translate(-63.67 112.25) rotate(-87)"/></g><g id="rg" transform="rotate(-126,44.875958,82.258921)"><rect id="rh" class="ae`" x="22.69" y="61.42" width="9.37" height="54.2" transform="translate(-62.84 109.66) rotate(-86)"/></g><g id="ri" transform="rotate(-125,44.875958,82.355321)"><rect id="rj" class="aky" x="22.78" y="60.28" width="9.37" height="54.2" transform="translate(-61.98 107.13) rotate(-85)"/></g><g id="rk" transform="rotate(-124,44.875958,82.4526)"><rect id="rl" class="agm" x="22.89" y="59.14" width="9.37" height="54.2" transform="translate(-61.08 104.65) rotate(-84)"/></g><g id="rm" transform="rotate(-123,44.875958,82.550787)"><rect id="rn" class="ajw" x="23.02" y="58" width="9.37" height="54.2" transform="translate(-60.14 102.22) rotate(-83)"/></g><g id="ro" transform="rotate(-122,44.875958,82.649909)"><rect id="rp" class="ald" x="23.16" y="56.86" width="9.37" height="54.2" transform="translate(-59.17 99.85) rotate(-82)"/></g><g id="rq" transform="rotate(-121,44.875958,82.749994)"><rect id="rr" class="aib" x="23.33" y="55.72" width="9.37" height="54.2" transform="translate(-58.17 97.54) rotate(-81)"/></g><g id="rs" transform="rotate(-120,44.875958,82.851073)"><rect id="rt" class="agf" x="23.52" y="54.59" width="9.37" height="54.2" transform="translate(-57.15 95.28) rotate(-80)"/></g><g id="ru" transform="rotate(-119,44.875958,82.953175)"><rect id="rv" class="adk" x="23.73" y="53.46" width="9.37" height="54.2" transform="translate(-56.1 93.08) rotate(-79)"/></g><g id="rw" transform="rotate(-118,44.875958,83.056333)"><rect id="rx" class="aow" x="23.95" y="52.34" width="9.37" height="54.2" transform="translate(-55.02 90.93) rotate(-78)"/></g><g id="ry" transform="rotate(-117,44.875958,83.160578)"><rect id="s`" class="ahl" x="24.2" y="51.22" width="9.37" height="54.2" transform="translate(-53.93 88.84) rotate(-77)"/></g><g id="sa" transform="rotate(-116,44.875958,83.265944)"><rect id="sb" class="ajb" x="24.46" y="50.1" width="9.37" height="54.2" transform="translate(-52.81 86.81) rotate(-76)"/></g><g id="sc" transform="rotate(-115,44.875958,83.372465)"><rect id="sd" class="adt" x="24.75" y="48.99" width="9.37" height="54.2" transform="translate(-51.68 84.83) rotate(-75)"/></g><g id="se" transform="rotate(-114,44.875958,83.480178)"><rect id="sf" class="ags" x="25.05" y="47.88" width="9.37" height="54.2" transform="translate(-50.54 82.9) rotate(-74)"/></g><g id="sg" transform="rotate(-113,44.875958,83.589118)"><rect id="sh" class="ahk" x="25.38" y="46.78" width="9.37" height="54.2" transform="translate(-49.38 81.03) rotate(-73)"/></g><g id="si" transform="rotate(-112,44.875958,83.699324)"><rect id="sj" class="aem" x="25.72" y="45.69" width="9.37" height="54.2" transform="translate(-48.22 79.21) rotate(-72)"/></g><g id="sk" transform="rotate(-111,44.875958,83.810836)"><rect id="sl" class="aob" x="26.08" y="44.6" width="9.37" height="54.2" transform="translate(-47.04 77.44) rotate(-71)"/></g><g id="sm" transform="rotate(-110,44.875958,83.923693)"><rect id="sn" class="akb" x="26.46" y="43.51" width="9.37" height="54.2" transform="translate(-45.86 75.73) rotate(-70)"/></g><g id="so" transform="rotate(-109,44.875958,84.037937)"><rect id="sp" class="aca" x="26.86" y="42.44" width="9.37" height="54.2" transform="translate(-44.68 74.07) rotate(-69)"/></g><g id="sq" transform="rotate(-108,44.875958,84.153613)"><rect id="sr" class="abo" x="27.28" y="41.37" width="9.37" height="54.2" transform="translate(-43.5 72.46) rotate(-68)"/></g><g id="ss" transform="rotate(-107,44.875958,84.270765)"><rect id="st" class="ang" x="27.72" y="40.31" width="9.37" height="54.2" transform="translate(-42.31 70.9) rotate(-67)"/></g><g id="su" transform="rotate(-106,44.875958,84.38944)"><rect id="sv" class="akt" x="28.17" y="39.26" width="9.37" height="54.2" transform="translate(-41.13 69.38) rotate(-66)"/></g><g id="sw" transform="rotate(-105,44.875958,84.509687)"><rect id="sx" class="aet" x="28.65" y="38.21" width="9.37" height="54.2" transform="translate(-39.95 67.92) rotate(-65)"/></g><g id="sy" transform="rotate(-104,44.875958,84.631554)"><rect id="t`" class="ahq" x="29.14" y="37.17" width="9.37" height="54.2" transform="translate(-38.78 66.5) rotate(-64)"/></g><g id="ta" transform="rotate(-103,44.875958,84.755095)"><rect id="tb" class="afs" x="29.65" y="36.15" width="9.37" height="54.2" transform="translate(-37.61 65.12) rotate(-63)"/></g><g id="tc" transform="rotate(-102,44.875958,84.880363)"><rect id="td" class="aeo" x="30.18" y="35.13" width="9.37" height="54.2" transform="translate(-36.45 63.79) rotate(-62)"/></g><g id="te" transform="rotate(-101,44.875958,85.007414)"><rect id="tf" class="akc" x="30.72" y="34.12" width="9.37" height="54.2" transform="translate(-35.3 62.5) rotate(-61)"/></g><g id="tg" transform="rotate(-100,44.875958,85.136306)"><rect id="th" class="acw" x="31.28" y="33.12" width="9.37" height="54.2" transform="translate(-34.17 61.26) rotate(-60)"/></g><g id="ti" transform="rotate(-99,44.875958,85.2671)"><rect id="tj" class="amt" x="31.86" y="32.13" width="9.37" height="54.2" transform="translate(-33.05 60.05) rotate(-59)"/></g><g id="tk" transform="rotate(-98,44.875958,85.399858)"><rect id="tl" class="afu" x="32.46" y="31.15" width="9.37" height="54.2" transform="translate(-31.94 58.88) rotate(-58)"/></g><g id="tm" transform="rotate(-97,44.875958,85.534646)"><rect id="tn" class="acp" x="33.08" y="30.18" width="9.37" height="54.2" transform="translate(-30.85 57.75) rotate(-57)"/></g><g id="to" transform="rotate(-96,44.875958,85.671531)"><rect id="tp" class="aoo" x="33.71" y="29.22" width="9.37" height="54.2" transform="translate(-29.77 56.65) rotate(-56)"/></g><g id="tq" transform="rotate(-95,44.875958,85.810585)"><rect id="tr" class="adq" x="34.36" y="28.27" width="9.37" height="54.2" transform="translate(-28.71 55.59) rotate(-55)"/></g><g id="ts" transform="rotate(-94,44.875958,85.95188)"><rect id="tt" class="alx" x="35.02" y="27.34" width="9.37" height="54.2" transform="translate(-27.68 54.56) rotate(-54)"/></g><g id="tu" transform="rotate(-93,44.875958,86.095495)"><rect id="tv" class="afb" x="35.7" y="26.41" width="9.37" height="54.2" transform="translate(-26.66 53.56) rotate(-53)"/></g><g id="tw" transform="rotate(-92,44.875958,86.241507)"><rect id="tx" class="aga" x="36.4" y="25.5" width="9.37" height="54.2" transform="translate(-25.66 52.59) rotate(-52)"/></g><g id="ty" transform="rotate(-91,44.875958,86.390002)"><rect id="u`" class="alt" x="37.11" y="24.6" width="9.37" height="54.2" transform="translate(-24.69 51.65) rotate(-51)"/></g><g id="ua" transform="rotate(-90,44.875958,86.541065)"><rect id="ub" class="aha" x="37.84" y="23.72" width="9.37" height="54.2" transform="translate(-23.74 50.73) rotate(-50)"/></g><g id="uc" transform="rotate(-89,44.875958,86.694789)"><rect id="ud" class="amx" x="38.58" y="22.84" width="9.37" height="54.2" transform="translate(-22.81 49.83) rotate(-49)"/></g><g id="ue" transform="rotate(-88,44.875958,86.851267)"><rect id="uf" class="afh" x="39.34" y="21.98" width="9.37" height="54.2" transform="translate(-21.91 48.96) rotate(-48)"/></g><g id="ug" transform="rotate(-87,44.875958,87.010599)"><rect id="uh" class="afe" x="40.11" y="21.13" width="9.37" height="54.2" transform="translate(-21.03 48.1) rotate(-47)"/></g><g id="ui" transform="rotate(-86,44.875958,87.172889)"><rect id="uj" class="ahd" x="40.9" y="20.3" width="9.37" height="54.2" transform="translate(-20.18 47.26) rotate(-46)"/></g><g id="uk" transform="rotate(-85,44.875958,87.338245)"><rect id="ul" class="aff" x="41.7" y="19.48" width="9.37" height="54.2" transform="translate(-19.35 46.44) rotate(-45)"/></g><g id="um" transform="rotate(-84,44.875958,87.506781)"><rect id="un" class="alr" x="42.52" y="18.67" width="9.37" height="54.2" transform="translate(-18.55 45.64) rotate(-44)"/></g><g id="uo" transform="rotate(-83,44.875958,87.678616)"><rect id="up" class="abr" x="43.35" y="17.88" width="9.37" height="54.2" transform="translate(-17.77 44.84) rotate(-43)"/></g><g id="uq" transform="rotate(-82,44.875958,87.853874)"><rect id="ur" class="acj" x="44.2" y="17.1" width="9.37" height="54.2" transform="translate(-17.02 44.06) rotate(-42)"/></g><g id="us" transform="rotate(-81,44.875958,88.032687)"><rect id="ut" class="ajh" x="45.05" y="16.34" width="9.37" height="54.2" transform="translate(-16.3 43.29) rotate(-41)"/></g><g id="uu" transform="rotate(-80,44.875958,88.215192)"><rect id="uv" class="abu" x="45.93" y="15.59" width="9.37" height="54.2" transform="translate(-15.6 42.52) rotate(-40)"/></g><g id="uw" transform="rotate(-79,44.875958,88.401533)"><rect id="ux" class="aie" x="46.81" y="14.86" width="9.37" height="54.2" transform="translate(-14.93 41.76) rotate(-39)"/></g><g id="uy" transform="rotate(-78,44.875958,88.591862)"><rect id="v`" class="aom" x="47.71" y="14.15" width="9.37" height="54.2" transform="translate(-14.29 41) rotate(-38)"/></g><g id="va" transform="rotate(-77,44.875958,88.786338)"><rect id="vb" class="ami" x="48.61" y="13.45" width="9.37" height="54.2" transform="translate(-13.67 40.24) rotate(-37)"/></g><g id="vc" transform="rotate(-76,44.875958,88.985128)"><rect id="vd" class="agb" x="49.54" y="12.76" width="9.37" height="54.2" transform="translate(-13.08 39.48) rotate(-36)"/></g><g id="ve" transform="rotate(-75,44.875958,89.18841)"><rect id="vf" class="aej" x="50.47" y="12.09" width="9.37" height="54.2" transform="translate(-12.51 38.72) rotate(-35)"/></g><g id="vg" transform="rotate(-74,44.875958,89.396368)"><rect id="vh" class="amw" x="51.41" y="11.44" width="9.37" height="54.2" transform="translate(-11.96 37.96) rotate(-34)"/></g><g id="vi" transform="rotate(-73,44.875958,89.6092)"><rect id="vj" class="akq" x="52.37" y="10.81" width="9.37" height="54.2" transform="translate(-11.44 37.19) rotate(-33)"/></g><g id="vk" transform="rotate(-72,44.875958,89.827111)"><rect id="vl" class="aof" x="53.34" y="10.19" width="9.37" height="54.2" transform="translate(-10.94 36.41) rotate(-32)"/></g><g id="vm" transform="rotate(-71,44.875958,90.050321)"><rect id="vn" class="ado" x="54.31" y="9.59" width="9.37" height="54.2" transform="translate(-10.47 35.63) rotate(-31)"/></g><g id="vo" transform="rotate(-70,44.875958,90.279061)"><rect id="vp" class="ajl" x="55.3" y="9" width="9.37" height="54.2" transform="translate(-10.02 34.83) rotate(-30)"/></g><g id="vq" transform="rotate(-69,44.875958,90.513574)"><rect id="vr" class="amj" x="56.3" y="8.43" width="9.37" height="54.2" transform="translate(-9.58 34.02) rotate(-29)"/></g><g id="vs" transform="rotate(-68,44.875958,90.75412)"><rect id="vt" class="alg" x="57.3" y="7.89" width="9.37" height="54.2" transform="translate(-9.17 33.2) rotate(-28)"/></g><g id="vu" transform="rotate(-67,44.875958,91.000971)"><rect id="vv" class="aes" x="58.32" y="7.35" width="9.37" height="54.2" transform="translate(-8.77 32.36) rotate(-27)"/></g><g id="vw" transform="rotate(-66,44.875958,91.254419)"><rect id="vx" class="aew" x="59.35" y="6.84" width="9.37" height="54.2" transform="translate(-8.4 31.5) rotate(-26)"/></g><g id="vy" transform="rotate(-65,44.875958,91.514771)"><rect id="w`" class="adv" x="60.38" y="6.34" width="9.37" height="54.2" transform="translate(-8.04 30.63) rotate(-25)"/></g><g id="wa" transform="rotate(-64,44.875958,91.782355)"><rect id="wb" class="afg" x="61.43" y="5.86" width="9.37" height="54.2" transform="translate(-7.69 29.74) rotate(-24)"/></g><g id="wc" transform="rotate(-63,44.875958,92.05752)"><rect id="wd" class="abv" x="62.48" y="5.4" width="9.37" height="54.2" transform="translate(-7.36 28.83) rotate(-23)"/></g><g id="we" transform="rotate(-62,44.875958,92.340634)"><rect id="wf" class="aoh" x="63.54" y="4.96" width="9.37" height="54.2" transform="translate(-7.04 27.89) rotate(-22)"/></g><g id="wg" transform="rotate(-61,44.875958,92.632094)"><rect id="wh" class="adm" x="64.6" y="4.54" width="9.37" height="54.2" transform="translate(-6.74 26.93) rotate(-21)"/></g><g id="wi" transform="rotate(-60,44.875958,92.93232)"><rect id="wj" class="adp" x="65.68" y="4.14" width="9.37" height="54.2" transform="translate(-6.44 25.95) rotate(-20)"/></g><g id="wk" transform="rotate(-59,44.875958,93.241761)"><rect id="wl" class="adc" x="66.76" y="3.75" width="9.37" height="54.2" transform="translate(-6.15 24.94) rotate(-19)"/></g><g id="wm" transform="rotate(-58,44.875958,93.560897)"><rect id="wn" class="anf" x="67.85" y="3.39" width="9.37" height="54.2" transform="translate(-5.87 23.9) rotate(-18)"/></g><g id="wo" transform="rotate(-57,44.875958,93.890243)"><rect id="wp" class="abs" x="68.94" y="3.04" width="9.37" height="54.2" transform="translate(-5.59 22.84) rotate(-17)"/></g><g id="wq" transform="rotate(-56,44.875958,94.23035)"><rect id="wr" class="aph" x="70.04" y="2.71" width="9.37" height="54.2" transform="translate(-5.32 21.75) rotate(-16)"/></g><g id="ws" transform="rotate(-55,44.875958,94.581806)"><rect id="wt" class="acb" x="71.14" y="2.4" width="9.37" height="54.2" transform="translate(-5.05 20.63) rotate(-15)"/></g><g id="wu" transform="rotate(-54,44.875958,94.945248)"><rect id="wv" class="ahh" x="72.25" y="2.11" width="9.37" height="54.2" transform="translate(-4.78 19.48) rotate(-14)"/></g><g id="ww" transform="rotate(-53,44.875958,95.321356)"><rect id="wx" class="amb" x="73.37" y="1.84" width="9.37" height="54.2" transform="translate(-4.51 18.3) rotate(-13)"/></g><g id="wy" transform="rotate(-52,44.875958,95.710864)"><rect id="x`" class="ahm" x="74.49" y="1.59" width="9.37" height="54.2" transform="translate(-4.24 17.09) rotate(-12)"/></g><g id="xa" transform="rotate(-51,44.875958,96.114566)"><rect id="xb" class="alk" x="75.61" y="1.36" width="9.37" height="54.2" transform="translate(-3.96 15.84) rotate(-11)"/></g><g id="xc" transform="rotate(-50,44.875958,96.533315)"><rect id="xd" class="ajj" x="76.74" y="1.15" width="9.37" height="54.2" transform="translate(-3.67 14.57) rotate(-10)"/></g><g id="xe" transform="rotate(-49,44.875958,96.968037)"><rect id="xf" class="anr" x="77.87" y=".96" width="9.37" height="54.2" transform="translate(-3.37 13.26) rotate(-9)"/></g><g id="xg" transform="rotate(-48,44.875958,97.419733)"><rect id="xh" class="ahi" x="79.01" y=".78" width="9.37" height="54.2" transform="translate(-3.07 11.92) rotate(-8)"/></g><g id="xi" transform="rotate(-47,44.875958,97.889491)"><rect id="xj" class="aol" x="80.14" y=".63" width="9.37" height="54.2" transform="translate(-2.75 10.54) rotate(-7)"/></g><g id="xk" transform="rotate(-46,44.875958,98.378491)"><rect id="xl" class="afr" x="81.28" y=".5" width="9.37" height="54.2" transform="translate(-2.41 9.14) rotate(-6)"/></g><g id="xm" transform="rotate(-45,44.875958,98.88802)"><rect id="xn" class="acv" x="82.43" y=".39" width="9.37" height="54.2" transform="translate(-2.06 7.7) rotate(-5)"/></g><g id="xo" transform="rotate(-44,44.875958,99.419482)"><rect id="xp" class="acg" x="83.57" y=".29" width="9.37" height="54.2" transform="translate(-1.7 6.22) rotate(-4)"/></g><g id="xq" transform="rotate(-43,44.875958,99.974409)"><rect id="xr" class="abq" x="84.72" y=".22" width="9.37" height="54.2" transform="translate(-1.31 4.72) rotate(-3)"/></g><g id="xs" transform="rotate(-42,44.875958,100.55448)"><rect id="xt" class="ake" x="85.86" y=".17" width="9.37" height="54.2" transform="translate(-.9 3.18) rotate(-2)"/></g><g id="xu" transform="rotate(-41,44.875958,101.16154)"><rect id="xv" class="alm" x="87.01" y=".14" width="9.37" height="54.2" transform="translate(-.46 1.6) rotate(-1)"/></g><g id="xw" transform="rotate(-40,44.875958,101.79762)"><rect id="xx" class="aor" x="88.16" y=".12" width="9.37" height="54.2"/></g><g id="xy" transform="rotate(-39,44.875958,102.46495)"><rect id="y`" class="aja" x="66.89" y="22.55" width="54.2" height="9.37" transform="translate(65.12 120.73) rotate(-89)"/></g><g id="ya" transform="rotate(-38,44.875958,103.166)"><rect id="yb" class="afl" x="68.03" y="22.58" width="54.2" height="9.37" transform="translate(64.57 121.39) rotate(-88)"/></g><g id="yc" transform="rotate(-37,44.875958,103.90351)"><rect id="yd" class="aj`" x="69.18" y="22.63" width="54.2" height="9.37" transform="translate(63.97 122.03) rotate(-87)"/></g><g id="ye" transform="rotate(-36,44.875958,104.68052)"><rect id="yf" class="acf" x="70.33" y="22.69" width="54.2" height="9.37" transform="translate(63.32 122.66) rotate(-86)"/></g><g id="yg" transform="rotate(-35,44.875958,105.50042)"><rect id="yh" class="ajy" x="71.47" y="22.78" width="54.2" height="9.37" transform="translate(62.62 123.27) rotate(-85)"/></g><g id="yi" transform="rotate(-34,44.875958,106.36701)"><rect id="yj" class="afx" x="72.61" y="22.89" width="54.2" height="9.37" transform="translate(61.87 123.86) rotate(-84)"/></g><g id="yk" transform="rotate(-33,44.875958,107.28451)"><rect id="yl" class="afw" x="73.75" y="23.02" width="54.2" height="9.37" transform="translate(61.07 124.43) rotate(-83)"/></g><g id="ym" transform="rotate(-32,44.875958,108.25772)"><rect id="yn" class="aia" x="74.89" y="23.16" width="54.2" height="9.37" transform="translate(60.22 124.97) rotate(-82)"/></g><g id="yo" transform="rotate(-31,44.875958,109.29203)"><rect id="yp" class="ajk" x="76.03" y="23.33" width="54.2" height="9.37" transform="translate(59.32 125.49) rotate(-81)"/></g><g id="yq" transform="rotate(-30,44.875958,110.39355)"><rect id="yr" class="age" x="77.16" y="23.52" width="54.2" height="9.37" transform="translate(58.38 125.98) rotate(-80)"/></g><g id="ys" transform="rotate(-29,44.875958,111.56924)"><rect id="yt" class="afn" x="78.29" y="23.73" width="54.2" height="9.37" transform="translate(57.39 126.44) rotate(-79)"/></g><g id="yu" transform="rotate(-28,44.875958,112.82704)"><rect id="yv" class="anm" x="79.41" y="23.95" width="54.2" height="9.37" transform="translate(56.36 126.87) rotate(-78)"/></g><g id="yw" transform="rotate(-27,44.875958,114.17608)"><rect id="yx" class="ajg" x="80.53" y="24.2" width="54.2" height="9.37" transform="translate(55.28 127.26) rotate(-77)"/></g><g id="yy" transform="rotate(-26,44.875958,115.6269)"><rect id="a``" class="amu" x="81.65" y="24.46" width="54.2" height="9.37" transform="translate(54.16 127.62) rotate(-76)"/></g><g id="a`a" transform="rotate(-25,44.875958,117.19171)"><rect id="a`b" class="aeu" x="82.76" y="24.75" width="54.2" height="9.37" transform="translate(53 127.93) rotate(-75)"/></g><g id="a`c" transform="rotate(-24,44.875958,118.88477)"><rect id="a`d" class="ach" x="83.87" y="25.05" width="54.2" height="9.37" transform="translate(51.8 128.21) rotate(-74)"/></g><g id="a`e" transform="rotate(-23,44.875958,120.7228)"><rect id="a`f" class="acq" x="84.97" y="25.38" width="54.2" height="9.37" transform="translate(50.56 128.44) rotate(-73)"/></g><g id="a`g" transform="rotate(-22,44.875958,122.72557)"><rect id="a`h" class="agc" x="86.06" y="25.72" width="54.2" height="9.37" transform="translate(49.28 128.63) rotate(-72)"/></g><g id="a`i" transform="rotate(-21,44.875958,124.91664)"><rect id="a`j" class="afm" x="87.15" y="26.08" width="54.2" height="9.37" transform="translate(47.97 128.78) rotate(-71)"/></g><g id="a`k" transform="rotate(-20,44.875958,127.32423)"><rect id="a`l" class="ag`" x="88.23" y="26.46" width="54.2" height="9.37" transform="translate(46.62 128.87) rotate(-70)"/></g><g id="a`m" transform="rotate(-19,44.875958,129.98255)"><rect id="a`n" class="aka" x="89.31" y="26.86" width="54.2" height="9.37" transform="translate(45.24 128.92) rotate(-69)"/></g><g id="a`o" transform="rotate(-18,44.875958,132.93339)"><rect id="a`p" class="abw" x="90.38" y="27.28" width="54.2" height="9.37" transform="translate(43.84 128.91) rotate(-68)"/></g><g id="a`q" transform="rotate(-17,44.875958,136.22836)"><rect id="a`r" class="add" x="91.44" y="27.72" width="54.2" height="9.37" transform="translate(42.4 128.86) rotate(-67)"/></g><g id="a`s" transform="rotate(-16,44.875958,139.93201)"><rect id="a`t" class="afa" x="92.49" y="28.17" width="54.2" height="9.37" transform="translate(40.94 128.75) rotate(-66)"/></g><g id="a`u" transform="rotate(-15,44.875958,144.12606)"><rect id="a`v" class="aio" x="93.54" y="28.65" width="54.2" height="9.37" transform="translate(39.45 128.58) rotate(-65)"/></g><g id="a`w" transform="rotate(-14,44.875958,148.91561)"><rect id="a`x" class="ada" x="94.57" y="29.14" width="54.2" height="9.37" transform="translate(37.94 128.36) rotate(-64)"/></g><g id="a`y" transform="rotate(-13,44.875958,154.43808)"><rect id="aa`" class="adx" x="95.6" y="29.65" width="54.2" height="9.37" transform="translate(36.41 128.08) rotate(-63)"/></g><g id="aaa" transform="rotate(-12,44.875958,160.87671)"><rect id="aab" class="acd" x="96.62" y="30.18" width="54.2" height="9.37" transform="translate(34.86 127.73) rotate(-62)"/></g><g id="aac" transform="rotate(-11,44.875958,168.48136)"><rect id="aad" class="anv" x="97.63" y="30.72" width="54.2" height="9.37" transform="translate(33.3 127.33) rotate(-61)"/></g><g id="aae" transform="rotate(-10,44.875958,177.60184)"><rect id="aaf" class="adu" x="98.63" y="31.28" width="54.2" height="9.37" transform="translate(31.72 126.87) rotate(-60)"/></g><g id="aag" transform="rotate(-9,44.875958,188.74344)"><rect id="aah" class="akp" x="99.62" y="31.86" width="54.2" height="9.37" transform="translate(30.13 126.35) rotate(-59)"/></g><g id="aai" transform="rotate(-8,44.875958,202.66407)"><rect id="aaj" class="aii" x="100.6" y="32.46" width="54.2" height="9.37" transform="translate(28.53 125.76) rotate(-58)"/></g><g id="aak" transform="rotate(-7,44.875958,220.55475)"><rect id="aal" class="acl" x="101.57" y="33.08" width="54.2" height="9.37" transform="translate(26.92 125.11) rotate(-57)"/></g><g id="aam" transform="rotate(-6,44.875958,244.40052)"><rect id="aan" class="aih" x="102.53" y="33.71" width="54.2" height="9.37" transform="translate(25.31 124.39) rotate(-56)"/></g><g id="aao" transform="rotate(-5,44.875958,277.77442)"><rect id="aap" class="anp" x="103.48" y="34.36" width="54.2" height="9.37" transform="translate(23.7 123.61) rotate(-55)"/></g><g id="aaq" transform="rotate(-4,44.875958,327.82257)"><rect id="aar" class="all" x="104.41" y="35.02" width="54.2" height="9.37" transform="translate(22.09 122.76) rotate(-54)"/></g><g id="aas" transform="rotate(-3,44.875958,411.21921)"><rect id="aat" class="alf" x="105.33" y="35.7" width="54.2" height="9.37" transform="translate(20.48 121.85) rotate(-53)"/></g><g id="aau" transform="rotate(-2,44.875958,577.98708)"><rect id="aav" class="ahf" x="106.25" y="36.4" width="54.2" height="9.37" transform="translate(18.88 120.87) rotate(-52)"/></g><g id="aaw" transform="rotate(-1,44.875958,1078.2399)"><rect id="aax" class="anx" x="107.15" y="37.11" width="54.2" height="9.37" transform="translate(17.28 119.82) rotate(-51)"/></g></g></g><g id="aay" transform="translate(-0.0232537,-44.297248)"><g id="ab`" transform="matrix(1.0324977,0,0,1.0324977,-1.0437923,44.339431)"><path id="aba" class="aks" d="M95.72,182.72h-5.32c-.25-.09-.49-.11-.74-.11-2.84-.13-5.66-.36-8.46-.74-5.23-.68-10.37-1.83-15.38-3.43-8.59-2.75-16.59-6.69-24.01-11.83-6.88-4.78-12.96-10.41-18.26-16.9-6.25-7.62-11.12-16.03-14.57-25.27-3.09-8.2-4.94-16.7-5.5-25.47,0-.47-.09-.95-.25-1.42v-9.26c.16-.41,.22-.83,.25-1.26,.11-2.1,.34-4.19,.61-6.27,1.35-10.01,4.33-19.5,8.91-28.49,3.16-6.2,6.99-11.97,11.5-17.29,4.46-5.27,9.47-9.99,15.01-14.11,9.04-6.72,18.98-11.56,29.85-14.54,5.28-1.44,10.67-2.39,16.12-2.84,.97-.09,1.99,0,2.95-.25h9.11c.7,.2,1.42,.09,2.12,.16,3.61,.31,7.19,.77,10.75,1.47,11.21,2.21,21.6,6.4,31.2,12.6,7.46,4.8,14.05,10.59,19.8,17.33,4.62,5.41,8.54,11.29,11.75,17.65,3.79,7.51,6.49,15.37,8.03,23.64,.81,4.37,1.42,8.79,1.44,13.25,0,.3,.07,.61,.09,.9v5.32c-.09,.34-.09,.7-.11,1.06,0,.86,0,1.71-.07,2.57-.41,5.46-1.26,10.84-2.62,16.16-2.59,9.99-6.77,19.25-12.56,27.79-4.31,6.36-9.33,12.08-15.11,17.15-5.75,5.05-12.04,9.31-18.87,12.76-7.87,3.97-16.14,6.72-24.82,8.23-3.34,.59-6.7,.97-10.08,1.17-.89,.1-1.84,.08-2.76,.28h0Z"/><g id="abb"><path id="abd" class="aei" d="M69.63,55.74c-.06,1.65,.23,3.45,.72,5.25,.93,3.43,2.46,6.57,4.27,9.54,4.12,6.75,9.31,12.53,14.95,17.9,.46,.44,1.01,.81,1.6,1.1,.59,.31,1.18,.31,1.79,.04,.59-.26,1.11-.64,1.56-1.12,1.96-2.02,3.89-4.05,5.74-6.14,2.61-2.97,5.09-6.02,7.34-9.3,2.04-2.97,3.87-6.09,5.21-9.48,1.34-3.37,2-6.84,1.56-10.49-.74-6.02-3.2-11.13-7.59-15.13-5.2-4.72-11.25-6.62-18.06-5.56-11.08,1.72-19.11,11.92-19.07,23.38h0Z"/><path id="abf" class="aby" d="M126.98,137.84c-1.39,.04-2.96-.13-4.53-.46-4.63-1.01-8.57-3.12-11.59-6.85-1.84-2.28-3.38-4.74-4.72-7.34-1.57-3.06-2.88-6.24-4.02-9.47-1.39-3.9-2.58-7.89-3.49-11.92-.51-2.26,.06-3.67,2.56-4.45,3.17-.99,6.37-1.88,9.62-2.6,5.39-1.18,10.83-1.94,16.37-1.75,1.57,.06,3.13,.23,4.67,.51,4.48,.78,8.29,2.85,11.4,6.12,5.31,5.57,7.42,12.21,6.11,19.78-1.88,10.82-11.48,18.52-22.4,18.43Z"/><path id="abh" class="akl" d="M57.14,137.84c1.39,.04,2.96-.13,4.53-.46,4.63-1.01,8.57-3.12,11.59-6.85,1.84-2.28,3.38-4.74,4.72-7.34,1.57-3.06,2.88-6.24,4.02-9.47,1.39-3.9,2.58-7.89,3.49-11.92,.51-2.26-.06-3.67-2.56-4.45-3.17-.99-6.37-1.88-9.62-2.6-5.39-1.18-10.83-1.94-16.37-1.75-1.57,.06-3.13,.23-4.67,.51-4.48,.78-8.29,2.85-11.4,6.12-5.31,5.57-7.42,12.21-6.11,19.78,1.88,10.82,11.48,18.52,22.4,18.43Z"/></g></g></g></g></g></g></svg>