<?xml version="1.0" encoding="UTF-8"?><svg xmlns="http://www.w3.org/2000/svg" viewBox="0 0 265.77 265.06"><defs><style>.d{fill:#6b0022;}.e{fill:#020202;}.f{fill:none;}</style></defs><g id="a"/><g id="b"><g id="c"><g><g><path class="e" d="M198.88,91.24c18.24,.02,33.1-14.58,33.14-32.56,.05-18.35-14.56-33.17-32.76-33.22-18.25-.05-33,14.69-33.02,32.98-.02,17.92,14.77,32.78,32.64,32.8Zm.07-56.38c13.03-.08,23.61,10.34,23.67,23.31,.06,13.06-10.37,23.66-23.31,23.68-13.1,.02-23.55-10.27-23.67-23.31-.12-12.98,10.33-23.61,23.31-23.68Z"/><path class="e" d="M41.18,120.54c0-1.15-.18-2-1.27-2.68-8.73-5.55-17.42-11.16-26.14-16.73-.12-.08-.35-.01-.69-.01v74.47c6.18-3.95,12.06-7.72,17.93-11.48,2.88-1.84,5.75-3.7,8.66-5.49,1.11-.69,1.53-1.51,1.53-2.85-.06-11.75-.05-23.49-.02-35.23Z"/><path class="e" d="M199.32,70.07c6.46-.06,11.7-5.55,11.55-12.09-.15-6.27-5.61-11.46-11.93-11.35-6.36,.11-11.53,5.38-11.52,11.74,.01,6.56,5.3,11.76,11.9,11.7Z"/><path class="e" d="M239.59,93.48H87.11c-2.35,0-4.54,.23-5.39,2.94-.38,.3-.58,.67-.45,1.17-.02,6.66-.04,13.32-.05,19.98-.16,5.49-.32,10.97,.01,16.47-.03,14.58-.09,29.17-.08,43.76,.01,3.1,1.87,4.84,4.95,5.01,.59,.03,1.18,0,1.77,0H238.59c5.84,0,7.09-1.24,7.09-6.99,0-25.37,0-50.73,0-76.1,0-4.63-1.54-6.24-6.1-6.24ZM96.27,176.91c-5.37-.07-9.46-4.4-9.25-9.79,.19-5.04,4.42-9.02,9.51-8.95,5.38,.08,9.44,4.38,9.23,9.8-.19,5.14-4.3,9-9.49,8.94Zm25.87,0c-5.37-.07-9.46-4.4-9.26-9.79,.19-5.04,4.42-9.02,9.51-8.95,5.39,.08,9.44,4.38,9.24,9.8-.2,5.14-4.3,9-9.49,8.94Zm25.86,0c-5.36-.07-9.46-4.4-9.25-9.79,.19-5.04,4.42-9.02,9.51-8.95,5.39,.08,9.44,4.38,9.23,9.8-.19,5.14-4.3,9-9.49,8.94Z"/><path class="e" d="M120.03,91.24c24.75,.04,44.91-19.82,44.96-44.27,.04-24.88-19.84-45-44.5-45.02-24.77-.02-44.75,19.92-44.8,44.71-.05,24.38,20.02,44.55,44.34,44.58Zm-.2-79.28c19.22-.18,34.99,15.07,35.15,34.01,.17,19.51-15.09,35.18-34.34,35.27-19.21,.08-34.82-15.22-34.94-34.24-.12-19.25,15.08-34.86,34.13-35.04Z"/><path class="e" d="M59.24,119.38c-1.68-.21-3.44-.04-5.79-.63-4.12-.59-3.04,.72-2.97,3.81,.23,9.98,.09,19.98,.09,29.96q0,4.43,4.39,4.43c3.67,0,11.42,.27,16.76,.77-.01-12.76,0-25.52,0-38.28-5.01,.3-11.11,.11-12.48-.06Z"/><path class="d" d="M120.42,67.36c11.46,.01,20.76-9.45,20.68-21.06-.08-11.07-9.39-20.42-20.4-20.48-11.61-.07-21.09,9.2-21.11,20.65-.03,11.55,9.27,20.88,20.83,20.89Z"/></g><ellipse class="f" cx="132.88" cy="132.53" rx="132.88" ry="132.53"/></g></g></g></svg>