<?xml version="1.0" encoding="UTF-8"?><svg xmlns="http://www.w3.org/2000/svg" viewBox="0 0 193.09 193.09"><defs><style>.d{fill:#103062;}.e{fill:#0e47a0;}.f{fill:#184283;}.g{fill:none;}.h{fill:#69b6f7;}.i{fill:#43a4f4;}</style></defs><g id="a"/><g id="b"><g id="c"><g><g><path class="h" d="M138.96,10.57c-3.98,3.94-7.64,7.53-11.27,11.16C94.3,55.1,60.91,88.46,27.56,121.86c-.99,.99-1.49,.93-2.43-.01-8.1-8.17-16.25-16.29-24.4-24.41-.74-.74-.83-1.13,0-1.94,4.79-4.71,9.49-9.51,14.24-14.26,3.77-3.77,7.59-7.48,11.36-11.25,3.59-3.58,7.13-7.21,10.71-10.79,3.84-3.83,7.72-7.63,11.55-11.46,2.93-2.93,5.8-5.92,8.72-8.86,3.44-3.45,6.91-6.86,10.36-10.29,5.74-5.71,11.49-11.41,17.21-17.14,.66-.66,1.32-.99,2.29-.99,16.7,.03,33.39,.02,50.09,.03,.4,0,.79,.04,1.7,.09Z"/><path class="h" d="M66.26,109.69c.81-1.4,2.1-2.36,3.21-3.48,5.13-5.18,10.31-10.31,15.45-15.49,.62-.62,1.23-.95,2.14-.95,16.85,.02,33.7,.01,50.55,.02,.29,0,.61-.12,.88,.17,0,.64-.52,.95-.9,1.34-10.88,10.88-21.76,21.77-32.65,32.64-3.77,3.76-7.58,7.49-11.37,11.24-.32,.32-.53,.74-.8,1.12-.1,.01-.2,0-.3-.04-1.28-1.37-2.52-2.79-3.85-4.11-6.11-6.09-12.28-12.13-18.36-18.25-1.36-1.37-2.94-2.55-4.01-4.2Z"/><path class="e" d="M135.38,179.16l.29,.28c.22,1.17,1.41,1.68,1.86,2.81h-.91c-8.21,0-16.42,0-24.62,0-8,0-16.01,0-24.01,0-.86,0-1.53-.01-2.17-.96-.53-.78-1.42-1.73-2.71-1.63l-.03-.03c.21-.58,0-.77-.58-.61h.02c.02-.25-.09-.36-.33-.33h-.01c-.18-1.22-1.81-2.86-3.06-3.08h.02c.04-.36-.21-.42-.49-.46h0c-.04-.28-.09-.55-.48-.45v0c.19-.58-.03-.77-.6-.62h.03c.02-.25-.09-.35-.33-.33h-.01c.04-1.06-.42-1.6-1.54-1.49l-.04-.04c.11-1.11-.43-1.58-1.5-1.54l.03-.12v.12c.04-.38-.22-.44-.49-.47h0l-.31-.3h0c-.03-.48,0-1.02-.76-.77h.02c.02-.26-.09-.36-.33-.33h-.01c.04-1.06-.42-1.61-1.54-1.48l-.04-.04c.13-1.12-.43-1.57-1.49-1.55h0c.15-.78-.12-1.12-.94-.88l-.03-.04c.37-.81,0-1.09-.77-1.1l-.34-1.07c.52-.45,1.05,.34,1.6-.14,1.19-1.06,2.74-1.54,4.18-1.98,3.21-1,6.22-2.51,9.4-3.56,.25,0,.48-.06,.61-.3,.34-.02,.7,.04,.92-.32,1.83-.51,3.88-.43,5.28-2.07,.12-.14,.49-.06,.74-.09,.66-.06,3.68-2.77,3.79-3.41,.03-.14,.01-.32-.04-.45-.38-.94,.07-2-.25-2.87-.59-1.56,1.58-3.13-.13-4.64-.22-.19,.25-.66,.53-.83,.89-.54,1.05-1.16,.4-1.98-.17-.22-.53-.47-.21-.77,.35-.32,.66-.01,.92,.23,.48,.45,.9,1.02,1.7,.79l-.04-.02c.12,.12,.23,.23,.35,.35l-.02-.03c-.66,1.09,.55,1.22,.95,1.7,.65,.76,1.12,1.9,2.46,1.71l-.02-.02c.02,.81,.26,1.41,1.26,1.25l-.04-.02c.12,.12,.23,.23,.35,.35l-.04-.04c.12,.12,.25,.24,.37,.36l.24,.23,.36,.38-.02-.04c-.15,.98,.26,1.4,1.25,1.25l-.03-.02c.12,.11,.23,.23,.35,.34l-.03-.03c-.05,.68,.26,1.01,.95,.94l-.02-.02c-.01,.84,.41,1.26,1.25,1.26l-.04-.03c.12,.12,.23,.23,.35,.35l-.04-.04c.12,.12,.25,.24,.37,.36l.24,.24c-.09,.81,.57,1.16,1.03,1.61,4.89,4.9,9.78,9.8,14.68,14.69,3.62,3.62,7.24,7.24,10.87,10.86,.42,.42,.75,1.01,1.48,.99Z"/><path class="i" d="M66.26,109.69c1.08,1.65,2.65,2.83,4.01,4.2,6.08,6.12,12.25,12.16,18.36,18.25,1.33,1.33,2.57,2.74,3.85,4.11-2.76,2.8-5.52,5.59-8.29,8.39-.35,.29-.74,.55-1.06,.87-3.48,3.48-6.94,6.98-10.43,10.45-2.21,2.2-4.47,4.35-6.71,6.52-3.72-3.67-7.45-7.33-11.16-11.01-4.76-4.74-9.49-9.51-14.27-14.24-.73-.72-.87-1.21-.08-1.99,8.43-8.4,16.83-16.83,25.25-25.24,.14-.14,.35-.21,.52-.31Z"/><path class="f" d="M84.19,144.64c2.76-2.8,5.52-5.59,8.29-8.39,.1,.04,.19,.05,.3,.04,1.27,1.33,2.53,2.65,3.8,3.98-.79,.22-1.22-.34-1.7-.79-.26-.24-.57-.55-.92-.23-.32,.29,.04,.55,.21,.77,.66,.83,.49,1.45-.4,1.98-.28,.17-.75,.63-.53,.83,1.72,1.51-.46,3.08,.13,4.64,.33,.86-.13,1.92,.25,2.87,.05,.13,.07,.31,.04,.45-.11,.64-3.13,3.34-3.79,3.41-.25,.02-.62-.05-.74,.09-1.4,1.64-3.45,1.56-5.28,2.07,.01-.48-.02-.96-.52-1.17-.98-.42-.89-1.12-.72-2,.67-3.33,1.84-6.4,4.23-8.91,.18-.18,.41-.42,.24-.65-.22-.3-.57-.2-.8,.02-.59,.57-1.15,1.18-2.1,1.01Z"/><path class="d" d="M84.19,144.64c.94,.17,1.5-.44,2.1-1.01,.24-.23,.58-.33,.8-.02,.17,.24-.07,.47-.24,.65-2.39,2.51-3.56,5.58-4.23,8.91-.18,.88-.27,1.58,.72,2,.5,.22,.54,.7,.52,1.17-.22,.36-.59,.3-.92,.32-.49-.47-.56-.1-.61,.3-3.18,1.05-6.19,2.55-9.4,3.56-1.44,.45-2.99,.93-4.18,1.98-.54,.48-1.08-.31-1.6,.14,.11,.34,.23,.71,.34,1.07-.08,0-.17,0-.25,.01-.45-.38-1.06-.61-1.25-1.26,2.24-2.17,4.5-4.32,6.71-6.52,3.49-3.47,6.95-6.97,10.43-10.45,.32-.32,.7-.58,1.06-.87Z"/><path class="f" d="M135.38,179.16c-.73,.02-1.06-.57-1.48-.99-3.63-3.61-7.25-7.24-10.87-10.86-4.89-4.89-9.79-9.79-14.68-14.69-.45-.45-1.12-.8-1.03-1.61,3.64,3.59,7.3,7.17,10.93,10.78,5.37,5.35,10.72,10.72,16.08,16.08,.39,.39,.9,.7,1.05,1.29Z"/><path class="f" d="M83.1,179.65c1.29-.1,2.18,.85,2.71,1.63,.64,.95,1.3,.96,2.17,.96,8,0,16.01,0,24.01,0,8.21,0,16.42,0,24.62,0h.91c-.45-1.13-1.64-1.65-1.86-2.81,1.26,.7,2.01,1.92,3.29,3.12h-2.12c-15.85,0-31.71-.09-47.56,.09-2.81,.03-4.64-.91-6.18-2.98Z"/><path class="f" d="M100.27,143.97c-1.34,.19-1.81-.94-2.46-1.71-.4-.48-1.61-.61-.95-1.7,1.26,1.01,2.38,2.16,3.41,3.41Z"/><path class="f" d="M79.11,175.6c1.26,.22,2.88,1.85,3.06,3.08-1.11-.94-2.14-1.95-3.06-3.08Z"/><path class="f" d="M69.24,165.74c1.05-.02,1.62,.43,1.49,1.55-.5-.52-.99-1.03-1.49-1.55Z"/><path class="f" d="M70.77,167.33c1.12-.13,1.57,.42,1.54,1.49-.51-.5-1.02-.99-1.54-1.49Z"/><path class="f" d="M74.17,170.68c1.07-.04,1.61,.43,1.5,1.54-.5-.51-1-1.02-1.5-1.54Z"/><path class="f" d="M75.7,172.26c1.11-.12,1.58,.43,1.54,1.49-.51-.5-1.02-1-1.54-1.49Z"/><path class="f" d="M101.5,145.2c-.99,.16-1.23-.44-1.26-1.25,.54,.3,.95,.72,1.26,1.25Z"/><path class="f" d="M103.97,147.66c-.99,.15-1.4-.27-1.25-1.25,.56,.28,.93,.74,1.25,1.25Z"/><path class="f" d="M106.44,150.13c-.84,0-1.26-.41-1.25-1.26,.54,.3,.95,.72,1.25,1.26Z"/><path class="f" d="M67.24,163.73c.08,0,.17-.01,.25-.01,.76,.01,1.14,.29,.77,1.1-.34-.36-.68-.73-1.03-1.09Z"/><path class="f" d="M105.21,148.89c-.69,.06-1-.26-.95-.94,.41,.21,.74,.52,.95,.94Z"/><path class="f" d="M68.3,164.86c.81-.25,1.08,.09,.94,.88-.31-.29-.62-.58-.94-.88Z"/><path class="f" d="M72.62,169.14c.77-.25,.73,.29,.76,.77-.35-.16-.59-.43-.76-.77Z"/><path class="f" d="M77.55,174.07c.57-.15,.78,.04,.58,.62-.19-.21-.39-.41-.58-.62Z"/><path class="f" d="M82.48,179.01c.57-.16,.79,.03,.58,.61-.19-.2-.39-.41-.58-.61Z"/><path class="f" d="M73.7,170.21c.28,.04,.54,.09,.48,.47-.16-.16-.32-.31-.48-.47Z"/><path class="f" d="M78.15,174.69c.39-.1,.44,.17,.48,.45l-.48-.45Z"/><path class="f" d="M78.64,175.14c.28,.04,.53,.1,.49,.47-.16-.15-.33-.31-.49-.47Z"/><path class="f" d="M96.88,140.59c-.12-.12-.23-.23-.35-.35,.12,.12,.23,.23,.35,.35Z"/><path class="f" d="M101.82,145.52c-.12-.12-.23-.23-.35-.35,.12,.12,.23,.23,.35,.35Z"/><path class="f" d="M102.15,145.84c-.12-.12-.25-.24-.37-.36,.12,.12,.25,.24,.37,.36Z"/><path class="f" d="M102.75,146.45l-.36-.38,.36,.38Z"/><path class="f" d="M104.29,147.99c-.12-.11-.23-.23-.35-.34,.12,.11,.23,.23,.35,.34Z"/><path class="f" d="M106.75,150.45c-.12-.12-.23-.23-.35-.35,.12,.12,.23,.23,.35,.35Z"/><path class="f" d="M107.08,150.77c-.12-.12-.25-.24-.37-.36,.12,.12,.25,.24,.37,.36Z"/><path class="f" d="M72.31,168.81c.24-.03,.35,.08,.33,.32-.11-.11-.22-.21-.33-.32Z"/><path class="f" d="M73.38,169.91l.31,.3-.31-.3Z"/><path class="f" d="M77.25,173.74c.24-.03,.35,.08,.33,.32-.11-.11-.22-.21-.33-.32Z"/><path class="f" d="M82.18,178.68c.24-.03,.35,.08,.33,.32-.11-.11-.22-.21-.33-.32Z"/><path class="f" d="M82.32,156.97c.06-.4,.13-.77,.61-.3-.13,.25-.36,.3-.61,.3Z"/></g><circle class="g" cx="96.55" cy="96.55" r="96.55"/></g></g></g></svg>