<?xml version="1.0" encoding="UTF-8"?><svg xmlns="http://www.w3.org/2000/svg" viewBox="0 0 205.26 205.26"><defs><style>.d{fill:#fdfdfd;}.e{fill:none;}.f{fill:#f0652a;}.g{fill:#e34e27;}</style></defs><g id="a"/><g id="b"><g id="c"><g><g><path class="g" d="M101.79,177.56c-5.76-2.09-11.74-3.43-17.63-5.09-11.13-3.15-22.28-6.23-33.44-9.27-1.56-.43-2.22-1-2.37-2.78-1.56-18.5-3.26-36.98-4.91-55.47-1.33-14.97-2.64-29.95-3.97-44.92-.91-10.19-1.79-20.39-2.8-30.57-.15-1.55,.36-1.75,1.67-1.75,42.87,.02,85.75,.02,128.62,0,1.39,0,1.76,.32,1.62,1.79-1.42,15.18-2.75,30.36-4.12,45.55-1.78,19.82-3.57,39.64-5.34,59.47-.77,8.65-1.57,17.29-2.23,25.95-.12,1.63-.68,2.28-2.21,2.7-16.46,4.5-32.91,9.06-49.36,13.64-.63,.17-1.43,.06-1.85,.77h-1.7Zm.83-28.55c0,5.15,.03,10.3,0,15.45,0,1.15,.13,1.65,1.52,1.25,13.58-3.83,27.18-7.61,40.79-11.35,.85-.24,1.32-.45,1.4-1.45,.51-5.79,1.11-11.57,1.64-17.36,.34-3.77,.58-7.55,.93-11.32,.51-5.58,1.11-11.15,1.61-16.73,.35-3.84,.56-7.69,.91-11.53,.51-5.51,1.14-11.01,1.62-16.52,.49-5.59,.82-11.19,1.32-16.77,.64-7.04,1.4-14.08,2.06-21.12,.22-2.38-.26-2.95-2.6-2.96-16.52-.03-33.03,0-49.55-.04-1.33,0-1.69,.5-1.67,1.74,.06,4.02,.12,8.05-.02,12.07-.07,1.9,.53,2.37,2.38,2.35,12.14-.08,24.28-.05,36.42-.02,.78,0,1.72-.41,2.32,.53-.92,.02-1.83,.05-2.75,.05-25.9,.04-51.8,.08-77.69,.07-1.64,0-2.07,.3-1.91,2.08,1.43,15.1,2.76,30.2,4.01,45.31,.16,1.94,.64,2.57,2.7,2.56,17.57-.08,35.14,.01,52.71-.04,2.05,0,2.52,.62,1.83,2.41-.43-1.56-1.5-1.79-2.99-1.76-5,.1-10.01,.08-15.02,.01-1.38-.02-2.02,.28-2,1.85,.07,7.19,.05,14.38,.01,21.57,0,.86,.25,1.49,.86,2.03-.57,.39-1.14,.35-1.8,.17-5.44-1.49-10.88-2.97-16.33-4.39-1.03-.27-1.3-.81-1.37-1.77-.24-3.3-.63-6.6-.82-9.9-.08-1.39-.43-1.94-1.96-1.9-4.3,.11-8.6,.1-12.9,0-1.52-.03-1.89,.4-1.74,1.9,.72,7.29,1.4,14.59,1.94,21.9,.13,1.72,.76,2.35,2.37,2.79,10.61,2.88,21.18,5.88,31.77,8.84Z"/><path class="d" d="M122.62,107.67c.69-1.79,.22-2.42-1.83-2.41-17.57,.06-35.14-.03-52.71,.04-2.06,0-2.54-.63-2.7-2.56-1.25-15.11-2.59-30.22-4.01-45.31-.17-1.78,.26-2.08,1.91-2.08,25.9,.01,51.8-.03,77.69-.07,.92,0,1.83-.03,2.75-.05,.05,.41,.18,.82,.15,1.22-.46,5.14-.95,10.29-1.43,15.43-20.32-.03-40.64-.03-60.97-.14-2-.01-2.33,.57-2.12,2.38,.5,4.2,.89,8.42,1.16,12.64,.1,1.61,.56,2.09,2.24,2.08,14.04-.09,28.08-.07,42.13-.1,5.29,0,10.58-.04,15.88-.06,.3,.61,.14,1.25,.08,1.87-1.38,15.45-2.81,30.9-4.08,46.37-.18,2.17-.97,2.88-2.96,3.42-10.42,2.79-20.79,5.76-31.17,8.67-10.59-2.96-21.16-5.96-31.77-8.84-1.61-.44-2.24-1.07-2.37-2.79-.54-7.31-1.22-14.61-1.94-21.9-.15-1.5,.23-1.93,1.74-1.9,4.3,.1,8.6,.11,12.9,0,1.52-.04,1.88,.51,1.96,1.9,.19,3.31,.58,6.6,.82,9.9,.07,.97,.34,1.51,1.37,1.77,5.46,1.42,10.9,2.9,16.33,4.39,.66,.18,1.23,.23,1.8-.17,5.39-1.41,10.77-2.82,16.16-4.23,1-.26,1.49-.94,1.57-1.97,.46-5.84,.94-11.67,1.41-17.5Z"/><path class="f" d="M142.43,71.88c.48-5.14,.96-10.28,1.43-15.43,.04-.4-.09-.81-.15-1.22-.59-.94-1.54-.53-2.32-.53-12.14-.03-24.28-.06-36.42,.02-1.85,.01-2.45-.45-2.38-2.35,.15-4.02,.08-8.04,.02-12.07-.02-1.25,.34-1.75,1.67-1.74,16.52,.03,33.03,0,49.55,.04,2.34,0,2.82,.58,2.6,2.96-.66,7.04-1.43,14.08-2.06,21.12-.5,5.59-.83,11.19-1.32,16.77-.49,5.51-1.12,11.01-1.62,16.52-.35,3.84-.57,7.69-.91,11.53-.51,5.58-1.1,11.15-1.61,16.73-.35,3.77-.58,7.55-.93,11.32-.53,5.79-1.13,11.57-1.64,17.36-.09,1-.55,1.21-1.4,1.45-13.61,3.75-27.2,7.52-40.79,11.35-1.4,.39-1.53-.1-1.52-1.25,.03-5.15,0-10.3,0-15.45,10.39-2.91,20.76-5.88,31.17-8.67,1.99-.53,2.78-1.25,2.96-3.42,1.26-15.46,2.7-30.91,4.08-46.37,.06-.62,.22-1.26-.08-1.87-.61-.91-1.55-.51-2.34-.51-11.16-.03-22.32-.07-33.48,.03-1.92,.02-2.41-.56-2.34-2.4,.14-3.67,.15-7.35,0-11.01-.08-1.9,.52-2.37,2.38-2.36,11.72,.08,23.45,.05,35.17,.02,.77,0,1.73,.43,2.28-.58Z"/><path class="f" d="M122.62,107.67c-.47,5.83-.95,11.67-1.41,17.5-.08,1.03-.57,1.7-1.57,1.97-5.38,1.42-10.77,2.82-16.16,4.23-.61-.54-.86-1.17-.86-2.03,.04-7.19,.06-14.38-.01-21.57-.02-1.57,.62-1.87,2-1.85,5.01,.06,10.01,.09,15.02-.01,1.49-.03,2.56,.2,2.99,1.76Z"/><path class="g" d="M142.43,71.88c-.55,1.01-1.51,.57-2.28,.58-11.72,.03-23.45,.06-35.17-.02-1.85-.01-2.46,.46-2.38,2.36,.15,3.67,.14,7.35,0,11.01-.07,1.83,.42,2.41,2.34,2.4,11.16-.09,22.32-.05,33.48-.03,.79,0,1.72-.4,2.34,.51-5.29,.02-10.58,.05-15.88,.06-14.04,.02-28.09,0-42.13,.1-1.67,.01-2.14-.47-2.24-2.08-.27-4.22-.66-8.44-1.16-12.64-.21-1.8,.11-2.39,2.12-2.38,20.32,.11,40.64,.11,60.97,.14Z"/></g><circle class="e" cx="102.63" cy="102.63" r="102.63"/></g></g></g></svg>