<?xml version="1.0" encoding="UTF-8"?><svg xmlns="http://www.w3.org/2000/svg" viewBox="0 0 183.78 183.78"><defs><style>.d{fill:#fa9903;}.e{fill:#320100;}.f{fill:none;}</style></defs><g id="a"/><g id="b"><g id="c"><g><g><path class="e" d="M91.81,162.08c-15.17,0-30.35,0-45.52,0-15.4,0-26.4-11.01-26.4-26.43,0-29.31-.01-58.61,0-87.92,0-13.69,9.74-24.61,23.04-25.93,.78-.08,1.56-.1,2.34-.1,31.08,0,62.16-.02,93.24,0,11.61,.01,21.63,7.83,24.57,19.05,.6,2.28,.82,4.61,.82,6.97,0,29.46,.01,58.93-.01,88.39-.01,14.82-11.08,25.88-25.93,25.96-7.72,.04-15.44,0-23.15,0-7.67,0-15.33,0-23,0Zm9.86-41.18h0c1.82,0,3.65,0,5.47-.01,1.74,0,1.86-.16,1.28-1.79-7.11-20.08-14.24-40.16-21.33-60.25-.31-.87-.72-1.23-1.67-1.23-4.69,.04-9.38,.05-14.07,0-1.01,0-1.42,.3-1.39,1.33,.06,1.85-.38,3.62-.98,5.35-2.56,7.38-5.14,14.76-7.71,22.14-3.76,10.83-7.53,21.65-11.28,32.48-.62,1.78-.47,1.96,1.45,1.97,3.08,0,6.15-.07,9.23,.03,1.39,.04,2.06-.43,2.46-1.77,1.21-3.99,2.57-7.93,3.79-11.91,.32-1.05,.84-1.34,1.89-1.34,6.46,.05,12.93,.05,19.39,0,1.16-.01,1.63,.41,1.97,1.45,1.32,4.01,2.79,7.97,4.08,11.98,.4,1.23,1.03,1.64,2.26,1.59,1.72-.07,3.44-.02,5.16-.02Zm26.83-23.89c0-7.45-.02-14.91,.02-22.36,0-1.23-.29-1.8-1.65-1.77-3.44,.07-6.88,.05-10.32,0-1.15-.01-1.53,.41-1.53,1.56,.03,14.96,.03,29.92,0,44.87,0,1.23,.43,1.65,1.65,1.63,3.33-.06,6.67-.09,10.01,.01,1.49,.05,1.86-.51,1.85-1.9-.05-7.35-.02-14.7-.02-22.05Zm-14.1-36.74c0,4.51,2.94,7.61,7.29,7.65,4.42,.04,7.63-3.08,7.67-7.48,.05-4.55-2.97-7.64-7.44-7.64-4.33,0-7.51,3.16-7.52,7.47Z"/><path class="d" d="M101.67,120.9c-1.72,0-3.44-.05-5.16,.02-1.22,.05-1.86-.35-2.26-1.59-1.29-4.02-2.76-7.98-4.08-11.98-.34-1.04-.81-1.46-1.97-1.45-6.46,.06-12.93,.05-19.39,0-1.06,0-1.57,.29-1.89,1.34-1.22,3.98-2.58,7.93-3.79,11.91-.4,1.33-1.07,1.81-2.46,1.77-3.07-.1-6.15-.02-9.23-.03-1.92,0-2.06-.19-1.45-1.97,3.75-10.83,7.52-21.65,11.28-32.48,2.57-7.38,5.14-14.75,7.71-22.14,.6-1.73,1.04-3.5,.98-5.35-.03-1.03,.38-1.34,1.39-1.33,4.69,.04,9.38,.04,14.07,0,.95,0,1.36,.35,1.67,1.23,7.09,20.09,14.22,40.17,21.33,60.25,.58,1.63,.46,1.78-1.28,1.79-1.82,.01-3.65,0-5.47,0h0Zm-23.3-52.05c-2.17,8.23-4.64,15.91-7.1,23.6-.35,1.11-.06,1.3,.99,1.29,4.07-.05,8.13-.06,12.2,0,1.27,.02,1.63-.21,1.18-1.55-1.56-4.64-3.04-9.31-4.5-13.98-.93-2.97-1.77-5.96-2.78-9.36Z"/><path class="d" d="M128.5,97.01c0,7.35-.03,14.7,.02,22.05,0,1.39-.35,1.95-1.85,1.9-3.33-.1-6.67-.07-10.01-.01-1.22,.02-1.65-.39-1.65-1.63,.03-14.96,.03-29.92,0-44.87,0-1.15,.38-1.57,1.53-1.56,3.44,.04,6.88,.07,10.32,0,1.36-.03,1.66,.54,1.65,1.77-.04,7.45-.02,14.91-.02,22.36Z"/><path class="d" d="M114.39,60.27c0-4.31,3.19-7.47,7.52-7.47,4.48,0,7.49,3.09,7.44,7.64-.05,4.4-3.25,7.53-7.67,7.48-4.35-.04-7.3-3.14-7.29-7.65Z"/><path class="e" d="M78.36,68.85c1,3.4,1.85,6.39,2.78,9.36,1.46,4.67,2.93,9.34,4.5,13.98,.45,1.34,.09,1.57-1.18,1.55-4.07-.06-8.13-.05-12.2,0-1.05,.01-1.35-.18-.99-1.29,2.46-7.69,4.93-15.37,7.1-23.6Z"/></g><circle class="f" cx="91.89" cy="91.89" r="91.89"/></g></g></g></svg>