<?xml version="1.0" encoding="UTF-8"?><svg xmlns="http://www.w3.org/2000/svg" viewBox="0 0 218.99 218.99"><defs><style>.d{fill:#fd3367;}.e{fill:#480621;}.f{fill:none;}</style></defs><g id="a"/><g id="b"><g id="c"><g><g><path class="e" d="M109.62,24.8c19.07,0,38.14-.02,57.21,0,15.88,.03,29.63,13.8,29.64,29.67,.01,36.68,.01,73.37,0,110.05,0,15.87-13.75,29.63-29.66,29.65-38.22,.03-76.43,.03-114.65,0-15.9-.01-29.63-13.8-29.64-29.67-.01-36.68-.01-73.37,0-110.05,0-15.87,13.76-29.62,29.66-29.65,19.15-.03,38.29,0,57.44,0Zm41.11,74.26c0-11.58-.04-23.17,.04-34.75,.01-1.81-.35-2.57-2.35-2.48-3.8,.16-7.62,.15-11.43,0-1.94-.08-2.44,.57-2.41,2.45,.11,6.48,.04,12.96,.04,19.43,0,.9,.18,1.98-1.33,1.75-2.75-.42-5.48-.07-8.2,.23-9.05,1-16.57,4.83-22.19,12.14-5.13,6.67-6.3,14.29-5.8,22.45,.63,10.44,7.11,19.6,16.98,23.11,12.12,4.32,23.99,2.42,35.71-1.83,1.14-.41,1.46-1.15,1.39-2.28-.18-2.96-.4-5.93-.41-8.9-.05-10.44-.02-20.88-.02-31.32Zm-81.17,7.46c0,11.9,.03,23.8-.03,35.69-.01,1.88,.57,2.56,2.48,2.5,3.66-.12,7.33-.13,10.98,0,2.08,.08,2.76-.57,2.74-2.72-.09-12.74-.05-25.47-.04-38.21,0-11.14-.03-22.27,.04-33.41,.01-1.8-.59-2.45-2.36-2.41-3.74,.09-7.47,.12-11.21,.05-2.06-.04-2.67,.73-2.65,2.81,.1,11.9,.05,23.8,.05,35.69Z"/><path class="d" d="M150.74,99.06c0,10.44-.03,20.88,.02,31.32,.01,2.97,.24,5.93,.41,8.9,.07,1.13-.25,1.87-1.39,2.28-11.72,4.24-23.59,6.15-35.71,1.83-9.86-3.52-16.35-12.67-16.98-23.11-.49-8.16,.67-15.78,5.8-22.45,5.62-7.31,13.14-11.13,22.19-12.14,2.72-.3,5.45-.65,8.2-.23,1.51,.23,1.33-.85,1.33-1.75,0-6.48,.07-12.96-.04-19.43-.03-1.88,.46-2.53,2.41-2.45,3.81,.15,7.63,.16,11.43,0,2-.08,2.36,.67,2.35,2.48-.07,11.58-.04,23.17-.04,34.75Zm-16.11,16.46c0-4.65-.09-9.31,.04-13.95,.05-1.9-.65-2.46-2.45-2.63-9.39-.9-19.5,4.98-18.72,17.74,.53,8.59,4.9,13.76,13.36,14.94,2,.28,3.95,0,5.92-.04,1.54-.02,1.91-.67,1.88-2.09-.07-4.65-.03-9.3-.03-13.96Z"/><path class="d" d="M69.57,106.52c0-11.9,.05-23.8-.05-35.69-.02-2.08,.59-2.85,2.65-2.81,3.74,.07,7.47,.04,11.21-.05,1.77-.04,2.37,.61,2.36,2.41-.07,11.13-.04,22.27-.04,33.41,0,12.74-.05,25.47,.04,38.21,.02,2.15-.67,2.8-2.74,2.72-3.66-.13-7.32-.12-10.98,0-1.91,.06-2.49-.62-2.48-2.5,.07-11.9,.03-23.8,.03-35.69Z"/><path class="e" d="M134.63,115.51c0,4.65-.04,9.3,.03,13.96,.02,1.42-.35,2.07-1.88,2.09-1.97,.03-3.92,.32-5.92,.04-8.46-1.18-12.83-6.35-13.36-14.94-.78-12.76,9.32-18.64,18.72-17.74,1.8,.17,2.5,.73,2.45,2.63-.13,4.65-.04,9.3-.04,13.95Z"/></g><circle class="f" cx="109.49" cy="109.49" r="109.49"/></g></g></g></svg>