<?xml version="1.0" encoding="UTF-8"?><svg xmlns="http://www.w3.org/2000/svg" viewBox="0 0 142.7 142.7"><defs><style>.d{fill:none;}.e{fill:#4c7895;}.f{fill:#f38212;}</style></defs><g id="a"/><g id="b"><g id="c"><g><g><path class="f" d="M71.38,75.46c-.68-.49-1.27-1.09-1.88-1.65-2.99-2.73-5.91-5.53-8.52-8.63-1.96-2.32-3.74-4.77-4.89-7.61-1.13-2.78-1.42-5.6-.28-8.45,.71-1.79,1.86-3.29,3.09-4.73,2.17-2.54,4.71-4.69,7.3-6.79,2.96-2.4,6.02-4.69,8.87-7.24,2.58-2.31,4.96-4.79,6.76-7.79,2.27-3.79,3.12-7.88,2.58-12.26-.12-.99-.32-1.97-.54-2.99,.21,.06,.27,.21,.36,.32,1.52,1.97,2.41,4.21,2.75,6.67,.53,3.89-.43,7.49-2.18,10.92-1.91,3.74-4.58,6.9-7.55,9.84-2.23,2.2-4.7,4.12-7.09,6.13-2.46,2.06-4.7,4.32-6.42,7.06-1.55,2.46-2.44,5.11-2.26,8.06,.15,2.28,.92,4.38,1.97,6.38,1.26,2.4,2.86,4.59,4.4,6.81,1.23,1.78,2.45,3.57,3.4,5.52,.06,.13,.16,.25,.16,.41l-.02,.02Z"/><path class="e" d="M109.72,113.94c.65,.26,1.22,.64,1.67,1.18,.58,.7,.57,1.45,0,2.23-.48,.65-1.13,1.13-1.81,1.55-1.93,1.18-4.05,1.93-6.2,2.59-4.28,1.31-8.66,2.14-13.08,2.78-4.58,.67-9.19,1.1-13.81,1.35-5.45,.3-10.9,.35-16.36,.21-3.45-.09-6.9-.27-10.34-.53-3.37-.26-6.74-.59-10.09-1.01-3.03-.38-6.06-.8-9.07-1.33-1.31-.23-2.59-.56-3.78-1.18-.33-.17-.63-.37-.89-.63-.62-.6-.73-1.3-.32-2.06,.34-.63,.87-1.1,1.43-1.53,1.51-1.15,3.22-1.94,4.97-2.63,2.78-1.09,5.65-1.86,8.63-2.17,1.19-.12,2.38-.15,3.55,.13,.33,.08,.64,.19,1.01,.42-.68,.08-1.27,.14-1.86,.23-2.63,.43-5.23,1-7.68,2.12-.53,.24-1.05,.51-1.52,.85-.23,.16-.45,.34-.64,.56-.44,.54-.4,1,.15,1.43,.44,.35,.97,.54,1.49,.73,2.33,.88,4.75,1.38,7.19,1.77,5.18,.83,10.4,1.19,15.63,1.4,5.47,.21,10.93,.21,16.4,.05,5.14-.15,10.27-.44,15.39-.94,4.51-.44,9.01-.98,13.44-1.97,1.68-.38,3.33-.83,4.87-1.62,.41-.21,.8-.45,1.16-.75,1.16-.96,1.29-1.96,.41-3.18,.02-.02,.04-.04,.05-.06Z"/><path class="f" d="M75.85,79.75c.57-.65,1.19-1.26,1.69-1.96,1.23-1.74,2.04-3.63,1.9-5.82-.11-1.86-.91-3.44-2.09-4.83-1.56-1.83-3-3.73-4.06-5.9-.94-1.9-1.56-3.89-1.65-6.02-.13-3.06,.87-5.77,2.63-8.22,1.96-2.74,4.52-4.83,7.33-6.63,4.86-3.12,10.15-5.28,15.64-6.99,.6-.19,1.21-.35,1.9-.55-.17,.24-.35,.3-.51,.39-4.06,2.38-8.07,4.84-11.82,7.7-2.26,1.73-4.43,3.57-6.13,5.88-1.04,1.41-1.81,2.95-1.94,4.74-.11,1.49,.27,2.87,.89,4.2,.81,1.75,1.92,3.32,3.01,4.9,.45,.66,.91,1.31,1.36,1.97,2.08,3.05,2.22,6.18,.41,9.39-1.28,2.27-3.13,4.03-5.17,5.59-1.06,.81-2.17,1.57-3.35,2.2l-.04-.04Z"/><path class="e" d="M91.06,109.61c-1.77,.76-3.51,1.38-5.29,1.91-5.26,1.56-10.64,2.33-16.12,2.38-4.58,.04-9.11-.35-13.54-1.57-1.84-.51-3.64-1.14-5.24-2.22-.54-.36-1.04-.78-1.4-1.34-.54-.83-.49-1.67,.13-2.44,.26-.32,.56-.59,.9-.82,1.32-.92,2.81-1.43,4.26-1.86-.2,.22-.43,.48-.65,.74-.67,.78-.56,1.45,.34,1.96,.91,.51,1.93,.69,2.95,.83,3.8,.5,7.6,.91,11.44,.9,3.44,0,6.86-.36,10.26-.91,1.6-.26,3.2-.56,4.79-.84,.2-.04,.39-.03,.58,.08,2.02,1.22,4.14,2.24,6.34,3.08,.06,.02,.12,.06,.25,.12Z"/><path class="e" d="M57.11,75.9c-1.4,.39-2.81,.76-4.2,1.18-2.33,.7-4.66,1.42-6.83,2.56-.49,.26-.97,.54-1.36,.95-.51,.55-.46,1.04,.18,1.44,.87,.53,1.86,.72,2.85,.89,3.6,.61,7.24,.71,10.88,.75,5.4,.06,10.8-.14,16.19-.43,4.56-.24,9.09-.73,13.61-1.34,3.08-.42,6.16-.88,9.24-1.4-.06,.16-.2,.17-.3,.22-1.66,.77-3.29,1.58-4.85,2.54-.41,.25-.9,.29-1.35,.4-4.21,1.01-8.49,1.67-12.8,2.13-7.15,.77-14.33,1.06-21.52,.92-4.02-.08-8.03-.29-12.03-.79-2.39-.3-4.77-.66-7.06-1.46-.63-.22-1.24-.48-1.77-.88-.82-.63-.85-1.32-.09-2.04,.53-.5,1.16-.84,1.81-1.15,4.39-2.1,8.98-3.51,13.8-4.19,1.85-.26,3.71-.42,5.6-.3Z"/><path class="e" d="M93.1,96.3c-.9,.25-1.77,.5-2.63,.73-4.43,1.15-8.92,1.97-13.47,2.48-4.73,.52-9.47,.75-14.22,.55-4.1-.17-8.18-.57-12.15-1.7-1.49-.42-2.94-.93-4.19-1.88-.16-.12-.31-.26-.46-.4-.88-.89-.9-1.87-.08-2.81,.72-.82,1.65-1.35,2.6-1.83,.94-.48,1.92-.86,2.92-1.21,.09-.03,.17-.09,.27-.03-.04,.15-.18,.23-.29,.33-.28,.29-.55,.6-.76,.95-.6,1.01-.39,1.85,.63,2.43,.7,.4,1.48,.6,2.27,.73,2.17,.35,4.36,.48,6.54,.63,3.51,.25,7.03,.34,10.55,.19,3.83-.16,7.63-.58,11.42-1.18,1.96-.31,3.92-.67,5.87-1.06,.18-.04,.3-.02,.44,.11,1.33,1.29,2.86,2.25,4.61,2.88,.03,.01,.06,.05,.14,.11Z"/><path class="e" d="M117.26,120.19c.04,.66-.23,1.24-.52,1.8-.75,1.42-1.95,2.41-3.28,3.24-2.4,1.5-5.04,2.41-7.75,3.16-3.42,.95-6.91,1.57-10.42,2.05-3.88,.54-7.77,.88-11.67,1.1-5.75,.33-11.49,.38-17.25,.22-3.3-.09-6.6-.26-9.89-.53-3.99-.33-7.97-.79-11.83-1.94-.67-.2-1.33-.45-1.97-.75-.19-.09-.37-.2-.53-.38,.78,.11,1.56,.23,2.35,.33,2.88,.4,5.78,.68,8.68,.89,4.94,.37,9.89,.51,14.85,.5,5.43-.01,10.85-.23,16.26-.69,5.49-.47,10.95-1.16,16.35-2.26,4.11-.84,8.18-1.85,12.02-3.58,1.29-.58,2.52-1.25,3.62-2.15,.37-.3,.66-.67,.99-1h0Z"/><path class="e" d="M100.38,76.99c.34-.67,.88-1.14,1.57-1.39,3.13-1.18,6.3-1.42,9.46-.14,2.86,1.15,4.88,3.14,5.65,6.2,.63,2.49,.02,4.8-1.31,6.94-1.46,2.35-3.52,4.09-5.83,5.55-3.44,2.17-7.2,3.58-11.09,4.69-.36,.1-.73,.18-1.1,.28l-.04-.03c.13-.36,.38-.58,.73-.76,3.01-1.58,5.89-3.37,8.45-5.63,1.87-1.65,3.51-3.49,4.52-5.81,1.38-3.18,.8-6.4-1.62-8.54-2.18-1.93-4.71-2.63-7.57-1.86-.61,.16-1.21,.35-1.82,.53h0Z"/><path class="e" d="M109.67,114l-.07-.09c.05-.04,.09-.03,.12,.03-.02,.02-.04,.04-.05,.06Z"/><path class="f" d="M99.22,32.85s-.02,.02-.02,.02c0,0-.01-.01-.02-.02,0,0,.02-.02,.02-.02,0,0,.01,.01,.02,.02Z"/><path class="f" d="M71.39,75.44s.07,.04,.04,.06c-.04,.03-.05-.02-.05-.05l.02-.02Z"/><path class="e" d="M100.38,77l-.04,.04s0-.02,0-.03c0,0,.02-.01,.03-.02h0Z"/><path class="f" d="M75.89,79.79s-.09,.03-.09,.02c-.03-.05,.02-.05,.05-.06l.04,.04Z"/><path class="e" d="M97.72,99.11s-.05,.04-.08,0l.04-.04,.04,.03Z"/><polygon class="e" points="117.26 120.2 117.28 120.2 117.26 120.19 117.26 120.2"/></g><circle class="d" cx="71.35" cy="71.35" r="71.35"/></g></g></g></svg>