<?xml version="1.0" encoding="UTF-8"?><svg xmlns="http://www.w3.org/2000/svg" viewBox="0 0 392.64 392.64"><defs><style>.d{fill:#080909;}.e{fill:none;}.f{fill:#f2e01d;}</style></defs><g id="a"/><g id="b"><g id="c"><g><g><path class="f" d="M57.07,196.36c0-43.34,.16-86.67-.16-130.01-.05-7.35,1.56-9.73,9.44-9.7,86.66,.31,173.33,.27,259.99,.05,6.89-.02,9.41,1.38,9.39,8.92-.29,87.72-.26,175.45-.12,263.17,0,5.46-1.38,7.19-6.97,7.18-88.24-.16-176.48-.16-264.72,0-5.69,.01-6.93-1.87-6.91-7.24,.21-44.12,.12-88.25,.12-132.37h-.06Zm214.81,117.84c2.82-.3,7.04-.49,11.16-1.22,21.28-3.75,32.91-19.96,30.51-41.33-1.78-15.84-12.14-24.32-24.94-30.89-8.6-4.41-17.67-7.93-26.09-12.63-5.54-3.09-7.85-8.49-4.97-14.85,2.83-6.24,8.29-7.66,14.45-6.82,3.09,.42,6.64,1.24,8.28,4.05,4.85,8.31,9.9,5.41,15.37,.91,2.01-1.65,4.26-3.11,6.61-4.23,4.19-2.01,3.31-4.24,1.14-7.37-9.3-13.42-26.89-19.42-44.89-15.08-23.6,5.7-34.77,29.19-24.05,50.88,4.64,9.39,12.8,15.02,21.99,19.35,8.04,3.79,16.23,7.28,24.1,11.4,4.93,2.58,7.96,6.89,7.12,12.92-.84,6.01-4.95,9.02-10.32,10.55-9.22,2.64-17.38,.53-25.18-5.05-3.65-2.61-4.34-9.53-9.75-8.44-4.38,.88-8.24,4.4-12.32,6.74-.91,.52-1.76,1.17-2.72,1.56-4.4,1.78-4.07,4.08-1.6,7.65,10.88,15.71,26.45,21.45,46.11,21.89Zm-63.01-80.62h.04c0-9.71,0-19.42,0-29.13,0-19.52,0-19.23-19.39-19.51-6.11-.09-7.29,1.8-7.23,7.5,.27,28.07,.1,56.15,.03,84.23-.01,5.87-1.62,10.98-7.84,13.15-6.59,2.3-13.65,1.59-16.89-4.38-5.16-9.49-10.22-6.43-16.29-2.03-1.9,1.38-3.87,2.79-6.02,3.69-4.72,1.98-4.54,4.55-2,8.4,8.79,13.31,21.55,18.63,36.9,18.54,24.26-.14,37.85-13.4,38.61-37.97,.44-14.16,.08-28.34,.08-42.51Z"/><path class="d" d="M271.88,314.21c-19.65-.44-35.23-6.19-46.11-21.89-2.47-3.57-2.8-5.87,1.6-7.65,.96-.39,1.81-1.04,2.72-1.56,4.09-2.35,7.94-5.86,12.32-6.74,5.4-1.09,6.1,5.83,9.75,8.44,7.8,5.58,15.95,7.68,25.18,5.05,5.37-1.54,9.49-4.54,10.32-10.55,.84-6.03-2.19-10.34-7.12-12.92-7.87-4.12-16.06-7.61-24.1-11.4-9.19-4.34-17.35-9.96-21.99-19.35-10.72-21.68,.45-45.18,24.05-50.88,18-4.35,35.6,1.65,44.89,15.08,2.16,3.12,3.05,5.35-1.14,7.37-2.34,1.13-4.6,2.58-6.61,4.23-5.47,4.5-10.51,7.41-15.37-.91-1.64-2.81-5.2-3.63-8.28-4.05-6.16-.84-11.62,.58-14.45,6.82-2.88,6.36-.57,11.76,4.97,14.85,8.42,4.7,17.5,8.21,26.09,12.63,12.8,6.57,23.16,15.05,24.94,30.89,2.4,21.38-9.23,37.59-30.51,41.33-4.12,.73-8.34,.92-11.16,1.22Z"/><path class="d" d="M208.87,233.59c0,14.17,.36,28.35-.08,42.51-.76,24.56-14.36,37.83-38.61,37.97-15.34,.09-28.11-5.23-36.9-18.54-2.54-3.84-2.72-6.42,2-8.4,2.15-.9,4.11-2.31,6.02-3.69,6.07-4.4,11.13-7.47,16.29,2.03,3.24,5.96,10.29,6.67,16.89,4.38,6.23-2.17,7.83-7.28,7.84-13.15,.07-28.08,.24-56.16-.03-84.23-.06-5.71,1.12-7.59,7.23-7.5,19.39,.27,19.39-.01,19.39,19.51,0,9.71,0,19.42,0,29.13h-.04Z"/></g><circle class="e" cx="196.32" cy="196.32" r="196.32"/></g></g></g></svg>