<?xml version="1.0" encoding="UTF-8"?><svg xmlns="http://www.w3.org/2000/svg" viewBox="0 0 147 147"><defs><style>.d{fill:#6b0022;}.e{fill:none;}.f{fill:#070707;}</style></defs><g id="a"/><g id="b"><g id="c"><g><g><path class="f" d="M57.78,54.85c-2.72,27.1-5.42,54.21-8.12,81.32-.41,4.16,1.19,6.25,5.3,6.99,2.5,.46,4.98,.96,7.49,1.34,2.96,.45,5.44-1.02,6.19-3.84,2.08-7.79,4.05-15.62,6.05-23.43,.29-1.07,.57-2.14,.85-3.22,.07-.3,.14-.61,.2-.91,.51-1.29,.85-2.63,1.04-4.01,2.24-8.45,4.49-16.89,6.72-25.34,2.06-7.81,4.09-15.63,6.12-23.45,.1-.37,.38-.74,.05-1.29-3.15,1.15-6.48,1.62-9.83,1.98-2.06-.14-4.12-.28-6.19-.41-5.67-1.22-10.94-3.31-15.34-7.19-.71,.36-.49,.98-.54,1.45Zm11.52,18.62c1.97-.52,3.32,.47,4.38,2.02,.07,.8,.14,1.6,.21,2.4-.37,1.82-.69,3.65-1.11,5.46-.47,2.03-2.19,3.21-4.14,2.92-2.03-.3-3.33-2.01-3.05-4.2,.2-1.58,.6-3.14,.81-4.73,.25-1.86,.93-3.38,2.89-3.89Z"/><path class="d" d="M50.52,25c-.14,.87-.19,1.65,.48,2.42,6.23,7.06,13.81,11.86,23.07,13.88,2.45,.78,4.96,1.14,7.53,1.13,8.5,.73,16.4-1.31,23.87-5.25,.91-.48,1.07-1.27,1.26-2.13,2.5-11.12-2.12-22.89-11.6-29.54-9.3-6.52-22.02-6.82-31.55-.69-7.38,4.75-11.7,11.51-13.07,20.18Z"/><path class="f" d="M50.6,31.85c.38,11.19,10.24,23.18,22.75,25.08,11.81,3,26.54-4.31,31.07-15.56-5.99,2.73-12.15,4.26-18.64,4.51-3.01,.12-5.96-.27-8.94-.49-7.43-1.38-14.3-4.06-20.42-8.56-2.02-1.48-3.9-3.13-5.82-4.98Z"/></g><circle class="e" cx="73.5" cy="73.5" r="73.5"/></g></g></g></svg>