<?xml version="1.0" encoding="UTF-8"?><svg xmlns="http://www.w3.org/2000/svg" viewBox="0 0 199.65 199.65"><defs><style>.d{fill:#1569ad;}.e{fill:#147abe;}.f{fill:#114057;}.g{fill:#0699dd;}.h{fill:#1a87cd;}.i{fill:#31ace4;}.j{fill:#1382c6;}.k{fill:#1571b6;}.l{fill:#3298d7;}.m{fill:#178ad0;}.n{fill:none;}.o{fill:#5cc1ec;}.p{fill:#20a2e2;}.q{fill:#165da0;}.r{fill:#17587d;}.s{fill:#15569b;}</style></defs><g id="a"/><g id="b"><g id="c"><g><g><path class="m" d="M163.3,63.5h16.49c-3.03,4.88-5.64,9.98-8.07,15.17-1.33,2.34-2.67,4.68-4.01,7.02-.93-1.81-2.54-2.04-4.37-2.06-3.3-.03-6.69,.58-9.78-1.19,3.11-5.48,6.19-10.98,7.93-17.09,1.05-.17,1.63-.82,1.81-1.85Z"/><path class="f" d="M171.71,78.68c2.43-5.2,5.04-10.3,8.07-15.17,3.46,0,6.92,.06,10.38-.03,1.06-.03,1.47,.2,1.22,1.25-1.43,.06-1.6,1.36-2.12,2.25-2.33,3.96-4.6,7.94-6.89,11.92-2.27-.15-4.49-.77-6.7,.73-1.3,.89-2.9,.48-3.96-.95Z"/><path class="f" d="M8.19,133.12c1.79-.09,1.55-1.67,1.86-2.71,3.18-10.64,7.18-20.95,12.4-30.77,.47-.89,1.06-1.71,1.6-2.57,.69,.99,.34,2.58,1.83,3.09-.4,1.03-.82,2.06-1.18,3.11-1.39,4.03-3.37,7.88-3.76,12.22-.69,1.31-1.42,2.61-1.3,4.17l-.49,.49-.67,1.37c-2.6,4.87-5.19,9.73-7.79,14.6l-2.5,.06v-3.05Z"/><path class="p" d="M163.3,63.5c-.18,1.03-.76,1.67-1.81,1.85-3.52,1.35-6.5,3.52-9.2,6.11-1.85-1.33-4.29,.14-6.12-1.28,2.85-3.24,6.76-4.54,10.66-5.86,.07-.02,.09-.16,.14-.25,.28-.46-.23-.4-.39-.57h6.72Z"/><path class="p" d="M107.2,134.07l-.22,.07-.23-.03c-.83-.48-1.74-.32-2.63-.32-2.35-.48-4.13-2.08-6.18-3.15-1.14-1.64-2.53-3.09-3.74-4.69-2.2-2.91-3.25-6.42-5.38-9.33-.26-3.05-1.23-5.86-2.96-8.39-.08-1.05-.16-2.1-.23-3.14,1.4-.81,2.87-1.02,4.44-.61l.63,.55c.48,1.97,1.44,3.73,2.36,5.51,.51,1.96,1.14,3.88,2.42,5.5,1.16,3.08,2.53,6.05,4.75,8.54,1.78,3.67,5.22,5.78,8.03,8.47-.52,.17-.98,.4-1.06,1.03Z"/><path class="r" d="M171.71,78.68c1.06,1.43,2.66,1.83,3.96,.95,2.21-1.5,4.43-.88,6.7-.73-2.69,4.89-4.97,10.03-8.51,14.41-1.49,.22-3.35-.54-4.05,1.69-1,3.21-2.86,4.77-6.32,3.17-.31-.14-.79,.08-1.19,.13,1.14-4.48,4.1-8.18,5.4-12.59l4-7.02Z"/><path class="d" d="M167.58,103.81c-5.81,10.14-12.14,19.89-21.58,27.1-2.93,2.24-6.27,3.74-10.15,3.32,2.86-1.96,6.01-3.52,8.48-6.02h.64c3.78-2.32,6.87-5.33,9.2-9.12,3.46-2.86,3.51-3.16,1.45-6.81-.19-.33-.18-.77-.26-1.15,.61-1.42,1.23-2.84,1.84-4.27l1.82-2.45c1.73,1.83,3.52,2.59,5.53,.38,.82-.91,1.91-1.01,3.04-.99Z"/><path class="j" d="M54.23,106.84c-1.13,4.34-2.31,8.66-4.09,12.79-4.76-.66-8.69,.29-10.53,5.36-.03,.09-.13,.15-.2,.22l-.68-.02h.03c-2.08-.2-4.35,.5-6.12-1.24,1.02-2.04,2.05-4.08,3.07-6.11,1.89,0,3.76-.07,5.65-.44,1.99-.39,3.73-.83,4.09-3.2,1.88-1.74,2.13-4.63,4.35-6.14,1.67,.25,2.92-1,4.45-1.24Z"/><path class="o" d="M85.63,105.08c.08,1.05,.16,2.1,.23,3.14-2.08-.13-4.02,.22-5.62,1.69-2.34-7.22-4.11-14.59-5.56-22.04,1.61,.17,3.07-.22,4.37-1.2,.42,1.01,.85,2.03,1.27,3.04,.46,1.33,.89,2.67,1.38,3.99,1.4,3.76,1.96,7.81,3.93,11.37Z"/><path class="g" d="M39.41,125.22c.07-.07,.17-.14,.2-.22,1.84-5.08,5.77-6.03,10.53-5.36-3.07,8.15-8.56,13.63-17.23,15.58-.5,.11-.98,.28-1.44-.07,1.45-2.26,4.28-3.19,5.48-5.69,.99-1.25,2.04-2.48,1.82-4.25h-.03c.23,0,.46,.01,.68,.02Z"/><path class="s" d="M27.15,136.04c-3.68,.03-7.35,.05-11.03,.08,.57-2.64,1.14-5.28,1.72-7.92,1.51,.53,2.92,.19,4.41-.23,3.09-.85,5.89-2.63,9.19-2.79l-1.27,3.65c-1.29,2.28-2.62,4.54-3.01,7.2Z"/><path class="l" d="M88.83,116.61c2.13,2.91,3.18,6.42,5.38,9.33,1.21,1.6,2.59,3.04,3.74,4.69-1.8,.41-3.6,.83-5.41,1.24-4.85-3.24-7.45-8.05-9.35-13.36,1.88-.64,3.76-1.27,5.64-1.91Z"/><path class="s" d="M108.26,133.04c-2.81-2.7-6.25-4.8-8.03-8.47,1.73-.01,3.43,.23,5.15,.41,3.52,.36,7.1,.68,10.37-1.24,.79,1.08,1.59,2.16,2.38,3.23l-.02,1.27c-1.84,1.02-3.67,2.05-5.51,3.06-1.3,.71-2.86,1.11-3.21,2.88-.3,0-.6-.02-.91-.03-.07-.37-.15-.74-.22-1.11Z"/><path class="s" d="M144.32,128.22c-2.47,2.51-5.62,4.07-8.48,6.02-1.03,.02-2.07,.03-3.1,.05-.54-1.98-2.21-2.99-3.6-4.25v-1.63c1.16-.81,1.7-2.1,2.5-3.19,2.24,.75,4.56,.53,6.86,.6,2.39,.08,4.83-.43,7.14,.61l-.68,1.8h0c-.21,0-.43,0-.64,0Z"/><path class="q" d="M167.58,103.81c-1.13-.03-2.22,.08-3.04,.99-2.01,2.21-3.8,1.45-5.53-.38,.4-1.02,.8-2.03,1.2-3.05,.7-1.03,.94-2.37,2.1-3.08,.4-.05,.88-.27,1.19-.13,3.46,1.61,5.32,.04,6.32-3.17,.69-2.23,2.56-1.47,4.05-1.69-1.54,3.84-3.77,7.26-6.29,10.51Z"/><path class="d" d="M129.13,128.4c0,.54,0,1.09,0,1.63-1.83,.97-3.97,1.62-4.3,4.14h-1.25c-.49-3.21-3.06-4.51-5.48-5.94,0-.42,.02-.84,.02-1.27,1,0,1.73-.53,2.39-1.21,1.83-1.52,3.86-2.85,5.05-5.02,.2,0,.37,.08,.49,.24,.4,2.73,1.53,5.16,3.06,7.42Z"/><path class="i" d="M88.83,116.61c-1.88,.64-3.76,1.27-5.64,1.91-1.34-2.75-2.43-5.58-2.95-8.61,1.6-1.47,3.54-1.82,5.62-1.69,1.73,2.54,2.7,5.34,2.96,8.39Z"/><path class="i" d="M58.56,94.14c-.31,.59-.62,1.18-.92,1.77-.18,.41-.35,.83-.53,1.24v-.02c-.94,.85-1.9,1.71-2.86,2.56-2.57,.38-5.16,.59-7.76,.43,1.65-2.45,2.61-5.39,5.08-7.27,2.04,1.25,4.52-.02,6.58,1.15,.13,.08,.27,.13,.42,.15Z"/><path class="k" d="M118.11,128.23c2.42,1.43,4.99,2.73,5.48,5.94-4.73,0-9.47,0-14.2,0,.34-1.77,1.91-2.17,3.21-2.88,1.84-1.01,3.68-2.04,5.51-3.06Z"/><path class="h" d="M67.36,83.04c-2.71,3.39-5.42,6.77-8.12,10.16-.13-.14-.27-.28-.41-.41,.32-1.15,.68-2.29,.96-3.44,.72-2.98,2.74-5.55,2.72-8.76h.02c.63-.24,.68-.75,.63-1.3,.55-1.36,1.67-1.99,3-2.34,.13,1.06,.53,2.17,.32,3.15-.26,1.26-.65,2.31,.88,2.94Z"/><path class="i" d="M79.05,86.68c-1.3,.98-2.76,1.37-4.37,1.2-.79-2.87-1.57-5.74-2.36-8.61l-.02-.21c.18-1.48,1.04-2.35,2.45-2.74,.68,2.04,1.44,4.04,3.04,5.57l1.26,4.79Z"/><path class="g" d="M17.83,128.2c-.57,2.64-1.14,5.28-1.71,7.92-1.81,0-3.62,0-5.43,0,2.6-4.87,5.19-9.73,7.79-14.6,.07,.4,.14,.79,.22,1.18l-.86,5.49Z"/><path class="d" d="M27.15,136.04c.38-2.66,1.72-4.92,3.01-7.2,2.2,.92,4.52,.39,6.78,.62-1.2,2.5-4.02,3.43-5.48,5.69v-.09c-.73-.11-1.37,.1-1.94,.58l.13,.14c-.42,.06-.85,.12-1.27,.18l-1.24,.08Z"/><path class="p" d="M72.31,79.05l.02,.21c-2.62-.01-3.12,2.76-4.96,3.78-1.53-.62-1.15-1.68-.88-2.94,.21-.99-.19-2.1-.32-3.15,.94-1.5,2.21-2.68,3.68-3.65,.82,1.92,1.64,3.84,2.46,5.76Z"/><path class="e" d="M54.25,99.69c.96-.85,1.91-1.71,2.87-2.56-.56,3.36-1.71,6.54-2.89,9.71-1.53,.23-2.78,1.49-4.45,1.24,.62-1.37,1.25-2.75,1.87-4.12,1.36-1.12,2.18-2.57,2.59-4.27Z"/><path class="k" d="M124.84,134.17c.33-2.53,2.46-3.18,4.3-4.14,1.39,1.26,3.06,2.27,3.6,4.25-2.63-.04-5.27-.07-7.9-.11Z"/><path class="j" d="M92.54,131.88c1.8-.41,3.61-.83,5.41-1.24,2.05,1.07,3.83,2.67,6.18,3.15-.05,.15-.09,.29-.11,.45-4.03,.19-8.08,.49-11.48-2.36Z"/><path class="s" d="M104.02,134.23c.02-.15,.05-.3,.11-.45,.89,0,1.8-.16,2.63,.32-.9,.39-1.82,.28-2.74,.13Z"/><path class="g" d="M29.52,135.63c.56-.48,1.21-.69,1.95-.58-.41,.98-1.25,.56-1.95,.58Z"/><path class="h" d="M59.24,93.2c-.23,.31-.46,.63-.68,.94-.15-.02-.29-.07-.42-.15,.23-.4,.46-.8,.69-1.2,.14,.13,.28,.27,.41,.41Z"/><path class="e" d="M57.1,97.15c.18-.41,.35-.83,.53-1.24,.04,.51-.06,.96-.53,1.24Z"/><path class="s" d="M28.38,135.96c.42-.06,.85-.12,1.27-.18-.39,.32-.82,.35-1.27,.18Z"/><path class="k" d="M108.26,133.04c.07,.37,.15,.74,.22,1.11-.43-.03-.85-.06-1.28-.08,.08-.62,.54-.85,1.06-1.03Z"/><path class="e" d="M69.85,73.29c-1.47,.97-2.74,2.15-3.68,3.65-1.34,.35-2.45,.99-3,2.34-.49,.29-.86,.64-.63,1.29h-.02c-.49,.03-.98,.05-1.47,.07-4.62,1.52-9.19,3.21-13.87,4.51-3.78,1.05-7.34,3.12-11.46,2.79,2.75-5.4,6.32-10.28,9.8-15.22l.09-.22-.22,.09-2.8,1.46-.42-.97c4.78-4.38,9.93-7.99,16.75-8.16,1,.16,2,.33,3,.49,3.92,1.03,6.91,3.54,9.82,6.19-.02,.35-.03,.69-.05,1.04-.61,.22-1.22,.43-1.83,.65Z"/><path class="i" d="M117.53,89.74c2.08,5.55,3.14,11.36,4.34,17.14-2.07-.18-4.13-1.18-6.2-.01-.82-.78-.41-2.19-1.65-3.02-1.28,1.62-2.98,2.52-5.11,2.43l-1.04-1.9c-.28-2.14-.82-4.2-1.96-6.06-.54-3.2-1.67-6.21-2.96-9.17l-.69-.63,.04-.02c-.02-.8-.03-1.6-.05-2.4,2.04-2.46,4.46-.82,6.75-.63v.61l.58,.61h.03c.21,.78,.37,1.57,.65,2.33,.45,1.24,.35,2.99,2.42,2.86,1.88-.12,4.11,.53,4.87-2.14Z"/><path class="g" d="M129.13,128.4c-1.53-2.26-2.66-4.69-3.06-7.42l.68-.59,.56-.67h0c4.39-3.47,7.32-8.23,10.92-12.41-.22,1.25-.43,2.5-.65,3.76-.57,1.45-1.14,2.9-1.7,4.36-.47,1.52-1.38,2.9-1.41,4.55-1.34,1.53-2,3.42-2.82,5.23-.8,1.09-1.34,2.39-2.51,3.19Z"/><path class="r" d="M131.12,107.51c1.18-3.69,2.35-7.38,3.53-11.06,2.42,0,4.85,0,7.27,.01-.62,2.24-1.24,4.48-1.86,6.71-.44,1.22-.87,2.43-1.31,3.65-.17,0-.35,0-.52,0-2.44-.49-4.67,1.14-7.11,.69Z"/><path class="h" d="M125.57,120.74c-1.19,2.17-3.22,3.5-5.05,5.02-.27-1.08-.48-2.17-.82-3.22-1.01-3.16-2.56-6.17-2.8-9.56,1.98-.76,4.01-1.28,6.16-1.2l2.51,8.97Z"/><path class="r" d="M42.16,73.08c.14,.32,.28,.65,.42,.97-6.81,7.9-12.3,16.66-16.7,26.11-1.5-.5-1.15-2.1-1.83-3.09,4.82-8.92,10.29-17.35,18.12-23.99Z"/><path class="s" d="M71.68,72.65c.02-.35,.03-.69,.05-1.04,2.16-1.68,4.67-2.73,7.05-4,1.57-.84,3.6-.79,4.73-2.46l2.31,.14,1.75-.4c.85,.06,1.69,.12,2.54,.17-.21,.69-.41,1.39-.62,2.08-3.24,1.34-6.83,2.03-9.24,4.93-1.43,.32-2.74,.78-3.06,2.47-1.01,0-1.67,.7-2.43,1.19l-3.08-3.08Z"/><path class="o" d="M83.52,65.14c-1.13,1.67-3.16,1.63-4.73,2.46-2.39,1.27-4.9,2.32-7.05,4-2.9-2.65-5.9-5.16-9.82-6.19,.15-.15,.3-.31,.44-.46,4.6,0,9.2,0,13.79,0,.1,.32,.21,.28,.33,0h7.39l-.25-.06-.1,.24Z"/><path class="r" d="M93.56,65.06c7.04-.71,12.86,1.23,16.65,7.61-1.86,1.31-4.34-.39-6.13,1.26-.6-.63-1.19-1.26-1.79-1.88-1.97-3.51-5.65-4.87-8.73-6.98Z"/><path class="f" d="M131.12,107.51c2.44,.45,4.67-1.18,7.11-.69-.04,.16-.04,.33,0,.49-3.6,4.17-6.53,8.93-10.92,12.41,.58-4.29,2.25-8.23,3.82-12.21Z"/><path class="h" d="M93.56,65.06c3.08,2.12,6.76,3.48,8.73,6.98-2.03,.55-4.2,.33-6.16,1.22l-1.08-.63c-1.22-2.47-3.18-4.2-5.56-5.5,.21-.69,.41-1.39,.62-2.08,1.15,0,2.3,0,3.45,0Z"/><path class="q" d="M141.92,96.46c-2.42,0-4.85,0-7.27-.01,.42-1.87,.8-3.75,1.75-5.45,2.47-.08,4.98,.25,7.4-.6-.45,2.07-.76,4.19-1.87,6.06Z"/><path class="k" d="M137.24,88c.58-1.86,1.16-3.71,1.74-5.57,2.4,.21,4.79,.41,7.19,.62-.59,1.84-1.17,3.69-1.76,5.53-2.28-1.53-4.79-.26-7.17-.58Z"/><path class="l" d="M123.07,111.77c-2.15-.08-4.18,.45-6.16,1.2-1.4-1.84-1.23-4-1.24-6.12,2.07-1.17,4.13-.17,6.2,.01,.68,1.56,1.07,3.2,1.2,4.9Z"/><path class="l" d="M117.53,89.74c-.77,2.67-2.99,2.01-4.87,2.14-2.07,.14-1.97-1.62-2.42-2.86-.27-.75-.44-1.55-.65-2.33,2.24-.21,4.48-.42,6.72-.63,.03,1.35,1.55,2.21,1.22,3.68Z"/><path class="h" d="M139.63,80.6c.46-1.78,1.11-3.47,2.27-4.93,2.42-.67,4.89-.57,7.36-.54-.8,1.83-1.6,3.67-2.41,5.5-2.4-1.17-4.81-.65-7.22-.03Z"/><path class="m" d="M149.26,75.12c-2.47-.03-4.94-.12-7.36,.54,.98-2.17,2.31-4.07,4.27-5.48,1.84,1.41,4.27-.05,6.12,1.28l-2.43,3.05-.6,.6h0Z"/><path class="h" d="M116.31,86.06c-2.24,.21-4.48,.42-6.72,.63h-.03c-.19-.2-.38-.41-.58-.61,0-.2,0-.41,0-.61-.19-.81-.37-1.63-.56-2.44,2.19-.55,4.52,.28,6.68-.66,.7,1.13,1.25,2.31,1.21,3.69Z"/><path class="d" d="M104.08,73.93c1.79-1.65,4.27,.05,6.13-1.26,.8,.89,1.51,1.84,1.83,3.02-.52,.51-.75,1.35-1.9,.9-1.36-.53-2.66-.04-3.7,1.02-1.3-.9-2.08-2.13-2.36-3.68Z"/><path class="d" d="M137.24,88c2.38,.33,4.89-.95,7.17,.58-.2,.61-.41,1.21-.61,1.82-2.41,.85-4.92,.51-7.4,.6l.84-3Z"/><path class="k" d="M106.44,77.61c1.04-1.06,2.33-1.55,3.7-1.02,1.14,.45,1.38-.39,1.9-.9,.94,1.06,1.51,2.3,1.83,3.66-2.15,.25-4.6-.47-6.11,1.88l-.05-.05-.53-1.14-.74-2.42Z"/><path class="e" d="M107.76,81.23c1.51-2.35,3.95-1.63,6.11-1.88,.69,.89,1.08,1.91,1.23,3.02-2.16,.93-4.48,.11-6.68,.66-.22-.6-.44-1.2-.66-1.8Z"/><path class="e" d="M139.63,80.6c2.41-.63,4.82-1.14,7.22,.03-.23,.81-.45,1.62-.68,2.43-2.4-.21-4.79-.41-7.19-.62l.64-1.84Z"/><path class="q" d="M62.36,64.95c-.15,.15-.3,.3-.44,.46-1-.16-2-.33-3-.49,1.15-.23,2.3-.35,3.44,.03Z"/><path class="q" d="M83.52,65.14l.1-.24,.25,.05c.61-.05,1.21-.09,1.81-.14,.04,.16,.08,.31,.14,.46l-2.31-.14Z"/><path class="r" d="M85.82,65.28c-.05-.15-.1-.31-.14-.46,.63,.02,1.26,.04,1.88,.06-.58,.13-1.16,.27-1.75,.4Z"/><path class="f" d="M127.31,119.72l-.56,.67,.56-.67Z"/><path class="q" d="M76.48,64.96c-.12,.27-.23,.31-.33,0l.17-.11,.16,.12Z"/><path class="h" d="M162.31,98.28c-1.16,.72-1.4,2.06-2.1,3.08-3.48-.85-7.03-.52-10.56-.63-1.98-.07-4.06,.53-5.93-.64,3.28-5.89,6.56-11.77,9.85-17.66,3.09,1.77,6.49,1.16,9.78,1.19,1.83,.02,3.44,.25,4.37,2.06-1.3,4.41-4.27,8.11-5.4,12.59Z"/><path class="g" d="M153.56,82.44c-3.28,5.89-6.56,11.77-9.85,17.66-.93,.59-1.48,1.52-2.16,2.35-.31,.38-.32,1.95-1.49,.73,.62-2.24,1.24-4.48,1.86-6.71,1.11-1.87,1.42-3.99,1.87-6.06,.2-.61,.41-1.21,.61-1.82,.59-1.84,1.17-3.69,1.76-5.53,.23-.81,.45-1.62,.68-2.43,.8-1.83,1.6-3.67,2.41-5.5h0l.6-.61,2.43-3.05c2.7-2.59,5.68-4.76,9.2-6.11-1.74,6.12-4.82,11.61-7.93,17.09Z"/><path class="d" d="M51.56,92.84c-2.47,1.88-3.43,4.82-5.08,7.27-.56,.82-1.12,1.64-1.68,2.46-2.76,3.57-4.92,7.49-6.76,11.59l-1.01,.65c-.86,.29-1.7,.64-2.58,.85-4.99,1.17-9.5,4.09-14.83,4-.12-1.56,.61-2.86,1.3-4.17,1.14-.66,1.5-1.87,2.05-2.94,2.63-5.14,5.25-10.29,7.87-15.43,1.7,.61,3.32,.44,5.02-.16,4.48-1.59,9-3.06,13.49-4.6,.77-.26,1.49-.7,2.26-.05,0,.18-.03,.35-.06,.53Z"/><path class="q" d="M19.63,119.66c5.32,.09,9.84-2.83,14.83-4,.88-.21,1.72-.56,2.58-.85-.45,1.01-.89,2.03-1.34,3.04-1.02,2.04-2.05,4.08-3.07,6.11-.4,.41-.8,.81-1.2,1.22-3.29,.16-6.1,1.93-9.19,2.79-1.49,.41-2.91,.76-4.41,.23,.29-1.83,.57-3.66,.86-5.49,.54-.78,.52-1.66,.45-2.55l.49-.49Z"/><path class="l" d="M30.84,97.12c-2.62,5.15-5.23,10.29-7.87,15.43-.55,1.07-.91,2.28-2.05,2.94,.39-4.34,2.38-8.19,3.76-12.22,.36-1.05,.79-2.07,1.18-3.11,4.4-9.45,9.89-18.2,16.7-26.11,.94-.49,1.87-.97,2.8-1.46l.14,.14c-3.48,4.94-7.05,9.81-9.8,15.22-1.62,3.06-3.25,6.11-4.87,9.17Z"/><path class="d" d="M19.14,120.15c.06,.89,.09,1.77-.45,2.55-.07-.39-.14-.79-.22-1.18,.22-.46,.45-.91,.67-1.37Z"/><path class="q" d="M115.75,123.74c-3.27,1.92-6.85,1.6-10.37,1.24-1.72-.18-3.42-.42-5.15-.41-2.22-2.49-3.59-5.46-4.75-8.54,5.5,.92,11,.92,16.5,0,1.25,2.57,2.51,5.14,3.76,7.7Z"/><path class="e" d="M105.89,98.31c1.14,1.86,1.68,3.92,1.96,6.06-5.72,.22-11.44,.43-17.15,.65-.21-.18-.42-.37-.63-.55-.61-2.05-1.23-4.1-1.84-6.15h17.67Z"/><path class="k" d="M90.71,105.02c5.72-.22,11.43-.43,17.15-.65,.35,.63,.69,1.27,1.04,1.9,.26,1.4,.52,2.8,.78,4.2l-16.62,.05c-.92-1.78-1.88-3.54-2.36-5.51Z"/><path class="d" d="M93.07,110.53c5.54-.02,11.08-.03,16.62-.05,1.16,1.69,1.58,3.68,2.3,5.56-5.5,.92-11,.92-16.5,0-1.28-1.63-1.9-3.54-2.42-5.5Z"/><path class="i" d="M88.23,98.32c.61,2.05,1.23,4.1,1.84,6.15-1.56-.41-3.04-.2-4.44,.61-1.97-3.56-2.53-7.61-3.93-11.37-.49-1.32-.92-2.66-1.38-3.99,1.21-.4,2.42-.8,3.63-1.2,.19,.21,.39,.42,.59,.64l3.69,9.17Z"/><path class="j" d="M140.06,103.18c1.17,1.22,1.18-.35,1.49-.73,.68-.83,1.23-1.76,2.16-2.35,1.87,1.16,3.95,.57,5.93,.63,3.53,.12,7.08-.22,10.56,.63-.4,1.02-.8,2.03-1.2,3.05-.61,.82-1.21,1.63-1.82,2.45-6.15-.01-12.29-.03-18.44-.04l1.31-3.65Z"/><path class="k" d="M135.87,115.43c.57-1.45,1.14-2.9,1.7-4.36,5.92,1.13,11.85,1.02,17.78,.06,.08,.39,.08,.82,.26,1.15,2.06,3.65,2.01,3.94-1.45,6.81-.28-.93-.99-1.22-1.87-1.25-1.42-2.11-3.67-1.84-5.69-1.76-3.61,.13-7.19,.16-10.73-.65Z"/><path class="e" d="M155.35,111.14c-5.93,.96-11.86,1.06-17.78-.06,.22-1.25,.43-2.5,.65-3.76-.03-.16-.03-.33,0-.49,.17,0,.35,0,.52,0,6.15,.01,12.29,.03,18.44,.04-.61,1.42-1.23,2.84-1.84,4.27Z"/><path class="e" d="M152.29,117.84c.88,.03,1.59,.32,1.87,1.25-2.33,3.79-5.42,6.8-9.2,9.13,.23-.6,.45-1.2,.68-1.8,1.5-1.09,2.45-2.57,3.08-4.28,1.97-.79,2.26-2.97,3.57-4.3Z"/><path class="e" d="M144.32,128.22c.21,0,.43,0,.64,0-.21,0-.43,0-.64,0Z"/><path class="g" d="M38.05,114.17c1.83-4.11,3.99-8.03,6.76-11.59,2.08,1.47,4.8-.22,6.85,1.38-.62,1.37-1.25,2.75-1.87,4.12-2.21,1.5-2.47,4.39-4.35,6.14-2.46-.54-4.94,1.45-7.39-.05Z"/><path class="k" d="M31.43,125.18c.4-.41,.8-.81,1.2-1.22,1.77,1.74,4.04,1.04,6.12,1.24,.22,1.77-.82,3-1.82,4.25-2.26-.23-4.59,.3-6.78-.62,.42-1.22,.85-2.43,1.27-3.65Z"/><path class="m" d="M38.05,114.17c2.45,1.5,4.93-.49,7.39,.05-.36,2.36-2.1,2.81-4.09,3.2-1.88,.37-3.75,.45-5.65,.44,.45-1.01,.89-2.03,1.34-3.04,.34-.22,.68-.43,1.01-.65Z"/><path class="k" d="M39.41,125.22c-.23,0-.46-.01-.68-.02,.23,0,.46,.01,.68,.02Z"/><path class="l" d="M83.95,88.52c-1.21,.4-2.42,.8-3.63,1.2-.42-1.01-.85-2.03-1.27-3.04-.42-1.6-.84-3.2-1.26-4.79,.54-1,1.45-1.29,2.5-1.3,.37,.43,.75,.85,1.12,1.28,.46,1.64,1.13,3.17,2.4,4.37l.14,2.29Z"/><path class="p" d="M111.98,116.03c-.72-1.87-1.14-3.87-2.3-5.56-.26-1.4-.52-2.8-.78-4.2,2.13,.09,3.84-.81,5.11-2.43,1.24,.83,.83,2.24,1.65,3.02,.02,2.12-.16,4.28,1.24,6.12,.24,3.39,1.79,6.4,2.8,9.56,.34,1.05,.55,2.15,.82,3.22-.66,.67-1.4,1.2-2.39,1.21-.8-1.08-1.59-2.15-2.38-3.23-1.25-2.57-2.51-5.14-3.76-7.7Z"/><path class="q" d="M148.72,122.14c-.63,1.71-1.58,3.2-3.08,4.28-2.31-1.04-4.75-.53-7.14-.61-2.3-.08-4.62,.15-6.86-.6,.82-1.81,1.49-3.7,2.83-5.23,.55,1.82,1.99,2.13,3.6,2.14,3.55,.01,7.1,.01,10.65,.02Z"/><path class="o" d="M51.56,92.84c.03-.18,.05-.35,.06-.53,3.25-3.8,5.8-8.17,9.42-11.67,.49-.02,.98-.04,1.47-.05,.02,3.21-2,5.78-2.72,8.76-.28,1.16-.64,2.3-.96,3.44-.23,.4-.46,.8-.69,1.2-2.06-1.17-4.54,.1-6.58-1.15Z"/><path class="p" d="M51.65,103.96c-2.05-1.61-4.77,.08-6.85-1.38,.56-.82,1.12-1.64,1.68-2.46,2.6,.16,5.18-.05,7.76-.43-.41,1.7-1.23,3.15-2.59,4.27Z"/><path class="o" d="M62.53,80.58c-.23-.65,.14-.99,.63-1.29,.05,.56,0,1.06-.63,1.29Z"/><path class="h" d="M80.29,80.59c-1.05,.01-1.96,.29-2.5,1.3-1.61-1.53-2.36-3.53-3.04-5.57,0-.19,0-.39,0-.58,.76-.49,1.42-1.2,2.43-1.19,.74,2.16,2.72,3.7,3.11,6.05Z"/><path class="k" d="M74.76,75.73c0,.19,0,.39,0,.58-1.41,.39-2.27,1.26-2.45,2.74-.82-1.92-1.64-3.84-2.46-5.76,.61-.22,1.22-.43,1.83-.65,1.03,1.03,2.05,2.06,3.08,3.08Z"/><path class="k" d="M61.04,80.65c-3.62,3.5-6.18,7.86-9.42,11.67-.77-.66-1.49-.22-2.26,.05-4.49,1.54-9.02,3.01-13.49,4.6-1.7,.6-3.33,.77-5.02,.16,1.62-3.06,3.25-6.11,4.87-9.17,4.12,.33,7.68-1.73,11.46-2.79,4.68-1.3,9.25-2.99,13.87-4.51Z"/><polygon class="l" points="45.38 72.59 45.6 72.5 45.52 72.73 45.38 72.59"/><path class="j" d="M88.23,98.32c-1.23-3.06-2.46-6.11-3.69-9.17,5.87-1.29,11.83-.27,17.74-.66l-.04,.02c.23,.21,.46,.42,.69,.63,1.29,2.96,2.41,5.97,2.96,9.17-5.89,0-11.78,0-17.67,0Z"/><path class="l" d="M107.76,81.23c.22,.6,.44,1.2,.66,1.8,.19,.81,.37,1.63,.56,2.44-2.29-.19-4.71-1.83-6.75,.63-.21-.21-.42-.41-.64-.62-.72-1.88-.93-3.96-2.32-5.56-1.05-2.22-2.1-4.44-3.15-6.66,1.96-.89,4.14-.67,6.16-1.22,.6,.63,1.19,1.26,1.79,1.88,.27,1.56,1.06,2.78,2.36,3.68,.25,.81,.49,1.61,.74,2.42,.18,.38,.35,.76,.53,1.15l.05,.05Z"/><path class="e" d="M101.6,85.48l.64,.62c.02,.8,.03,1.6,.05,2.4-5.91,.39-11.87-.63-17.74,.66-.2-.21-.39-.42-.59-.64-.05-.76-.09-1.53-.14-2.29,1.03-.87,2.28-.74,3.48-.74,4.77,0,9.53,0,14.3,0Z"/><path class="e" d="M102.94,89.15c-.23-.21-.46-.42-.69-.63,.23,.21,.46,.42,.69,.63Z"/><path class="l" d="M108.98,86.08c.19,.2,.38,.41,.58,.61-.19-.2-.38-.41-.58-.61Z"/><path class="d" d="M148.72,122.14c-3.55,0-7.1,0-10.65-.02-1.61,0-3.06-.32-3.6-2.14,.03-1.66,.94-3.04,1.41-4.55,3.54,.81,7.12,.78,10.73,.65,2.02-.08,4.27-.35,5.69,1.76-1.31,1.33-1.61,3.51-3.57,4.3Z"/><path class="d" d="M96.13,73.26c1.05,2.22,2.1,4.44,3.14,6.66-4.26,1.47-8.65,.38-12.98,.64-1.75,.11-3.46,.09-4.88,1.3-.37-.43-.75-.85-1.12-1.28-.38-2.35-2.36-3.88-3.11-6.05,.32-1.69,1.63-2.15,3.06-2.47,4.89,1.27,9.87,.33,14.8,.57l1.08,.63Z"/><path class="q" d="M95.05,72.63c-4.93-.24-9.91,.7-14.8-.57,2.41-2.9,6-3.59,9.24-4.93,2.38,1.3,4.33,3.03,5.56,5.5Z"/><path class="h" d="M149.86,74.51l-.6,.6,.6-.6Z"/><path class="e" d="M107.71,81.17c-.18-.38-.35-.76-.53-1.15,.18,.38,.35,.76,.53,1.15Z"/><path class="k" d="M81.42,81.86c1.43-1.2,3.13-1.19,4.88-1.3,4.32-.26,8.72,.83,12.98-.64,1.39,1.6,1.6,3.68,2.32,5.56-4.77,0-9.53,0-14.3,0-1.21,0-2.46-.14-3.48,.74-1.26-1.2-1.94-2.72-2.4-4.36Z"/></g><circle class="n" cx="99.82" cy="99.82" r="99.82"/></g></g></g></svg>