<?xml version="1.0" encoding="UTF-8"?><svg xmlns="http://www.w3.org/2000/svg" viewBox="0 0 241.43 241.43"><defs><style>.d{fill:#30a6fc;}.e{fill:#000529;}.f{fill:none;}.g{fill:#011f37;}.h{fill:#2fa5f9;}</style></defs><g id="a"/><g id="b"><g id="c"><g><g><path class="g" d="M51.01,213.65c-16.76-4.09-26.78-16.43-26.82-33.56-.09-39.59-.09-79.18,0-118.76,.04-17.12,10.08-29.48,26.84-33.55,1.76,1.76,4,1.16,6.07,1.16,42.42,.03,84.83,.03,127.25,0,2.07,0,4.31,.59,6.07-1.16,16.76,4.08,26.78,16.43,26.82,33.56,.09,39.59,.09,79.18,0,118.76-.04,17.13-10.08,29.48-26.84,33.55-1.76-1.76-4-1.16-6.07-1.16-42.42-.03-84.83-.03-127.25,0-2.07,0-4.31-.58-6.07,1.16ZM102.21,74.5c-.43-.79-.9-.89-1.4-.06l-4.34-.1c-1.38-1.68-2.77-1.68-4.17-.03-5.25,.03-10.49,.07-15.74,.1-.45-.79-.91-.79-1.36,0-2.69,1.29-7.84-1.94-7.84,4.28,0,25.95,.02,51.89,.02,77.84,0,3.59,1.71,5.46,5.23,4.59,4.19-1.03,8.74-.44,12.64-2.74,2.91-8.34,.58-16.94,1.27-25.39,6.91-.55,13.81,.47,20.75-1.61,13.12-3.93,20.79-13.31,21.36-27.5,.5-12.5-7.13-23.06-19.7-27.24-2.23-.74-4.49-1.42-6.73-2.13Zm34.58,66.69c0,4.91,.02,8.88,0,12.84-.01,2.11,.76,3.6,2.84,4.39,12.13,4.59,24.25,5.42,35.62-1.67,11.98-7.47,11.71-23.88-.36-31.2-4.62-2.8-9.85-4.57-14.74-6.95-2.67-1.3-6.42-2.3-5.44-6.31,.94-3.84,4.67-3.39,7.68-3.45,6.09-.11,11.75,2.38,17.66,3.6,1.41-16.78,.43-17.9-15.6-18.02-3.07-.02-6.22-.09-9.21,.5-13.19,2.62-20.66,13.21-17.34,24.6,2.28,7.83,8.81,11.38,15.59,14.5,3.43,1.58,6.97,2.95,10.35,4.62,1.51,.74,2.62,2.13,2.31,4.04-.3,1.88-1.63,2.77-3.39,3.17-2.78,.63-5.54,1.04-8.44,.66-5.84-.76-11.41-2.49-17.54-5.34Z"/><path class="e" d="M190.42,27.78c-1.76,1.75-4,1.16-6.07,1.16-42.42,.03-84.83,.03-127.25,0-2.07,0-4.31,.6-6.07-1.16,2.81-.26,5.62-.74,8.43-.74,40.84-.05,81.68-.05,122.52,0,2.81,0,5.62,.49,8.43,.75Z"/><path class="e" d="M51.01,213.65c1.76-1.75,4-1.16,6.07-1.16,42.42-.03,84.83-.03,127.25,0,2.07,0,4.31-.59,6.07,1.16-2.81,.26-5.62,.74-8.44,.74-40.84,.05-81.68,.05-122.52,0-2.81,0-5.62-.48-8.44-.74Z"/><path class="d" d="M85.26,158.36c-3.9,2.31-8.45,1.72-12.64,2.74-3.52,.87-5.23-1-5.23-4.59,0-25.95,0-51.89-.02-77.84,0-6.22,5.15-2.99,7.84-4.28l.68,.15,.68-.15c5.25-.03,10.49-.07,15.74-.1l4.17,.03c1.45,.03,2.89,.07,4.34,.1l1.4,.06c2.24,.71,4.5,1.39,6.73,2.13,12.57,4.18,20.2,14.74,19.7,27.24-.56,14.19-8.24,23.57-21.36,27.5-6.93,2.08-13.84,1.06-20.75,1.61-3.07,8.33-.73,16.94-1.27,25.39Zm12.61-41.46c6.36-.73,11.38-3.38,12.68-10.15,1.04-5.4,.03-10.72-5.17-13.55-6.25-3.39-13.07-4.28-19.98-1.55,.19,8.51-1.89,17.11,1.14,25.5,3.34-.04,6.68-.09,10.02-.13l.66,.08,.64-.19Z"/><path class="h" d="M136.79,141.18c6.14,2.84,11.7,4.58,17.54,5.34,2.9,.38,5.66-.03,8.44-.66,1.75-.4,3.09-1.29,3.39-3.17,.3-1.91-.81-3.3-2.31-4.04-3.38-1.67-6.92-3.04-10.35-4.62-6.78-3.12-13.31-6.67-15.59-14.5-3.32-11.39,4.15-21.99,17.34-24.6,2.99-.59,6.14-.53,9.21-.5,16.03,.13,17,1.25,15.6,18.02-5.92-1.22-11.58-3.71-17.66-3.6-3.01,.05-6.74-.39-7.68,3.45-.98,4.01,2.76,5,5.44,6.31,4.88,2.38,10.12,4.15,14.74,6.95,12.07,7.32,12.34,23.73,.36,31.2-11.37,7.09-23.5,6.26-35.62,1.67-2.09-.79-2.86-2.28-2.84-4.39,.03-3.96,0-7.93,0-12.84Z"/><path class="e" d="M85.26,158.36c.54-8.46-1.79-17.06,1.27-25.39-.69,8.45,1.64,17.05-1.27,25.39Z"/><path class="e" d="M96.47,74.33l-4.17-.03c1.4-1.65,2.79-1.66,4.17,.03Z"/><path class="e" d="M76.57,74.41l-.68,.15-.68-.15c.46-.79,.91-.78,1.36,0Z"/><path class="e" d="M102.21,74.5l-1.4-.06c.5-.83,.96-.73,1.4,.06Z"/><path class="g" d="M96.57,117.01c-3.34,.04-6.68,.09-10.02,.13-.64-8.49,1.49-17.1-1.14-25.5,6.91-2.72,13.72-1.84,19.98,1.55,5.2,2.82,6.21,8.14,5.17,13.55-1.3,6.77-6.33,9.42-12.68,10.15-.5-.7-.92-.6-1.3,.11Z"/><path class="e" d="M85.41,91.65c2.63,8.4,.5,17.01,1.14,25.5-3.03-8.38-.95-16.99-1.14-25.5Z"/><path class="e" d="M96.57,117.01c.37-.71,.8-.81,1.3-.11l-.64,.19-.66-.08Z"/></g><circle class="f" cx="120.71" cy="120.71" r="120.71"/></g></g></g></svg>