<?xml version="1.0" encoding="UTF-8"?><svg xmlns="http://www.w3.org/2000/svg" viewBox="0 0 358.95 358.95"><defs><style>.d{fill:none;}.e{fill:#0c344b;}</style></defs><g id="a"/><g id="b"><g id="c"><g><path class="e" d="M185.15,13.56c.32,.59,.92,.58,1.47,.67,6.98,1.12,11.68,5.12,14.65,11.43,17.3,36.79,34.63,73.56,51.94,110.34,20.29,43.09,40.58,86.19,60.89,129.28,3.29,6.98,3.25,13.72-1.22,20.16-2.74,3.95-6.66,6.29-11.23,7.64-34.18,10.1-68.36,20.21-102.54,30.32-23.65,6.99-47.3,13.99-70.94,20.99-.66,.2-1.51,.15-1.83,1h-9.13c-.11-.45-.47-.59-.86-.71-5.28-1.59-8.98-5.04-11.92-9.62-13.64-21.27-27.43-42.43-41.05-63.71-6.79-10.61-14.08-20.91-20.2-31.94-.15-.26-.36-.43-.66-.46v-12.16c1.48-1.38,1.94-3.36,2.96-5.01,19.73-31.88,39.42-63.78,59.12-95.68,21.11-34.2,42.24-68.39,63.33-102.61,3.07-4.99,7.31-8.16,13.11-9.19,.54-.1,1.16-.07,1.4-.74h2.7Zm-52.82,300.55c0,4.26,2.55,6.86,6.04,6.97,1.44,.04,2.77-.43,4.12-.83,37.48-11.08,74.95-22.17,112.43-33.25,11.18-3.31,22.35-6.62,33.54-9.9,2.47-.72,4.33-2.08,5.32-4.52,1.07-2.62,.17-4.93-.93-7.28-31.08-65.97-62.15-131.94-93.23-197.91-1.49-3.16-2.96-6.32-4.5-9.46-.9-1.83-2.48-2.75-4.51-2.76-1.94-.01-3.49,.8-4.5,2.51-.53,.89-.68,1.9-.89,2.89-6.69,32.02-13.37,64.04-20.06,96.06-10.22,48.94-20.45,97.88-30.67,146.82-.79,3.8-1.55,7.61-2.18,10.66Z"/><circle class="d" cx="179.47" cy="179.47" r="179.47"/></g></g></g></svg>