<?xml version="1.0" encoding="UTF-8"?><svg xmlns="http://www.w3.org/2000/svg" viewBox="0 0 349.61 349.61"><defs><style>.d{fill:none;}.e{fill:#3770a0;}.f{fill:#fed344;}</style></defs><g id="a"/><g id="b"><g id="c"><g><g><path class="e" d="M113.91,92c19.79,0,39.58-.03,59.37,.04,1.91,0,2.73-.41,2.6-2.45-.15-2.25-.13-4.53,0-6.78,.13-2.09-.61-2.78-2.74-2.76-16.4,.08-32.8,.05-49.19,.06-9.9,0-19.79-.04-29.69,.06-2.05,.02-2.48-.68-2.47-2.6,.04-12.72-.16-25.45-.04-38.17,.08-8.57,4.6-14.98,10.98-20.15,9.11-7.38,19.92-11.07,31.21-13.12,26.96-4.9,53.98-5.17,80.88,.44,12.6,2.63,24.44,7.21,33.83,16.5,7.16,7.09,10.56,15.6,10.43,25.91-.3,25.16,0,50.32-.1,75.49-.05,14.7-4.49,27.54-17.16,36.24-9.12,6.26-19.47,8.92-30.46,8.94-26.95,.04-53.91-.03-80.86-.03-9.27,0-18.29,1.29-26.73,5.46-4.98,2.46-9.56,5.77-12.67,10.16-5.75,8.1-9.23,17.33-10.08,27.34-1.02,11.94-.22,23.92-.43,35.88-.05,3.2,0,6.41,.01,9.61,0,1.02-.06,1.89-1.45,1.85-11.2-.25-22.47,.98-33.58-.63-9.86-1.43-17.63-6.78-24.16-14.37-3.28-3.82-5.8-7.98-8.11-12.3-5.05-9.46-7.68-19.74-9.11-30.28-2.8-20.67-3.01-41.33,1.55-61.83,2.72-12.21,7.36-23.53,15.95-32.93,9.35-10.23,21.03-15.44,34.81-15.57,19.13-.17,38.26-.04,57.39-.04v.05Zm13.87-62.89c-8.38,.05-15.03,6.75-15.03,15.15,0,8.27,6.86,15.12,15.14,15.12,8.29,0,15.18-6.86,15.16-15.08-.02-8.53-6.77-15.25-15.27-15.2Z"/><path class="f" d="M237.79,257.6c-19.98,0-39.96,.03-59.94-.04-2.16,0-3.1,.49-2.92,2.8,.18,2.25,.14,4.53,0,6.78-.11,1.88,.62,2.42,2.45,2.4,8.2-.08,16.4-.04,24.6-.05,18,0,36,.03,54-.09,2.51-.02,3.15,.64,3.13,3.14-.11,11.97-.15,23.94,.09,35.9,.19,9.2-3.97,16.16-10.7,21.72-9.88,8.17-21.8,11.76-34.15,13.91-22.35,3.89-44.81,4.06-67.26,1.09-13.06-1.73-25.7-5.05-36.98-12.25-9.92-6.34-16.89-14.87-18.11-26.9-.65-6.44-.2-12.99-.18-19.49,.09-21.67-.04-43.35,.4-65.01,.39-19.49,12.09-33.89,30.89-39.09,5.75-1.59,11.58-2.41,17.57-2.39,27.33,.06,54.66,.07,81.99,0,8.08-.02,15.91-1.42,23.25-5.05,11.99-5.92,18.59-16.04,22.14-28.47,1.71-6,2.34-12.16,2.29-18.42-.1-11.87,.02-23.75-.09-35.62-.02-2.26,.66-2.88,2.89-2.85,7.82,.13,15.65,.18,23.46,.01,14.66-.31,25.96,6.06,34.73,17.34,8.54,10.98,12.45,23.89,14.82,37.35,2.31,13.1,.61,26.32,1.16,39.48,.43,10.34-.49,20.49-3.41,30.44-4.39,14.96-11.52,28.03-25.19,36.58-7.19,4.49-15.05,6.82-23.54,6.84-19.13,.03-38.26,.01-57.39,.01v-.06Zm-30,47.52c-1.1,7.81,6.92,15.22,14.52,15.51,8.11,.31,15.36-6.2,15.78-14.2,.44-8.32-6.02-15.64-14.15-16.05-9.03-.46-15.66,5.6-16.15,14.73Z"/></g><circle class="d" cx="174.81" cy="174.81" r="174.81"/></g></g></g></svg>