<?xml version="1.0" encoding="UTF-8"?><svg xmlns="http://www.w3.org/2000/svg" viewBox="0 0 206.99 206.99"><defs><style>.d{fill:#db7736;}.e{fill:none;}</style></defs><g id="a"/><g id="b"><g id="c"><g><path class="d" d="M122.49,10.68c6.07,.51,10.6,1.19,16.37,2.62,10.38,2.57,20.51,5.62,29.42,11.78,7.91,5.48,12,12.74,11.94,22.69-.21,37.13-.23,74.26,.01,111.39,.07,10.74-4.5,18.3-13.19,23.92-11.85,7.66-25.22,10.96-38.89,12.84-23.58,3.24-47.01,2.36-70-4.51-5.01-1.5-9.81-3.48-14.44-5.93-11.23-5.95-17.21-14.29-16.96-27.95,.66-36.49,.5-73.01,.07-109.51-.13-11.21,4.65-18.62,13.59-24.2,12.5-7.8,26.56-10.67,40.84-12.84,1.34-.2,9.28-1.04,11.23-1.28,8-1,18.05,0,30,1Zm-18.97,12.7c-13.65-.19-27.06,1.39-40.17,5.19-7.04,2.04-13.88,4.66-19.42,9.67-4.23,3.83-4.2,7.21-.08,11.15,4,3.82,8.99,5.97,14.08,7.9,12.43,4.72,25.46,6.37,38.6,6.89,19.31,.77,38.36-.91,56.38-8.55,5.66-2.4,13.04-5.07,12.93-12.03-.1-6.58-7.33-9.03-12.83-11.45-15.76-6.92-32.5-8.67-49.5-8.77Zm62.87,41c-3.92,1.79-6.7,3.18-9.56,4.34-3.08,1.25-6.18,2.59-9.4,3.37-35.07,8.54-69.69,8.99-103.38-6.06-1.31-.59-2.77-2.41-3.61,.7-4.06,15.05,.5,24.4,15.02,30.38,2.5,1.03,5.06,1.95,7.66,2.68,22.25,6.31,44.8,6.69,67.49,3.02,10.13-1.64,19.98-4.28,28.76-9.85,3.55-2.25,6.95-4.84,7-9.67,.06-5.99,.01-11.99,.01-18.91Zm-.01,40.58c-6.8,3.55-13.01,6.45-19.65,8.1-34.71,8.57-68.93,8.68-102.26-6.07-1.6-.71-3.24-2.43-4.03,1.05-3.68,16.17,.22,23.84,15.66,30.05,3.08,1.24,6.28,2.25,9.5,3.1,19.42,5.14,39.14,5.88,58.98,3.34,11.41-1.47,22.65-3.88,32.81-9.63,4.16-2.35,8.66-4.87,8.93-10.44,.29-6.18,.07-12.38,.07-19.5Zm-125.93,41.61c0,3.63,.41,6.99-.08,10.22-1.33,8.79,3.27,13.68,10.49,17.08,1.88,.88,3.74,1.87,5.7,2.52,31.26,10.44,62.75,10.98,93.72-.24,17.91-6.49,17.51-9.67,15.25-29.23-41.41,17.01-82.78,16.99-125.08-.34Z"/><circle class="e" cx="103.5" cy="103.5" r="103.5"/></g></g></g></svg>