<?xml version="1.0" encoding="UTF-8"?><svg xmlns="http://www.w3.org/2000/svg" viewBox="0 0 292.76 292.76"><defs><style>.d{fill:#fd3f04;}.e{fill:#fdfbfa;}.f{fill:none;}</style></defs><g id="a"/><g id="b"><g id="c"><g><g><path class="d" d="M182.4,10.62c55.7-.19,97.03,66.05,66.87,118.35-1.71,2.97-1.07,5.11,.07,7.91,15.33,37.8,3.86,73.34-30.68,95.34-19.28,12.28-38.57,24.56-57.89,36.78-52.69,33.32-121.26-.09-127.11-62.06-1.38-14.56,1.76-28.49,8.96-41.28,1.93-3.44,2.34-6.03,.69-9.92-15.19-35.8-3.57-72.79,29.2-93.85,20.11-12.92,40.28-25.74,60.4-38.64,13.02-8.35,27.21-12.69,49.5-12.64Zm41.33,96.86c7.68-19.99,2.24-40.47-13.87-54.08-16.1-13.59-38.9-15.95-56.72-4.98-21.91,13.48-43.48,27.51-65.09,41.46-8.85,5.71-14.68,13.86-17.6,24-5.35,18.61,1.4,38.43,17.2,50.74,15.6,12.15,37.36,14.03,54.23,4.27,8.99-5.2,17.49-11.24,26.48-16.46,7.15-4.15,15.46-1.88,19.89,4.74,4.23,6.33,3.32,14.39-3.18,18.64-21.3,13.96-42.73,27.72-64.4,41.08-7.7,4.75-18.73,1.11-20.35-7.45-1.61-8.5-6.48-10.92-13.22-13.22-4.12-1.41-7.92-3.9-11.65-6.23-7.64-4.78-8-4.82-9.36,4.37-2.99,20.2,3.99,36.61,20.69,48.03,17.17,11.74,35.62,12.73,53.59,1.76,21.51-13.13,42.58-26.98,63.78-40.62,8.84-5.69,14.84-13.65,17.97-23.74,5.66-18.27-.84-38.37-16.51-50.98-15.82-12.74-38.34-14.62-55.54-4.39-8.71,5.18-17.03,11.01-25.79,16.09-7.34,4.25-16.22,1.56-20.31-5.5-3.93-6.79-2.18-14.16,5.08-18.86,20.51-13.27,41.04-26.5,61.81-39.36,10.29-6.37,21.5-.66,22.96,11.38,.36,2.97,.85,4.59,3.98,5.51,9.3,2.74,17.57,7.62,25.95,13.79Z"/><path class="e" d="M223.73,107.48c-8.38-6.17-16.65-11.05-25.95-13.79-3.14-.92-3.62-2.54-3.98-5.51-1.46-12.05-12.67-17.76-22.96-11.38-20.77,12.86-41.3,26.1-61.81,39.36-7.26,4.7-9,12.07-5.08,18.86,4.09,7.06,12.96,9.75,20.31,5.5,8.76-5.07,17.08-10.91,25.79-16.09,17.2-10.23,39.72-8.34,55.54,4.39,15.67,12.61,22.17,32.7,16.51,50.98-3.12,10.09-9.13,18.05-17.97,23.74-21.19,13.64-42.27,27.49-63.78,40.62-17.96,10.97-36.42,9.98-53.59-1.76-16.7-11.42-23.68-27.83-20.69-48.03,1.36-9.19,1.72-9.15,9.36-4.37,3.73,2.34,7.53,4.83,11.65,6.23,6.75,2.31,11.61,4.72,13.22,13.22,1.62,8.56,12.66,12.2,20.35,7.45,21.67-13.36,43.1-27.13,64.4-41.08,6.5-4.26,7.41-12.32,3.18-18.64-4.43-6.62-12.74-8.89-19.89-4.74-8.98,5.22-17.48,11.26-26.48,16.46-16.87,9.75-38.63,7.88-54.23-4.27-15.8-12.31-22.55-32.13-17.2-50.74,2.91-10.14,8.75-18.29,17.6-24,21.61-13.95,43.18-27.99,65.09-41.46,17.82-10.96,40.63-8.6,56.72,4.98,16.12,13.61,21.55,34.09,13.87,54.08Z"/></g><circle class="f" cx="146.38" cy="146.38" r="146.38"/></g></g></g></svg>