<?xml version="1.0" encoding="UTF-8"?><svg xmlns="http://www.w3.org/2000/svg" viewBox="0 0 165 165"><defs><style>.d{fill:#38bcf7;}.e{fill:#3cbcf4;}.f{fill:none;}</style></defs><g id="a"/><g id="b"><g id="c"><g><g><path class="e" d="M44.63,66.03c3.33-13.41,9.95-24.13,24.4-28.05,11.29-3.07,22.28-2.45,33,2.29,4.53,2,8.24,5.16,11.83,8.48,4.44,4.12,8.14,9.05,13.54,12.12,6.25,3.55,12.57,3.68,19.19,.92,4.87-2.03,8.22-5.76,12.29-10.04-1.35,6.75-3.76,12.15-7.31,17.04-7.03,9.7-17.08,13.17-28.54,13.82-15.03,.85-27.16-4.91-37.14-15.88-2.95-3.24-6.03-6.47-9.81-8.68-9.1-5.31-19.29-3.67-27.35,4.07-1.36,1.31-2.74,2.6-4.1,3.9Z"/><path class="e" d="M119.53,99.84c-1.52,9.66-6.21,17.63-14.45,22.65-14.08,8.57-28.96,8.06-43.64,1.42-5.96-2.69-10.55-7.48-15.01-12.23-3.56-3.8-7.32-7.45-12.3-9.2-10.24-3.59-18.46,.2-25.55,7.55-.75,.78-1.49,1.57-2.46,2.18,2.46-9.24,5.96-17.67,14.56-23.19,14.33-9.21,29.04-8.45,43.97-2.11,4.73,2.01,8.33,5.8,12.07,9.25,3.15,2.91,6.09,6.04,9.36,8.84,7.33,6.27,19.4,6.49,26.89,.42,2.24-1.81,3.99-4.19,6.59-5.55l-.03-.03Zm-3.41,5.67c-1.4,.98-3.16,1.14-4.25,2.14-3.72,3.41-8.42,4.12-12.94,4.01-5.52-.13-10.44-3.04-15.17-5.72-1.06-.6-1.46-2.28-3.27-1.61-.31,.11-.59-.56-.41-.93,.9-1.79-.71-2.43-1.5-3.47-3.92-5.18-9.58-8.26-14.78-11.82-2.2-1.5-4.82-2.91-7.61-3.23-5.69-.66-11.3-1.29-17.15-.83-11.52,.89-20.06,6.27-26.47,15.38-1.42,2.02-2.86,4.41-3.41,7.56,2.66-1.34,4.23-3.49,6.39-4.5,7.58-3.52,15.12-3.72,22.91,.07,2.56,1.25,3.83,4.46,7.14,4.29,.66-.04,.53,.37,.23,.73-1.09,1.31,.23,1.72,.91,2.28,.99,.82,2.3,1.35,3.05,2.33,2.53,3.27,5.37,6.38,8.88,8.33,2.53,1.4,5.06,4.74,9.21,2.03-2.07,2.76-.03,2.89,1.44,3.42,1.43,.51,2.93,.29,4.41,.62,7.2,1.62,14.38,1.17,21.47-.8,.46-.13,1.25-.42,1.25-.65,.08-2.83,1.75-2.43,3.61-1.98,.49,.12,1.19-.17,1.66-.48,2.29-1.54,4.87-2.64,6.81-4.74,3.36-3.63,6.35-7.44,7.6-12.43Z"/><path class="e" d="M119.56,99.87l.57-1.16,.17,.1c-.26,.34-.51,.68-.77,1.02l.03,.03Z"/><path class="d" d="M116.12,105.51c-1.25,4.99-4.25,8.8-7.6,12.43-1.94,2.09-4.51,3.19-6.81,4.74-.46,.31-1.17,.6-1.66,.48-1.87-.46-3.54-.85-3.61,1.98,0,.23-.79,.53-1.25,.65-7.09,1.96-14.27,2.42-21.47,.8-1.48-.33-2.99-.11-4.41-.62-1.47-.53-3.51-.66-1.44-3.42-4.15,2.71-6.68-.63-9.21-2.03-3.5-1.95-6.35-5.06-8.88-8.33-.76-.98-2.06-1.51-3.05-2.33-.68-.56-2-.97-.91-2.28,.3-.36,.44-.77-.23-.73-3.31,.18-4.58-3.04-7.14-4.29-7.78-3.79-15.33-3.59-22.91-.07-2.16,1-3.73,3.16-6.39,4.5,.55-3.16,1.99-5.54,3.41-7.56,6.4-9.11,14.94-14.49,26.47-15.38,5.85-.45,11.47,.17,17.15,.83,2.78,.32,5.41,1.73,7.61,3.23,5.2,3.56,10.85,6.63,14.78,11.82,.79,1.04,2.41,1.68,1.5,3.47-.18,.37,.1,1.04,.41,.93,1.82-.68,2.21,1,3.27,1.61,4.73,2.68,9.65,5.59,15.17,5.72,4.52,.11,9.22-.6,12.94-4.01,1.09-1,2.85-1.16,4.25-2.14Z"/></g><circle class="f" cx="82.5" cy="82.5" r="82.5"/></g></g></g></svg>