<?xml version="1.0" encoding="UTF-8"?><svg xmlns="http://www.w3.org/2000/svg" viewBox="0 0 420 420"><defs><style>.d{fill:#017acc;}.e{fill:none;}.f{fill:#fafbfc;}</style></defs><g id="a"/><g id="b"><g id="c"><g><g><path class="d" d="M60.82,209.5c0-47.57,.08-95.14-.12-142.71-.02-5.06,1.39-6.19,6.31-6.18,95.34,.15,190.68,.15,286.02,0,4.91,0,6.3,1.09,6.29,6.17-.17,95.34-.18,190.68,0,286.02,0,5.32-1.31,6.61-6.59,6.6-95.14-.17-190.28-.17-285.42,0-5.26,0-6.65-1.24-6.63-6.59,.23-47.77,.13-95.54,.13-143.31Zm228.13,124.94c2.6,0,5.21,.15,7.79-.02,18.78-1.26,33.74-12.52,37.63-28.27,4.59-18.58-2.47-34.96-19.6-45.38-8.22-5-17.12-8.61-25.84-12.56-3.46-1.57-6.94-3.15-9.8-5.71-3.94-3.53-5.18-8.03-3.85-13.07,1.32-5.01,4.97-7.59,9.93-8.31,7.34-1.08,13.61,1.03,17.75,7.34,2.36,3.61,4.4,3.63,7.59,1.27,4.01-2.97,8.15-5.81,12.49-8.26,4.21-2.38,3.54-4.44,1.04-7.88-10.7-14.67-25.69-18.14-42.49-16.51-16.44,1.59-29.1,12.05-32.95,26.42-4.26,15.92,1.07,31.53,14.27,41.65,4.46,3.42,9.42,5.99,14.5,8.36,7.59,3.55,15.24,7.01,22.69,10.85,5.71,2.94,8.44,7.79,7.34,14.37-1.03,6.22-5.55,8.97-10.99,10.52-12.22,3.47-23.52-.61-32.04-11.91-2.24-2.98-3.74-3.74-7.01-1.54-4.63,3.12-9.52,5.88-14.51,8.4-3.45,1.74-3.51,3.38-1.51,6.43,11.28,17.16,27.82,23.71,47.57,23.82Zm-123.99-56.99c0,16.97,.08,33.95-.06,50.92-.03,3.5,.77,5.06,4.64,4.83,5.57-.33,11.21-.44,16.76,.02,5.06,.43,6.25-1.27,6.21-6.23-.24-32.55,.03-65.1-.26-97.65-.05-5.68,1.69-6.96,6.98-6.71,9.17,.42,18.37-.07,27.55,.2,3.79,.11,4.87-1.14,4.63-4.77-.32-4.97-.43-10-.09-14.97,.28-4.21-1.51-5.11-5.23-4.9-4.38,.25-8.78,0-13.18,0-26.16,0-52.32-.07-78.48,.02-9.59,.03-8.03-.6-8.25,8.5-.09,3.79,.2,7.61-.1,11.38-.29,3.69,.94,4.83,4.67,4.73,9.78-.25,19.57,.11,29.35-.18,4.05-.12,4.97,1.28,4.92,5.08-.19,16.57-.08,33.15-.07,49.72Z"/><path class="f" d="M288.94,334.44c-19.75-.11-36.28-6.66-47.57-23.82-2-3.05-1.94-4.69,1.51-6.43,4.98-2.52,9.88-5.28,14.51-8.4,3.27-2.2,4.76-1.44,7.01,1.54,8.52,11.3,19.82,15.38,32.04,11.91,5.44-1.54,9.96-4.29,10.99-10.52,1.09-6.58-1.64-11.43-7.34-14.37-7.45-3.84-15.09-7.3-22.69-10.85-5.08-2.37-10.04-4.94-14.5-8.36-13.19-10.12-18.53-25.73-14.27-41.65,3.85-14.37,16.51-24.83,32.95-26.42,16.8-1.63,31.79,1.84,42.49,16.51,2.51,3.44,3.18,5.5-1.04,7.88-4.34,2.45-8.48,5.3-12.49,8.26-3.19,2.36-5.23,2.34-7.59-1.27-4.13-6.31-10.4-8.42-17.75-7.34-4.96,.73-8.61,3.31-9.93,8.31-1.33,5.04-.09,9.54,3.85,13.07,2.86,2.56,6.34,4.14,9.8,5.71,8.73,3.95,17.63,7.56,25.84,12.56,17.13,10.43,24.19,26.8,19.6,45.38-3.89,15.75-18.85,27.02-37.63,28.27-2.59,.17-5.19,.02-7.79,.02Z"/><path class="f" d="M164.95,277.44c0-16.57-.11-33.15,.08-49.72,.04-3.8-.87-5.2-4.92-5.08-9.78,.29-19.57-.07-29.35,.18-3.73,.1-4.97-1.05-4.67-4.73,.3-3.77,0-7.58,.1-11.38,.22-9.1-1.34-8.47,8.25-8.5,26.16-.08,52.32-.03,78.48-.02,4.39,0,8.8,.24,13.18,0,3.72-.21,5.51,.69,5.23,4.9-.33,4.97-.22,9.99,.09,14.97,.23,3.64-.84,4.88-4.63,4.77-9.18-.27-18.38,.22-27.55-.2-5.29-.24-7.03,1.04-6.98,6.71,.3,32.55,.03,65.1,.26,97.65,.04,4.97-1.15,6.66-6.21,6.23-5.55-.47-11.19-.35-16.76-.02-3.88,.23-4.67-1.33-4.64-4.83,.14-16.97,.06-33.95,.06-50.92Z"/></g><circle class="e" cx="210" cy="210" r="210"/></g></g></g></svg>