<?xml version="1.0" encoding="UTF-8"?><svg xmlns="http://www.w3.org/2000/svg" viewBox="0 0 272 272"><defs><style>.d{fill:#fdfefe;}.e{fill:#23769b;}.f{fill:#21759b;}</style></defs><g id="a"/><g id="b"><g id="c"><g><path class="d" d="M271.98,143.3c0,42.5,0,84.99,.02,127.48,0,.99-.22,1.22-1.22,1.22-89.85-.03-179.71-.03-269.56,0-.99,0-1.22-.22-1.22-1.22C.03,180.93,.03,91.07,0,1.22,0,.22,.22,0,1.22,0c42.58,.03,85.17,.02,127.75,.02-.24,.39-.64,.23-.96,.25-6.45,.34-12.85,1.18-19.16,2.51-26.18,5.51-49.1,17.38-67.9,36.4C8.31,72.19-4.67,111.94,2.17,157.86c3.58,24.08,13.54,45.55,29.13,64.22,23.15,27.72,52.71,44.01,88.6,48.62,12.54,1.61,25.05,1.31,37.52-.66,17.11-2.71,33.25-8.29,47.97-17.42,39.16-24.3,61.33-59.38,66.11-105.32,.14-1.33-.08-2.72,.47-4Z"/><path class="e" d="M271.98,143.3c-.55,1.29-.33,2.67-.47,4-4.78,45.95-26.95,81.02-66.11,105.32-14.72,9.14-30.87,14.72-47.97,17.42-12.47,1.97-24.98,2.27-37.52,.66-35.9-4.61-65.46-20.9-88.6-48.62-15.59-18.67-25.55-40.13-29.13-64.22-6.84-45.93,6.14-85.68,38.78-118.68C59.75,20.16,82.67,8.29,108.85,2.78c6.32-1.33,12.71-2.16,19.16-2.51,.33-.02,.72,.14,.96-.25h14.33c.24,.39,.64,.23,.96,.25,4.42,.22,8.81,.7,13.17,1.4,17.01,2.74,33.09,8.23,47.75,17.29,39.28,24.29,61.54,59.41,66.33,105.46,.15,1.42-.05,2.89,.47,4.27v14.59ZM136.14,6.27C64.7,6.25,6.66,64.25,6.55,135.79c-.12,71.42,58.08,129.66,129.58,129.67,71.45,.01,129.48-57.99,129.59-129.53,.11-71.44-58.06-129.65-129.58-129.67Z"/><path class="d" d="M271.98,128.7c-.52-1.38-.32-2.85-.47-4.27-4.79-46.05-27.05-81.17-66.33-105.46-14.66-9.06-30.74-14.56-47.75-17.29-4.36-.7-8.75-1.19-13.17-1.4-.33-.02-.72,.14-.96-.25C185.79,.02,228.29,.03,270.78,0c.99,0,1.22,.22,1.22,1.22-.03,42.49-.02,84.99-.02,127.49Z"/><path class="d" d="M136.14,6.27c71.53,.02,129.7,58.23,129.58,129.67-.11,71.54-58.14,129.54-129.59,129.53-71.5-.01-129.7-58.25-129.58-129.67C6.66,64.25,64.7,6.25,136.14,6.27Zm58.99,229.98c.28-.13,.57-.24,.83-.4,17.18-10.39,30.94-24.18,40.97-41.57,13.31-23.06,18.08-47.87,14.63-74.25-1.78-13.62-5.98-26.48-12.41-38.61-.14-.27-.15-.68-.64-.75,.02,.39,.03,.74,.07,1.09,1.19,10.6,.49,21.07-1.83,31.47-1.62,7.26-4.22,14.19-6.66,21.19-10.41,29.82-20.7,59.69-31.02,89.54-1.4,4.04-2.73,8.1-4.09,12.16-.05,.06-.16,.15-.15,.16,.1,.16,.2,.08,.28-.03Zm-110.22,4.18c.05,.06,.14,.17,.15,.16,.14-.1,.09-.2-.02-.3-.11-.38-.21-.77-.34-1.14-18.16-49.78-36.32-99.55-54.49-149.32-.13-.37-.1-.88-.63-1.07-5.89,13.28-9.17,27.18-9.83,41.66-.65,14.21,1.12,28.14,5.64,41.65,8.99,26.88,25.6,47.82,49.55,62.93,3.2,2.02,6.47,3.96,9.99,5.42Zm22.2-33.19c.2-.33,.29-.43,.33-.55,8.33-24.99,16.66-49.98,25-74.96,.2-.6,.13-1.1-.07-1.65-5.83-15.95-11.66-31.91-17.46-47.87-.26-.71-.6-1.01-1.39-1.07-3.74-.29-7.48-.66-11.22-1.01-1.64-.15-2.98-.82-3.78-2.32-1.82-3.39,.58-7.42,4.41-7.25,5.39,.24,10.76,.65,16.15,.96,7.95,.45,15.9,.58,23.86,.27,7.24-.28,14.47-.8,21.71-1.23,2.99-.17,5.01,1.54,5.2,4.26,.2,2.93-1.55,5.03-4.51,5.31-3.87,.37-7.74,.75-11.62,.99-1.26,.08-1.49,.3-1.07,1.55,13.72,40.72,27.41,81.45,41.12,122.18,.14,.42,.1,.97,.67,1.23,2.55-8.52,5.15-17,7.62-25.51,3.47-11.95,7.53-23.72,10.64-35.77,2.12-8.23,2.76-16.52,1.22-24.94-1.53-8.34-5.02-15.87-9.36-23.06-2.71-4.5-5.61-8.89-7.78-13.7-2.46-5.46-3.78-11.09-2.54-17.12,1.71-8.29,8.14-14.6,16.42-15.95,1.26-.21,2.57-.16,4.02-.24-4.31-3.92-8.7-7.4-13.37-10.53-17.48-11.72-36.7-18.32-57.72-19.66-13.99-.89-27.7,.64-41.12,4.7-15.69,4.74-29.75,12.48-42.19,23.15-8,6.86-14.94,14.67-20.83,23.41-.37,.55-.84,1.05,.4,1.06,5.26,.04,10.52,.08,15.78-.13,7.24-.28,14.47-.82,21.71-1.23,2.91-.16,4.82,1.59,5.06,4.43,.22,2.62-1.55,4.77-4.3,5.12-1.97,.25-3.96,.4-5.94,.57-2.44,.21-4.88,.4-7.41,.6,14.12,42.01,28.21,83.9,42.34,125.95Zm31.09-61.12c-.19,.49-.27,.7-.35,.91-11.41,33.16-22.82,66.32-34.26,99.47-.34,1-.07,1.26,.84,1.51,8.71,2.42,17.58,3.89,26.62,4.28,13.99,.59,27.67-1.23,41-5.55,.84-.27,2.01-.35,2.4-.94,.49-.73-.6-1.59-.75-2.48-.01-.08-.07-.16-.1-.24-11.01-30.17-22.01-60.34-33.02-90.51-.75-2.06-1.52-4.12-2.38-6.44Z"/><path class="f" d="M107.1,207.24c-14.14-42.05-28.22-83.94-42.34-125.95,2.53-.21,4.97-.39,7.41-.6,1.98-.17,3.96-.32,5.94-.57,2.74-.35,4.51-2.5,4.3-5.12-.23-2.84-2.15-4.59-5.06-4.43-7.24,.4-14.47,.94-21.71,1.23-5.26,.21-10.52,.16-15.78,.13-1.24,0-.77-.51-.4-1.06,5.89-8.74,12.83-16.55,20.83-23.41,12.44-10.67,26.5-18.41,42.19-23.15,13.42-4.05,27.13-5.59,41.12-4.7,21.02,1.34,40.24,7.94,57.72,19.66,4.67,3.13,9.06,6.61,13.37,10.53-1.45,.08-2.75,.04-4.02,.24-8.28,1.35-14.71,7.66-16.42,15.95-1.24,6.03,.08,11.66,2.54,17.12,2.16,4.81,5.06,9.2,7.78,13.7,4.34,7.19,7.83,14.71,9.36,23.06,1.54,8.42,.91,16.71-1.22,24.94-3.11,12.05-7.17,23.83-10.64,35.77-2.47,8.52-5.07,16.99-7.62,25.51-.57-.26-.53-.81-.67-1.23-13.71-40.73-27.39-81.46-41.12-122.18-.42-1.25-.2-1.47,1.07-1.55,3.88-.24,7.75-.62,11.62-.99,2.96-.28,4.71-2.38,4.51-5.31-.19-2.72-2.21-4.43-5.2-4.26-7.24,.42-14.47,.94-21.71,1.23-7.96,.31-15.91,.18-23.86-.27-5.38-.3-10.76-.72-16.15-.96-3.83-.17-6.23,3.86-4.41,7.25,.81,1.5,2.15,2.16,3.78,2.32,3.74,.35,7.48,.72,11.22,1.01,.79,.06,1.13,.35,1.39,1.07,5.81,15.96,11.63,31.92,17.46,47.87,.2,.55,.27,1.05,.07,1.65-8.35,24.98-16.67,49.97-25,74.96-.04,.12-.13,.22-.33,.55Z"/><path class="f" d="M138.19,146.13c.86,2.32,1.63,4.38,2.38,6.44,11.01,30.17,22.01,60.34,33.02,90.51,.03,.08,.09,.16,.1,.24,.15,.89,1.24,1.75,.75,2.48-.39,.59-1.56,.67-2.4,.94-13.33,4.32-27.01,6.14-41,5.55-9.03-.38-17.9-1.86-26.62-4.28-.91-.25-1.18-.51-.84-1.51,11.44-33.15,22.85-66.31,34.26-99.47,.07-.21,.16-.41,.35-.91Z"/><path class="f" d="M84.9,240.43c-3.52-1.46-6.78-3.4-9.99-5.42-23.95-15.12-40.56-36.05-49.55-62.93-4.52-13.51-6.28-27.44-5.64-41.65,.66-14.48,3.94-28.37,9.83-41.66,.53,.19,.5,.7,.63,1.07,18.17,49.77,36.34,99.55,54.49,149.32,.14,.37,.23,.76,.34,1.14-.04,.04-.09,.09-.13,.14Z"/><path class="f" d="M194.99,236.12c1.36-4.05,2.69-8.12,4.09-12.16,10.32-29.85,20.61-59.72,31.02-89.54,2.44-7,5.04-13.93,6.66-21.19,2.32-10.4,3.02-20.88,1.83-31.47-.04-.35-.05-.7-.07-1.09,.49,.07,.5,.48,.64,.75,6.43,12.13,10.63,24.99,12.41,38.61,3.44,26.38-1.32,51.19-14.63,74.25-10.04,17.38-23.8,31.18-40.97,41.57-.26,.16-.55,.27-.83,.4-.04-.04-.09-.09-.13-.13Z"/><path class="f" d="M195.13,236.25c-.08,.11-.17,.19-.28,.03-.01-.02,.09-.11,.14-.16,.04,.04,.09,.09,.13,.13Z"/><path class="f" d="M85.03,240.29c.11,.09,.16,.2,.02,.3,0,0-.1-.11-.15-.16,.04-.05,.09-.09,.13-.14Z"/></g></g></g></svg>