<?xml version="1.0" encoding="UTF-8"?><svg id="a" xmlns="http://www.w3.org/2000/svg" xmlns:xlink="http://www.w3.org/1999/xlink" viewBox="0 0 1920 6400"><defs><style>.l{filter:url(#b);}.l,.m,.n,.o{fill:#6b0022;}.m{filter:url(#d);}.p{fill:#001247;filter:url(#h);}.n{filter:url(#f);}.o{filter:url(#j);}</style><filter id="b" filterUnits="userSpaceOnUse"><feOffset dx="9" dy="9"/><feGaussianBlur result="c" stdDeviation="8"/><feFlood flood-color="#000" flood-opacity=".75"/><feComposite in2="c" operator="in"/><feComposite in="SourceGraphic"/></filter><filter id="d" filterUnits="userSpaceOnUse"><feOffset dx="9" dy="9"/><feGaussianBlur result="e" stdDeviation="8"/><feFlood flood-color="#000" flood-opacity=".75"/><feComposite in2="e" operator="in"/><feComposite in="SourceGraphic"/></filter><filter id="f" filterUnits="userSpaceOnUse"><feOffset dx="9" dy="9"/><feGaussianBlur result="g" stdDeviation="8"/><feFlood flood-color="#000" flood-opacity=".75"/><feComposite in2="g" operator="in"/><feComposite in="SourceGraphic"/></filter><filter id="h" filterUnits="userSpaceOnUse"><feOffset dx="-9" dy="-9"/><feGaussianBlur result="i" stdDeviation="8"/><feFlood flood-color="#000" flood-opacity=".75"/><feComposite in2="i" operator="in"/><feComposite in="SourceGraphic"/></filter><filter id="j" filterUnits="userSpaceOnUse"><feOffset dx="9" dy="9"/><feGaussianBlur result="k" stdDeviation="8"/><feFlood flood-color="#000" flood-opacity=".75"/><feComposite in2="k" operator="in"/><feComposite in="SourceGraphic"/></filter></defs><path class="l" d="M-551.28,6990.73c360.09-407.45,744.04-610.62,1019.77-720.24,714.06-283.9,1413.19-158.46,2101.59-510.17,520.64-266,467.7-559.13,511.34-615.85,94.59-122.94,156.54-233.25,196.46-314.47,41.37,37.51,82.74,75.03,124.12,112.54-125.9,275.82-362.76,641.99-840.3,880.3-618.45,308.62-934.23,211.32-1744.34,393.88-901.94,203.25-1192.91,989.71-1341.8,926.56-45.44-19.27-39.75-91.8-26.84-152.55Z"/><path class="m" d="M-527.52-175.91C-398.09-33.85-98.87-237.84,131.64-76.55c155.83,109.04,84.84,248.28,220.83,355.13,255.64,200.86,636.7-188.97,1039.74-69.08,462.86,137.68,496.83,811.38,679.8,794.29,244.43-22.84,652.64-1268.84,115.92-1904.85C1521.59-1690.65-290.52-1171.96-531.46-544.8c-8.38,21.81-98.52,256.44,3.93,368.89Z"/><path class="n" d="M58.68,1093.04c26.77-45.88,118.05-202.34,217.37-192.16,120.89,12.38,108.02,256.73,305.57,456.78,149.4,151.3,410.44,268.42,636.35,214.22,247.5-59.39,290.35-285.43,481.99-289.82,192.84-4.42,402.81,164.09,396.93,302.42-5.88,138.35-223.17,134.51-305.57,324.47-89.44,206.19,110.87,339.1,141.76,737.16,25.87,333.31-84.38,629.13-154.36,630.05-46.06,.61-49.12-126.86-138.61-154.36-65.69-20.19-147.59,40.87-308.72,163.81-296.77,226.43-317.74,243.18-359.13,239.42-166.1-15.09-187.77-317.43-362.28-340.23-144.46-18.87-200.32,179.09-315.02,176.41-322.37-7.52-632.65-1588.75-236.27-2268.17Z"/><path class="p" d="M-78,5529c42.25-5.32,43.93,414.36,304,533,149.46,68.18,234.56-31.35,539-16,282.13,14.23,296.42,104.12,523,118,409.42,25.08,540.48-257.52,789-198,284.43,68.13,540.15,540.67,427,838-204.46,537.28-1751.17,864.63-2384,133-456.76-528.08-258.01-1400.44-198-1408Z"/><path class="o" d="M1778.8,3936.03c-34.51,23.48,368.03,463.57,214.29,775.75-96.56,196.07-345.44,205.41-349.29,351.29-3.15,119.62,160.49,252.9,312.51,252.42,192.67-.61,329.51-215.98,373.65-361.68,150.01-495.21-510.32-1045.57-551.16-1017.78Z"/></svg>