<?xml version="1.0" encoding="UTF-8"?><svg xmlns="http://www.w3.org/2000/svg" viewBox="0 0 990 990"><defs><style>.d{fill:#6b0022;}.e{fill:#fff;}</style></defs><g id="a"/><g id="b"><g id="c"><path class="d" d="M990,495c0,254.44-191.97,464.04-438.97,491.86-18.39,2.08-37.08,3.14-56.03,3.14-186.33,0-348.61-102.95-433.07-255.07C22.47,663.86,0,582.05,0,495,0,221.62,221.62,0,495,0s495,221.62,495,495Z"/><g><path class="e" d="M676.72,198.82v2.64c6.15,1.74,11.73,4.05,16.78,6.9,5.04,2.85,9.44,7.13,13.17,12.84,3.72,5.71,6.57,13.16,8.54,22.38,1.99,9.21,2.98,21.5,2.98,36.84v384.21c43.71,.69,59.56,59.88,61.32,84.53l37.4,42V221.21l36.19-19.74v-2.64h-176.39Z"/><path class="e" d="M583.26,441.04v136.89c0,14.93,.99,27.1,2.96,36.52,1.97,9.46,4.83,17.01,8.56,22.72,3.72,5.71,8.12,9.86,13.17,12.5,5.04,2.62,23.63,4.4,43.01,7.24l15.85,2.64-213.09-.19v-7.04l30.82-17.79v-207.1c-1.14-24.41-3.52-63.96-7.92-93.86-2.69-18.35-9.83-33.76-12.33-38.74l-11.15-17.01c-7.68-9.65-17.1-17.54-28.3-23.69-11.18-6.15-24.25-9.23-39.15-9.23h-25.02v331.7l-12.87-25.29-9.5-18.99-2.71,6.78-9.5-21.71-2.71,2.71-12.21-20.35-13.57,20.35-1.36-5.43-8.14,18.99-4.07-2.71-22.09,45.64V244.89h-20.39c-15.8,0-29.52,2.96-41.14,8.89-11.64,5.92-21.63,13.72-29.96,23.37-8.33,9.65-14.92,20.62-19.74,32.9-4.83,12.29-8.56,24.58-11.18,36.86h-2.64V198.82h487.85v2.64l-41.47,19.74v170.47h134.93l-50.03,49.36h-84.9Z"/></g></g></g></svg>